<?xml version="1.0" encoding="UTF-8"?>
<!-- Generated by Pixelmator Pro 3.7.1 -->
<svg width="12" height="15" viewBox="0 0 12 15" xmlns="http://www.w3.org/2000/svg">
    <path id="path13" fill="#000000" stroke="none" d="M 6.562 14.000999 C 6.56 13.992001 6.557 13.984001 6.551 13.976 C 6.594 13.937 6.629 13.897999 6.646 13.875999 L 6.662 13.855 C 6.693 13.814999 6.749 13.705 6.672 13.679001 C 6.662 13.675999 6.652 13.672001 6.642 13.668999 C 6.637 13.667 6.63 13.667999 6.623 13.667 C 6.93 13.437 6.78 11.33 6.783 10.959 C 6.787 10.116001 6.813 9.246 6.74 8.396 C 7.788 8.168999 8.846 7.718 9.867001 7.299999 C 9.506001 8.288 9.200001 9.291 8.942 10.317001 C 8.721 11.199001 8.42 12.149 8.301 13.079 C 7.742 13.438 7.158 13.716 6.562 14.002001 Z M 6.17 11.362999 C 6.158 11.751999 5.955 13.098 6.094 13.754 C 5.745 13.639 5.355 13.577 5.027 13.482 C 4.716 13.393 4.418 13.271 4.119 13.163 C 3.908 12.084999 3.673 11.01 3.41 9.943001 C 3.221 9.171 3.053 8.345001 2.75 7.591 C 2.849 7.614 2.934 7.632999 2.999 7.652 C 4.017 7.944 5.038 8.226 6.066 8.48 C 6.126 8.540001 6.22 8.527 6.318 8.473999 C 6.322 8.473 6.326 8.473 6.329 8.473 C 6.219 9.43 6.199 10.403999 6.17 11.362999 Z M 5.19 0.841999 C 5.214 0.743 5.27 0.662001 5.344 0.601 C 5.406 0.5 5.505 0.426001 5.629 0.434999 C 5.666 0.437 5.7 0.451 5.733 0.469 C 5.725 0.518 5.719 0.568001 5.703 0.614 C 5.674 0.691 5.588 0.780001 5.643 0.869999 C 5.684 0.938 5.77 0.934999 5.783 1.030001 C 5.788 1.069 5.771 1.112 5.765 1.155001 C 5.673 1.165001 5.58 1.162001 5.483 1.139999 C 5.439 1.130001 5.408 1.091 5.392 1.048 C 5.369 1.047001 5.348 1.046 5.326 1.042 C 5.224 1.024 5.167 0.947001 5.191 0.843 Z M 7.881 14.120001 C 7.897 14.097 7.911 14.075001 7.922 14.052 C 8.211 13.945999 8.516 13.831001 8.746 13.625999 C 8.766 13.607 9.075001 13.271999 8.886 13.254 C 8.88 13.253 8.872 13.254 8.866 13.254 C 8.884 13.209999 8.89 13.167999 8.87 13.130001 C 8.868 13.125 8.864 13.122 8.861 13.118999 C 9.186001 12.109001 9.357 11.025 9.597 9.997 C 9.813999 9.059 10.018999 8.124001 10.174 7.174999 C 10.434999 7.069 10.694 6.968 10.948999 6.874001 C 10.988001 6.860001 11.039 6.821999 11.093 6.772999 C 11.32 6.667999 11.681999 6.403999 11.534 6.269001 C 11.540001 6.222 11.514999 6.188999 11.441 6.188 C 10.735001 5.573999 10.028999 4.961 9.322001 4.35 C 8.771 3.874001 8.105 3.427999 7.72 2.798 C 7.915 2.707001 8.077 2.586 8.17 2.423 C 7.961 2.084 7.316 1.910999 6.81 1.829 C 6.814 1.827 6.818 1.823999 6.821 1.82 C 6.968 1.688999 7.236 1.319 7.213 1.055 C 7.228 0.952999 7.222 0.854 7.193 0.759001 C 7.217 0.612 7.159 0.468 6.964 0.347 C 6.92 0.32 6.872 0.299999 6.823 0.282 C 6.762 0.237999 6.693 0.197001 6.619 0.158001 C 6.349 0.02 6.093 -0.063 5.807 0.059 C 5.592 0.125999 5.38 0.296 5.238 0.43 C 5.162 0.500999 5.087 0.594 5.017 0.691 C 5.028 0.723999 5.028 0.761 5.007 0.799999 C 4.939 0.923 4.952 1.098999 4.992 1.247 C 4.994 1.253 4.997 1.261 5 1.267 C 4.964 1.365999 4.957 1.472 4.999 1.579 C 4.997 1.605999 5 1.632999 5.017 1.657 C 5.037 1.672001 5.057 1.688 5.078 1.702999 C 5.092 1.714001 5.109 1.716999 5.125 1.722 C 5.149 1.780001 5.182 1.832001 5.227 1.880001 L 5.193 1.880001 C 5.172 1.879 5.153 1.872 5.132 1.869999 C 4.827 1.945999 4.537 2.073 4.275 2.251999 C 4.269 2.26 4.264 2.267 4.256 2.274 C 4.2 2.394001 4.19 2.534 4.179 2.691 C 4.244 2.844999 4.369 2.945999 4.56 2.993 C 4.68 3.040001 4.807 3.07 4.935 3.091999 C 4.902 3.187 4.879 3.283001 4.846 3.387001 C 4.661 3.514 4.489 3.716 4.597 3.792 C 4.615 3.805 4.632 3.815001 4.65 3.826 C 4.616 4.017 4.62 4.267 4.519 4.392 C 4.458 4.466 4.384 4.616001 4.499 4.673 C 4.545 4.695999 4.591 4.716999 4.638 4.739 C 4.627 4.753 4.615 4.765999 4.603 4.781 C 4.488 4.931 4.206 5.268 4.233 5.48 C 4.244 5.568001 4.304 5.646 4.384 5.716 C 4.294 5.777 4.22 5.862999 4.227 5.955 C 4.229 5.996 4.233 6.036999 4.236 6.079 C 4.238 6.1 4.25 6.117001 4.265 6.129 C 4.231 6.193001 4.197 6.26 4.164 6.33 C 4.042 6.293999 3.919 6.26 3.798 6.220001 C 3.624 6.164 3.262 6.454 3.176 6.651001 C 2.616 6.497 2.058 6.386 1.523 6.368999 C 2.443 5.792 3.381 5.070999 4.145 4.250999 C 4.136 4.246 4.129 4.242001 4.121 4.237 C 3.98 4.344 3.839 4.451 3.699 4.559 C 3.672 4.579 3.644 4.586 3.617 4.586 C 3.243 4.931999 2.849 5.253 2.442 5.528999 C 2.068 5.784 1.545 6.220001 1.051 6.249001 C 1.05 6.249001 1.049 6.25 1.049 6.25 C 0.94 6.320999 0.855 6.431 0.815 6.526001 C 0.728 6.591 0.664 6.673 0.665 6.753 C 0.665 6.772999 0.666 6.792 0.675 6.810001 C 0.821 7.110001 1.497 7.306 2.105 7.445999 C 2.21 8.505001 2.535 9.553001 2.775 10.583 C 3.041 11.723 3.277 12.867001 3.507 14.014999 C 3.534 14.15 3.731 14.093 3.908 13.973 C 3.97 14.023001 4.055 14.056999 4.137 14.089001 C 4.202 14.115 4.271 14.142 4.341 14.167 C 6.645236 14.656475 6.788819 14.929289 7.881 14.120001 Z"/>
</svg>
