<svg width="128" height="160" viewBox="0 0 128 160" fill="none" xmlns="http://www.w3.org/2000/svg">
  <path d="M63 14C39.252 14 20 33.252 20 57C20 76.0482 32.3653 92.2087 49.5177 97.9098C42.8104 106.363 33.6058 115.577 24 123.555C35.9197 126.665 46.2808 123.651 54.4722 115.769C59.094 125.255 66.7198 134.347 77.3492 143C78.8726 132.56 84.3393 123.231 94.1139 115.383C100.501 119.2 107.214 121.457 114 121.457C104.994 111.988 96.2962 103.128 92.3852 93.7056C100.803 85.5979 106 73.9698 106 61.1289C106 35.1009 84.8991 14 58.8711 14H63Z" fill="url(#ghost2-fill)"/>
  <path d="M46 74C52.6643 66.0645 69.3357 66.0645 76 74" stroke="#EAFDFF" stroke-width="6" stroke-linecap="round"/>
  <circle cx="51" cy="57" r="4.5" fill="#E7FBFF"/>
  <circle cx="72" cy="57" r="4.5" fill="#E7FBFF"/>
  <path d="M39 48C46.8175 34.8925 66.2456 31.0016 79 39" stroke="url(#ghost2-glow)" stroke-width="9" stroke-linecap="round"/>
  <defs>
    <linearGradient id="ghost2-fill" x1="63" y1="14" x2="63" y2="143" gradientUnits="userSpaceOnUse">
      <stop stop-color="#FFFFFF" stop-opacity="0.92"/>
      <stop offset="0.56" stop-color="#BEEBFF" stop-opacity="0.7"/>
      <stop offset="1" stop-color="#6D89FF" stop-opacity="0.18"/>
    </linearGradient>
    <linearGradient id="ghost2-glow" x1="39" y1="48" x2="79" y2="39" gradientUnits="userSpaceOnUse">
      <stop stop-color="#98E9FF" stop-opacity="0.18"/>
      <stop offset="0.5" stop-color="#F5FFFF"/>
      <stop offset="1" stop-color="#98E9FF" stop-opacity="0.18"/>
    </linearGradient>
  </defs>
</svg>
