<svg width="128" height="160" viewBox="0 0 128 160" fill="none" xmlns="http://www.w3.org/2000/svg">
  <path d="M64 10C38.5949 10 18 30.5949 18 56C18 76.3798 31.2532 93.6648 49.6013 99.7634C42.4264 110.58 31.9317 122.611 22 131.529C34.8224 134.309 45.7716 129.957 53.9588 120.889C58.754 132.366 68.0111 141.157 81 150C81.7895 137.461 86.2927 126.545 95.2253 118.074C102.82 122.611 111.229 125.341 120 125.341C110.638 115.93 101.086 107.132 96.1056 96.4934C105.783 87.9753 110 74.8464 110 62C110 33.2812 86.7188 10 58 10H64Z" fill="url(#ghost1-fill)"/>
  <path d="M43 56C43 46.0589 51.0589 38 61 38C70.9411 38 79 46.0589 79 56" stroke="url(#ghost1-glow)" stroke-width="10" stroke-linecap="round"/>
  <circle cx="52" cy="58" r="5" fill="#DCF7FF"/>
  <circle cx="73" cy="58" r="5" fill="#DCF7FF"/>
  <path d="M49 79C55.0268 86.5155 68.9732 86.5155 75 79" stroke="#D8F8FF" stroke-width="6" stroke-linecap="round"/>
  <defs>
    <linearGradient id="ghost1-fill" x1="64" y1="10" x2="64" y2="150" gradientUnits="userSpaceOnUse">
      <stop stop-color="#F6FEFF" stop-opacity="0.95"/>
      <stop offset="0.5" stop-color="#B8F4FF" stop-opacity="0.72"/>
      <stop offset="1" stop-color="#7CB8FF" stop-opacity="0.2"/>
    </linearGradient>
    <linearGradient id="ghost1-glow" x1="43" y1="56" x2="79" y2="56" gradientUnits="userSpaceOnUse">
      <stop stop-color="#93EEFF" stop-opacity="0.2"/>
      <stop offset="0.5" stop-color="#F7FFFF"/>
      <stop offset="1" stop-color="#93EEFF" stop-opacity="0.2"/>
    </linearGradient>
  </defs>
</svg>
