<svg xmlns="http://www.w3.org/2000/svg" viewBox="0 0 1247 1247">
  <path d="M1246.763 10.945c0 0-104.299-44.895-199.092 47.17-94.82 92.067-176.956 234.782-144.594 491.759 30.368 241.051 10.537 338.659-158.792 354.793-182.985 17.409-365.269-214.679-447.982-98.816-23.979 33.576 85.316 150.466-64.002 145.956 0 0-52.891 4.057-101.907-53.891-49.439-58.429-74.324-16.225-56.918 22.466 15.047 33.362-23.704 47.139-73.478 47.139v29.215c0 0 53.891 0 84.226-17.529 11.838-6.844 15.926-19.95 9.842-41.566-2.695-9.537-16.502-38.542-6.51-34.274 7.053 3.029 13.533 10.144 31.456 36.421 6.174 9.084 24.916 33.999 39.449 42.355 22.040 12.687 32.335 14.593 76.203 14.593 82.984 0 142.231-60.64 118.527-107.809-23.707-47.14-31.305-68.726-9.993-75.445 21.345-6.719 73.994 3.605 251.738 95.669 177.777 92.065 284.435 58.401 350.799-24.704 66.361-83.106 6.631-303.116-2.362-449.102-10.929-177.019 96.638-435.358 303.388-399.692z"/>
  <path d="M961.086 901.074c8.174 3.177 16.349 6.268 24.674 9.023 64.666 21.402 136.936-6.392 170.721-60.431 43.354-69.331 32.878-162.123 8.509-235.994-18.983-57.491-53.468-113.259-78.263-169.176-20.103-45.261-43.203-91.28-48.348-140.416-8.356-80.26 10.534-187.1 77.139-243.685 25.764-21.858 75.447-42.537 111.202-37.177l20.073 12.443c-167.878 3.543-197.001 211.29-158.25 328.908 13.291 40.297 33.878 77.293 56.616 121.738 28.459 55.676 63.123 105.568 81.199 166.271 25.795 86.465 29.912 206.505-15.047 288.46-24.16 44.052-82.471 79.716-129.761 82.621-53.556 3.332-110.078-18.164-155.191-43.596-11.715-6.603-23.070-13.654-34.392-20.737 25.553-13.956 48.623-33.425 69.119-58.25z"/>
  <path d="M508.503 732.82c95.336-0.234 171.751 38.905 250.497 71.995 30.003 12.624 59.066 27.459 88.069 42.385-17.62 15.167-41.992 25.402-74.415 31.425-59.673-41.053-120.889-79.592-193.884-102.722-44.898-14.231-143.141-32.335-117.195 44.593-5.54 0.234-15.772-2.118-20.828-4.212-7.812-52.827 1.695-83.317 67.756-83.468z"/>
</svg>