<svg xmlns="http://www.w3.org/2000/svg" viewBox="0 0 1247 1247">
  <path d="M0 1013.054c0 0 101.666 44.899 194.124-47.17 92.431-92.066 172.54-234.784 140.963-491.763-29.61-241.053-10.265-338.659 154.829-354.796 178.413-17.409 356.128 214.681 436.781 98.817 23.372-33.574-83.166-150.467 62.428-145.957 0 0 51.529-4.057 99.364 53.891 48.197 58.432 72.448 16.228 55.465-22.466-14.654-33.362 23.1-47.137 71.63-47.137v-29.217c0 0-52.526 0-82.106 17.53-11.536 6.842-15.53 19.952-9.597 41.569 2.634 9.537 16.107 38.54 6.359 34.271-6.905-3.027-13.201-10.144-30.67-36.422-6.054-9.083-24.311-33.999-38.449-42.355-21.496-12.685-31.546-14.594-74.327-14.594-80.895 0-138.662 60.643-115.531 107.81 23.1 47.14 30.519 68.727 9.721 75.448-20.801 6.721-72.146-3.603-245.475-95.67-173.296-92.069-277.321-58.402-342.021 24.704-64.697 83.106-6.447 303.116 2.332 449.103 10.627 177.020-94.247 435.361-295.82 399.697z"/>
  <path d="M278.562 122.926c-7.96-3.178-15.953-6.265-24.067-9.020-63.035-21.405-133.484 6.389-166.453 60.429-42.264 69.331-32.063 162.125-8.295 235.996 18.527 57.495 52.133 113.262 76.324 169.181 19.587 45.261 42.11 91.28 47.107 140.417 8.174 80.26-10.232 187.101-75.173 243.684-25.13 21.861-73.569 42.539-108.447 37.18l-19.557-12.443c163.668-3.543 192.067-211.291 154.283-328.913-12.957-40.295-33.030-77.291-55.191-121.736-27.764-55.677-61.549-105.572-79.17-166.272-25.16-86.468-29.157-206.509 14.651-288.464 23.586-44.050 80.411-79.714 126.521-82.622 52.257-3.329 107.327 18.167 151.316 43.597 11.416 6.6 22.496 13.657 33.546 20.741-24.916 13.956-47.412 33.422-67.394 58.248z"/>
  <path d="M719.826 291.168c-92.945 0.218-167.453-38.905-244.231-71.995-29.245-12.624-57.583-27.459-85.891-42.385 17.197-15.168 40.962-25.402 72.569-31.426 58.19 41.053 117.863 79.593 189.040 102.723 43.778 14.231 139.568 32.335 114.29-44.594 5.359-0.249 15.349 2.118 20.285 4.208 7.628 52.828-1.665 83.317-66.062 83.468z"/>
</svg>