<svg xmlns="http://www.w3.org/2000/svg" viewBox="0 0 1247 1247">
  <path d="M0.030 10.945c0 0 104.299-44.895 199.089 47.17 94.823 92.068 176.958 234.783 144.594 491.759-30.365 241.051-10.534 338.659 158.794 354.793 182.982 17.409 365.269-214.679 447.981-98.817 23.976 33.576-85.316 150.466 64.002 145.956 0 0 52.891 4.057 101.907-53.891 49.438-58.428 74.324-16.225 56.915 22.466-15.047 33.362 23.707 47.14 73.478 47.14v29.214c0 0-53.888 0-84.196-17.529-11.866-6.844-15.953-19.949-9.869-41.566 2.695-9.536 16.5-38.542 6.51-34.273-7.053 3.029-13.533 10.144-31.456 36.421-6.177 9.083-24.916 33.999-39.449 42.354-22.040 12.687-32.335 14.593-76.203 14.593-82.954 0-142.231-60.639-118.527-107.809 23.704-47.14 31.305-68.726 9.99-75.444-21.342-6.719-73.992 3.605-251.735 95.668-177.777 92.065-284.435 58.401-350.799-24.704s-6.631-303.116 2.362-449.102c10.929-177.018-96.638-435.357-303.388-399.691z"/>
  <path d="M285.707 901.073c-8.174 3.177-16.349 6.268-24.674 9.023-64.669 21.403-136.936-6.385-170.723-60.43-43.352-69.331-32.878-162.124-8.507-235.994 18.983-57.492 53.465-113.259 78.263-169.177 20.101-45.261 43.201-91.279 48.348-140.416 8.356-80.259-10.537-187.099-77.139-243.684-25.764-21.858-75.447-42.536-111.202-37.177l-20.073 12.442c167.875 3.543 197.001 211.29 158.248 328.908-13.289 40.297-33.878 77.293-56.613 121.738-28.459 55.676-63.125 105.567-81.229 166.27-25.764 86.465-29.882 206.505 15.077 288.459 24.16 44.053 82.471 79.716 129.758 82.622 53.559 3.332 110.081-18.165 155.19-43.596 11.718-6.603 23.070-13.654 34.395-20.738-25.553-13.956-48.623-33.425-69.119-58.25z"/>
  <path d="M738.289 732.82c-95.336-0.234-171.751 38.904-250.497 71.994-30.003 12.624-59.066 27.46-88.069 42.386 17.618 15.167 41.989 25.401 74.415 31.425 59.673-41.053 120.889-79.593 193.881-102.722 44.898-14.231 143.143-32.335 117.198 44.594 5.54 0.234 15.772-2.118 20.828-4.212 7.812-52.828-1.695-83.317-67.756-83.468z"/>
</svg>