<svg xmlns="http://www.w3.org/2000/svg" viewBox="0 0 889.33 803.9"><path transform="translate(-63.7736,849.9) scale(1,-1)" d="M336 566Q336 566 335.0 561.5Q334 557 336 556Q354 547 391.5 540.5Q429 534 449 535Q462 535 469.0 535.5Q476 536 497 539Q499 539 502.0 541.5Q505 544 506 548Q507 556 496.0 552.0Q485 548 483 547Q461 542 426.5 545.5Q392 549 370 555Q368 555 353.0 561.0Q338 567 336 566ZM822 571Q819 571 816.5 568.5Q814 566 811 564Q798 558 767.0 556.5Q736 555 723 559Q717 560 707.5 564.5Q698 569 695 558Q698 554 703.0 553.5Q708 553 712 552Q714 552 718.5 550.5Q723 549 727 548Q749 543 769.0 544.5Q789 546 811 552Q814 553 821.0 557.5Q828 562 829 564Q830 568 827.5 570.0Q825 572 822 571ZM466 698Q464 698 455.5 689.0Q447 680 444 678Q403 644 345.0 621.0Q287 598 235 589Q230 588 217.5 588.0Q205 588 202 585L201 582Q205 570 234.0 568.0Q263 566 273 567Q282 568 287.0 571.0Q292 574 300 577Q318 583 336.0 584.5Q354 586 372 593Q393 602 423.5 634.5Q454 667 465 688Q466 689 468.0 693.5Q470 698 466 698ZM547 657Q539 666 534.0 678.5Q529 691 521 701Q521 700 520.0 699.5Q519 699 518 697Q517 693 519.0 680.5Q521 668 521 661Q521 639 520.0 617.0Q519 595 520 574Q520 572 520.5 567.0Q521 562 522 561Q549 553 574.0 551.5Q599 550 626 556Q634 558 643.0 560.5Q652 563 659 567Q660 570 644.5 575.5Q629 581 625 583Q614 589 592.5 608.5Q571 628 563 638Q558 644 555.5 647.5Q553 651 547 656ZM562 710Q603 668 665.0 643.5Q727 619 784 608Q793 607 803.0 606.0Q813 605 822 603Q841 600 843.0 591.5Q845 583 845 567Q847 519 852.5 471.5Q858 424 862 376Q864 347 868.5 319.0Q873 291 878 262Q887 214 898.5 166.0Q910 118 937 74Q939 70 945.0 63.5Q951 57 952 55Q956 46 945.5 47.0Q935 48 932 48Q893 48 850.0 46.5Q807 45 770 48Q768 48 766.5 48.0Q765 48 763 49Q752 75 739.0 101.0Q726 127 716 153Q711 169 705.5 186.0Q700 203 695 220Q688 240 688.5 255.5Q689 271 688 292Q686 326 685.5 359.5Q685 393 684 427Q683 455 681.5 483.0Q680 511 681 539Q681 543 682.5 550.0Q684 557 679 557Q675 558 670.5 554.0Q666 550 662 548Q640 538 610.0 534.5Q580 531 556 534Q550 535 539.0 539.0Q528 543 524 543Q518 542 519.5 536.5Q521 531 521 528Q522 473 521.0 418.5Q520 364 521 310Q532 272 541.0 236.0Q550 200 565 164Q575 140 586.0 113.5Q597 87 613 66Q616 62 622.5 56.5Q629 51 620 46L614 47Q602 48 593.0 59.5Q584 71 579 81Q561 116 546.0 158.0Q531 200 520 238Q518 244 516.0 263.5Q514 283 507 282Q501 273 500.0 261.5Q499 250 497 240Q490 214 482.0 190.5Q474 167 465 143Q458 124 446.5 93.0Q435 62 418 51Q410 45 404.0 46.5Q398 48 391 48Q353 48 314.5 48.0Q276 48 238 49Q237 50 236.0 51.5Q235 53 235 54Q235 62 243.0 75.0Q251 88 255 96Q276 139 290.0 184.5Q304 230 308 279Q313 341 312.0 402.5Q311 464 318 526Q319 533 318.5 540.5Q318 548 320 555Q317 567 307.5 561.0Q298 555 292 553Q279 547 250.5 547.5Q222 548 209 555Q206 556 197.0 562.5Q188 569 188 559Q188 549 189.0 538.0Q190 527 189 516Q187 490 182.0 463.0Q177 436 175 410Q173 386 171.5 366.0Q170 346 166 322Q158 264 145.5 197.5Q133 131 104 79Q100 72 93.0 59.5Q86 47 76 47Q58 45 66.5 55.5Q75 66 77 70Q105 117 117.0 165.5Q129 214 138 267Q145 306 150.0 343.5Q155 381 158 421Q161 449 165.5 477.5Q170 506 172 535Q172 545 171.0 567.0Q170 589 175 596Q177 599 183.0 601.0Q189 603 193 603Q202 605 212.0 606.0Q222 607 232 609Q305 623 367.0 651.5Q429 680 481 735Q495 750 497.5 767.0Q500 784 499 802Q499 811 496.0 828.5Q493 846 506 849Q516 852 522.5 845.0Q529 838 537 833Q566 815 593.0 824.5Q620 834 648 837Q666 838 681.0 836.5Q696 835 712 829Q723 825 729.0 821.5Q735 818 748 818Q759 817 770.5 818.0Q782 819 793 819Q796 819 800.5 817.0Q805 815 806 812Q808 803 797.0 800.0Q786 797 784 789Q784 783 798.5 776.5Q813 770 802 759Q797 754 774.5 757.0Q752 760 743 758Q721 769 699.5 774.0Q678 779 653 775Q627 772 605.5 762.0Q584 752 556 766Q550 769 538.0 778.0Q526 787 520 785Q515 784 516.5 774.5Q518 765 520 762Q523 754 539.0 735.5Q555 717 562 710Z"/></svg>