<svg xmlns="http://www.w3.org/2000/svg" viewBox="0 0 853.164 1023.65"><path transform="translate(-85.2,959.385) scale(1,-1)" d="M531 588Q500 583 462.5 540.5Q425 498 424 466Q424 459 430.0 450.5Q436 442 444 442Q446 441 457.0 442.5Q468 444 470 445Q482 449 505.5 472.0Q529 495 537 506Q543 514 549.5 525.5Q556 537 559 545Q561 548 564.5 559.0Q568 570 567 573Q566 584 553.0 587.0Q540 590 531 588ZM712 881Q708 876 699.5 870.0Q691 864 686 859Q660 834 638.5 805.5Q617 777 600 745Q595 736 584.5 713.0Q574 690 575 682Q576 672 582.0 676.5Q588 681 591 686Q609 721 621.0 747.5Q633 774 659 806Q673 822 701.0 850.0Q729 878 748 885Q755 888 772.0 889.5Q789 891 796 889Q802 888 808.0 883.5Q814 879 816 873Q829 830 790.0 761.5Q751 693 720 664Q702 647 679.0 635.0Q656 623 634 614Q627 611 620.0 610.5Q613 610 612 601Q611 596 612.0 586.0Q613 576 618 575Q626 575 631.0 580.0Q636 585 642 589Q662 600 699.0 614.0Q736 628 758 629Q782 630 819.5 628.0Q857 626 880 619Q894 615 910.0 594.5Q926 574 931 561Q940 538 938.0 520.0Q936 502 922 482Q920 478 912.5 466.5Q905 455 903 451Q899 445 881.0 434.0Q863 423 856 423Q830 422 804.5 440.5Q779 459 756 469Q721 485 681.5 498.0Q642 511 603 508Q600 508 594.5 509.5Q589 511 588 505Q586 496 595.5 496.0Q605 496 609 495Q658 487 697.0 476.0Q736 465 778 438Q805 420 819.0 394.5Q833 369 830 336Q829 331 827.5 327.5Q826 324 826 320Q825 314 819.5 299.0Q814 284 811 280Q806 273 802.0 264.5Q798 256 790 251Q785 247 777.0 243.5Q769 240 768 232Q768 228 774.5 211.0Q781 194 782 187Q790 143 785.0 70.5Q780 -2 764 -43Q760 -54 750.0 -61.0Q740 -68 729 -60Q717 -50 722.0 -35.0Q727 -20 730 -9Q741 42 743.0 84.5Q745 127 738 178Q738 186 738.0 201.5Q738 217 725 214Q721 213 717.5 209.5Q714 206 710 205Q700 201 667.5 201.0Q635 201 631 202Q600 209 573.0 226.5Q546 244 525 267Q511 282 504.5 298.0Q498 314 497 318Q494 328 493.0 344.5Q492 361 493 371Q493 377 496.5 391.0Q500 405 490 406Q485 406 471.5 397.5Q458 389 449 389Q437 389 416.5 397.0Q396 405 387 414Q378 424 380.0 433.0Q382 442 381 453Q381 457 378.5 468.5Q376 480 372 481L367 479Q355 470 342.0 461.0Q329 452 316 444Q277 423 233.5 408.5Q190 394 145 401Q136 402 121.5 411.0Q107 420 104 429Q102 432 100.5 444.5Q99 457 99 461Q98 484 128.0 518.5Q158 553 176 566Q196 580 225.5 587.0Q255 594 280 590Q284 589 287.5 586.5Q291 584 295 583Q300 582 317.5 578.5Q335 575 337 577Q339 585 330.5 590.0Q322 595 315 597Q306 599 294.0 603.0Q282 607 276 608Q269 609 256.5 609.5Q244 610 240 609Q235 608 226.5 605.0Q218 602 216 608Q222 650 256.0 680.5Q290 711 327 727Q343 735 371.0 741.0Q399 747 416 744Q422 744 431.0 736.5Q440 729 443 725Q448 714 447.0 686.0Q446 658 444 645Q443 639 438.0 618.5Q433 598 437 596Q449 596 456.5 606.0Q464 616 474 622Q482 627 496.5 631.0Q511 635 515 639Q520 646 517.5 658.0Q515 670 515 678Q514 708 518.0 736.5Q522 765 532 793Q548 833 593.0 888.5Q638 944 680 958Q688 961 699.5 957.5Q711 954 715 945Q720 935 719.0 918.5Q718 902 716 891Q715 888 714.0 885.5Q713 883 712 881ZM206 51Q203 51 201.5 50.5Q200 50 196 49Q193 49 185.0 47.5Q177 46 174 45Q169 45 159.5 41.0Q150 37 146 36Q144 36 129.5 37.0Q115 38 113 39Q110 40 100.5 50.0Q91 60 90 63Q88 68 90.0 72.0Q92 76 95 80Q97 82 104.5 86.5Q112 91 114 92Q132 100 159.0 105.0Q186 110 206 112Q260 118 315.0 113.0Q370 108 420 81Q423 80 432.5 74.5Q442 69 444 68Q445 67 455.5 53.0Q466 39 467 37Q471 28 466.5 23.0Q462 18 456 13Q431 -11 382.0 -33.5Q333 -56 300 -59Q262 -62 201.0 -61.0Q140 -60 106 -44Q80 -31 86.5 -13.0Q93 5 113 15Q122 19 130.5 20.0Q139 21 146 23Q148 24 153.5 25.0Q159 26 163 27Q166 27 173.5 28.5Q181 30 185 31Q189 32 196.5 33.5Q204 35 210 36Q217 37 227.5 36.5Q238 36 241 36Q245 36 252.0 37.0Q259 38 262 38Q266 37 271.5 37.5Q277 38 282 38Q303 38 322.5 35.5Q342 33 362 31Q365 30 373.5 29.0Q382 28 383 33Q386 45 371.5 46.0Q357 47 341 50Q322 52 309.5 54.5Q297 57 286 54Q284 53 275.0 53.0Q266 53 261 53Q257 53 242.0 51.5Q227 50 221 51Q221 51 215.0 51.0Q209 51 206 51Z"/></svg>