<svg xmlns="http://www.w3.org/2000/svg" viewBox="0 0 983.713 1023.8"><path transform="translate(-19.0693,959.8) scale(1,-1)" d="M657 11Q655 13 650.5 16.0Q646 19 643 19H522Q522 19 516.5 14.5Q511 10 511 10Q511 7 514.0 4.0Q517 1 517 -2Q517 -6 513.5 -8.5Q510 -11 510 -14Q508 -21 514.5 -25.0Q521 -29 527 -29Q542 -31 585.5 -31.5Q629 -32 643 -29Q658 -26 662.0 -13.0Q666 0 657 11ZM239 159Q230 167 226.5 161.5Q223 156 217 151Q213 149 206.0 146.5Q199 144 198 138Q197 133 200.5 128.0Q204 123 207 119Q221 104 238.5 88.0Q256 72 271 58Q274 55 281.0 46.5Q288 38 291 38Q306 39 306.5 55.0Q307 71 326 66Q326 73 320.0 77.5Q314 82 310 87Q293 103 274.5 123.5Q256 144 239 159ZM585 335Q584 335 580.5 327.0Q577 319 577 318Q575 308 578.5 303.0Q582 298 590 294L704 265Q710 266 718.5 269.0Q727 272 728 279Q730 285 726.0 287.5Q722 290 721 294Q720 300 722.5 304.0Q725 308 716 313L600 342Q597 342 591.5 339.5Q586 337 585 335ZM65 476Q61 475 57.5 466.5Q54 458 54 454Q64 428 69.5 399.0Q75 370 84 344Q90 328 97.0 333.0Q104 338 116 342Q119 344 123.0 344.5Q127 345 131 346L133 354L101 469Q100 471 98.0 472.5Q96 474 94 474Q92 475 79.0 476.0Q66 477 65 476ZM949 545Q946 545 935.0 540.0Q924 535 923 533Q920 518 916.5 503.0Q913 488 910 473Q908 465 906.0 457.0Q904 449 902 441Q901 434 896.5 425.0Q892 416 897 410Q899 407 902.5 406.5Q906 406 909 404Q912 402 914.0 397.5Q916 393 921 392Q929 391 934.5 397.0Q940 403 944 408L970 521Q970 530 965.0 538.0Q960 546 950 545ZM432 598Q430 598 425.0 595.0Q420 592 419 591Q413 585 406.0 561.5Q399 538 396 529Q392 518 384.0 499.0Q376 480 375 469Q375 463 380.0 455.5Q385 448 391 447Q402 444 405.5 450.5Q409 457 415 462Q417 463 420.5 464.0Q424 465 426 467Q432 491 440.0 513.5Q448 536 456 559Q456 561 458.0 562.5Q460 564 460 566Q463 578 453.5 589.0Q444 600 432 598ZM177 817Q172 817 167.5 813.5Q163 810 160 806Q149 783 133.0 760.0Q117 737 106 714Q102 706 100.5 699.0Q99 692 104 684Q109 682 113.5 682.5Q118 683 122 682Q126 682 129.5 679.0Q133 676 139 678Q143 679 147.0 686.0Q151 693 153 697Q166 717 177.5 739.5Q189 762 203 782Q207 793 197.5 806.0Q188 819 177 817ZM769 815Q762 820 752.5 827.5Q743 835 735 831Q730 829 723.5 813.0Q717 797 720 792Q739 776 759.0 761.5Q779 747 799 731Q803 728 809.5 721.5Q816 715 820 717Q823 719 824.5 723.5Q826 728 829 730Q834 734 844.5 737.0Q855 740 850 752Q848 755 837.0 763.5Q826 772 822 775Q809 786 795.5 795.5Q782 805 769 815ZM402 930Q397 926 391.5 923.5Q386 921 387 913Q388 910 391.0 907.0Q394 904 396 900Q398 896 399.0 891.5Q400 887 402 883Q405 878 413.5 879.5Q422 881 428 882Q445 882 462.5 882.0Q480 882 497 882Q504 882 510.0 880.5Q516 879 521 887Q524 891 524.0 896.0Q524 901 526 903Q528 906 532.0 906.0Q536 906 538 908Q546 913 537.5 921.0Q529 929 523 930Q497 935 463.0 931.0Q429 927 402 930ZM703 858Q711 865 723.5 865.5Q736 866 746 864Q752 864 767.5 853.0Q783 842 789 837Q805 825 826.5 809.0Q848 793 863 780Q870 774 876.5 761.0Q883 748 883 738Q883 726 876.5 717.5Q870 709 878 694Q883 685 890.5 674.5Q898 664 903 654Q912 639 921.0 621.0Q930 603 940 589Q946 580 953.5 580.0Q961 580 970 576Q988 568 996.5 549.5Q1005 531 1002 512Q997 483 987.5 452.0Q978 421 972 391Q964 372 947.5 361.5Q931 351 910 355Q906 355 903.0 357.0Q900 359 898 360Q892 361 851.0 335.5Q810 310 800 304Q793 300 781.0 295.0Q769 290 764 282Q762 278 761.0 272.5Q760 267 758 263Q749 247 732.5 239.0Q716 231 698 233Q676 236 644.5 245.0Q613 254 590 260Q582 263 573.5 264.5Q565 266 558 272Q547 280 544.0 289.5Q541 299 539 310Q537 317 527.5 325.5Q518 334 512 339Q491 357 468.5 373.5Q446 390 426 409Q420 412 411.0 409.5Q402 407 394 407Q379 408 365.5 419.5Q352 431 347 444Q339 463 346.0 478.0Q353 493 358 510Q364 528 374.5 562.5Q385 597 396 609Q410 625 430.5 629.0Q451 633 469 621Q484 610 489.5 594.0Q495 578 491 559Q487 538 474.5 506.5Q462 475 454 453Q453 450 450.5 446.5Q448 443 448 438L545 356Q553 352 556.5 356.5Q560 361 565 364Q572 368 580.5 370.5Q589 373 598 371Q627 360 665.0 355.5Q703 351 730 339Q738 336 743.0 328.0Q748 320 756 321Q774 333 794.0 343.5Q814 354 833 365Q835 366 836.5 367.5Q838 369 839 370Q845 374 856.5 379.0Q868 384 869 390Q869 393 867.5 396.0Q866 399 865 403Q864 418 871.5 445.5Q879 473 883 489Q887 503 890.5 524.0Q894 545 902 555Q904 558 907.5 560.0Q911 562 911 567L842 687Q827 682 816.5 684.5Q806 687 794 695Q779 704 739.0 733.5Q699 763 689 775Q681 785 681.5 791.0Q682 797 678 806Q675 815 668.5 815.5Q662 816 656 819Q635 828 613.5 836.5Q592 845 572 855Q569 856 566.5 859.0Q564 862 560 862Q553 864 550.5 860.0Q548 856 542 853Q519 843 473.5 849.0Q428 855 402 848Q389 847 377.0 856.0Q365 865 355 863Q351 862 348.5 859.0Q346 856 342 854Q320 844 297.0 833.0Q274 822 252 811Q247 809 242.0 808.5Q237 808 236 801Q235 797 235.5 792.0Q236 787 236 781Q234 771 207.0 724.0Q180 677 172 665Q166 657 158.5 649.5Q151 642 142 639Q138 637 132.5 637.0Q127 637 124 632Q121 606 118.0 581.0Q115 556 111 530Q110 522 108.0 517.5Q106 513 112 504Q116 498 120.0 494.5Q124 491 127 484Q139 455 145.0 419.0Q151 383 162 354Q163 348 160.0 338.5Q157 329 155 324Q153 318 149.0 314.0Q145 310 148 302Q148 299 150.5 298.0Q153 297 154 295Q164 275 175.0 255.0Q186 235 196 215Q198 213 199.0 208.5Q200 204 201 202Q205 198 219.0 197.0Q233 196 239 194Q241 194 247.0 188.5Q253 183 256 181Q273 165 301.0 139.0Q329 113 342 95Q344 92 347.5 86.5Q351 81 352 78Q353 73 353.5 64.5Q354 56 357 55Q358 53 367.0 50.0Q376 47 380 46Q396 41 414.0 37.0Q432 33 449 27Q453 26 457.5 22.5Q462 19 467 19Q475 19 478.5 25.5Q482 32 487 36Q494 42 502.0 44.5Q510 47 519 47Q545 49 580.0 49.0Q615 49 641 47Q659 46 673.5 35.5Q688 25 694 8Q696 0 696.0 -7.0Q696 -14 694 -22Q688 -39 674.5 -49.5Q661 -60 643 -62Q618 -64 580.0 -64.0Q542 -64 517 -62Q505 -61 495.0 -55.5Q485 -50 477 -40Q473 -35 472.0 -29.5Q471 -24 468 -21Q464 -14 447.0 -10.5Q430 -7 422 -5Q406 0 389.0 7.0Q372 14 356 18Q341 23 334.5 16.5Q328 10 316 6Q306 3 296.0 3.5Q286 4 277 9Q264 15 223.5 55.0Q183 95 173 108Q165 120 162.5 131.5Q160 143 162 158Q164 167 169.5 172.0Q175 177 170 189Q169 191 167.0 192.5Q165 194 164 196Q152 219 139.5 242.0Q127 265 115 288Q108 296 102.0 294.5Q96 293 88 295Q85 296 75.5 303.5Q66 311 63 313Q52 326 47.0 350.0Q42 374 38 391Q29 424 20.5 459.5Q12 495 54 514Q60 517 66.5 517.5Q73 518 75 526Q76 531 75.5 535.5Q75 540 76 545Q78 569 82.0 592.5Q86 616 89 640Q88 650 79.0 657.5Q70 665 68 676Q67 684 67.5 694.0Q68 704 71 712Q83 740 105.0 770.5Q127 801 139 829Q151 841 168.0 846.5Q185 852 202 845Q208 843 211.0 839.0Q214 835 222 836Q226 837 228.0 839.5Q230 842 233 844Q258 856 283.5 867.0Q309 878 333 890Q346 897 346.0 904.5Q346 912 350 924Q354 936 365.0 945.0Q376 954 388 957Q421 957 456.5 959.0Q492 961 525 958Q541 957 556.0 943.5Q571 930 574 914Q576 909 575.0 905.5Q574 902 574 897Q575 888 581.0 888.0Q587 888 593 886Q602 882 612.0 877.0Q622 872 633 869L684 846Q692 845 695.5 850.0Q699 855 702 858Z"/></svg>