<svg xmlns="http://www.w3.org/2000/svg" viewBox="0 0 1024.11 892"><path transform="translate(0,894) scale(1,-1)" d="M555 137Q555 130 558.0 124.0Q561 118 563 112Q564 109 565.0 102.0Q566 95 572 97Q575 98 574.5 114.5Q574 131 572 135Q569 140 564.5 138.5Q560 137 555 137ZM401 444V187Q402 185 403.5 185.0Q405 185 407 184Q413 184 424.0 184.5Q435 185 442 186Q455 188 469.0 192.5Q483 197 496 199Q503 206 499.0 211.5Q495 217 493 223Q484 243 476.5 263.5Q469 284 461 305Q448 338 434.0 370.5Q420 403 410 437L401 444ZM372 444Q368 444 366.5 436.5Q365 429 364 425Q345 371 321.5 317.5Q298 264 278 210Q277 207 277.5 204.0Q278 201 282 200Q304 195 327.0 189.0Q350 183 373 185Q375 185 375.5 186.0Q376 187 376 189Q378 198 376.5 211.5Q375 225 375 235Q375 268 375.0 300.5Q375 333 375 366Q375 384 376.5 402.5Q378 421 376 438Q376 440 375.0 442.5Q374 445 372 444ZM444 453Q441 459 436.0 454.5Q431 450 435 442Q456 394 477.0 345.0Q498 296 519 247L528 218Q529 215 531.5 214.5Q534 214 536 215Q546 222 556.0 227.0Q566 232 576 239Q580 242 591.5 250.0Q603 258 606 261Q609 263 609.0 268.5Q609 274 608 277Q608 278 601.5 285.5Q595 293 594 294Q566 318 540.5 344.5Q515 371 489 398Q479 408 471.0 416.5Q463 425 454 436ZM348 460Q340 458 335.5 451.5Q331 445 326 439L162 276Q161 270 165.0 267.0Q169 264 172 261Q189 248 207.0 237.0Q225 226 242 215Q248 213 250.5 219.0Q253 225 255 229Q273 271 290.0 315.0Q307 359 324 402Q327 408 339.0 432.5Q351 457 348 460ZM459 473Q457 472 458.5 469.0Q460 466 460 466Q466 460 474.0 453.5Q482 447 488 441Q509 420 530.5 398.0Q552 376 574 355Q588 341 602.0 326.5Q616 312 630 297Q639 289 647.5 302.0Q656 315 661 322Q666 329 675.5 341.0Q685 353 688 362Q693 378 684.0 379.0Q675 380 666 384Q650 390 634.0 397.5Q618 405 602 411Q575 423 537.0 436.5Q499 450 476 466ZM329 481 89 381Q86 379 87.5 373.0Q89 367 90 363Q95 352 103.0 341.5Q111 331 118 322Q121 318 127.5 307.5Q134 297 138 295Q146 293 148.0 296.5Q150 300 153 303Q191 339 227.5 377.0Q264 415 301 452Q304 454 318.0 466.0Q332 478 329 481ZM471 502Q471 501 471.0 499.5Q471 498 471 497Q472 494 485.5 490.0Q499 486 503 484Q549 466 594.0 446.5Q639 427 685 408Q691 414 697.5 413.0Q704 412 711 415L726 479Q726 483 723.0 485.0Q720 487 719 490Q718 493 718.5 497.0Q719 501 714 502H471ZM300 496 302 500Q302 504 285.5 502.5Q269 501 265 501Q217 500 168.5 500.0Q120 500 73 501Q68 501 62.5 502.0Q57 503 55 496Q51 482 55.5 468.5Q60 455 61 441Q66 433 67.0 418.5Q68 404 80 406L177 447L300 496ZM66 616Q64 615 63.0 612.0Q62 609 62 607Q58 592 55.5 573.5Q53 555 55 540Q56 536 54.5 533.5Q53 531 62 529Q114 530 167.0 530.5Q220 531 273 531Q279 531 285.0 529.5Q291 528 298 529Q304 529 319.0 529.0Q334 529 337 533Q337 533 301.0 542.5Q265 552 250 558Q230 566 210.0 573.5Q190 581 170 589Q161 594 131.5 607.5Q102 621 94 620Q91 620 88.5 618.5Q86 617 83 617Q80 617 75.0 618.5Q70 620 66 616ZM713 616Q708 621 700.5 617.5Q693 614 690 620Q688 623 688.0 626.5Q688 630 681 628L452 533Q452 527 471.5 528.5Q491 530 496 531Q546 531 598.5 531.5Q651 532 700 531Q704 530 708.0 529.0Q712 528 716 529Q719 530 718.5 534.5Q718 539 719 542Q720 545 723.0 545.0Q726 545 726 554Q726 563 722.5 580.5Q719 598 717 607Q716 608 715.0 611.5Q714 615 713 616ZM477 589Q470 582 462.5 576.0Q455 570 448 563L452 559L685 656Q689 658 689.0 666.5Q689 675 688 678Q688 680 677.5 697.0Q667 714 665 716Q658 725 656.0 723.0Q654 721 647 720Q638 719 624.0 720.5Q610 722 603 716Q572 684 541.0 651.5Q510 619 477 589ZM213 672Q207 678 200.0 686.5Q193 695 187 701Q185 703 178.5 710.5Q172 718 168 722Q164 725 154.0 720.5Q144 716 138 716Q131 716 128.5 721.5Q126 727 120 726L90 680Q95 669 92.0 662.0Q89 655 102 649Q117 642 134.5 636.0Q152 630 168 624Q203 609 242.5 590.5Q282 572 317 560Q320 559 330.5 556.5Q341 554 343 555Q341 562 335.0 566.5Q329 571 324 575Q306 589 262.5 627.5Q219 666 213 672ZM264 785Q261 786 252.0 785.5Q243 785 238 785Q234 785 235.5 798.5Q237 812 235 817Q233 824 226.0 817.5Q219 811 216 809Q206 802 189.0 792.0Q172 782 172 769Q173 757 180.0 748.0Q187 739 195 732Q228 698 262.0 665.5Q296 633 329 600Q330 598 338.0 592.5Q346 587 348 587Q350 588 347.5 593.5Q345 599 341 604Q332 615 324.5 636.5Q317 658 311 672Q309 677 306.5 684.5Q304 692 302 696Q301 699 298.0 706.0Q295 713 294 716Q290 727 279.5 745.0Q269 763 268 774Q267 776 268.0 780.0Q269 784 264 785ZM559 711Q569 721 580.0 730.0Q591 739 600 750L602 782Q594 788 586.0 794.5Q578 801 570 806Q566 809 558.0 814.0Q550 819 546 821Q533 826 538.0 809.5Q543 793 540 788Q536 783 529.5 785.0Q523 787 520 787Q512 785 509.5 775.0Q507 765 504 760Q491 727 477.5 694.5Q464 662 450 629Q448 625 438.0 605.5Q428 586 431 583Q433 583 434.5 583.5Q436 584 438 586Q445 591 454.5 603.0Q464 615 472 623Q493 645 515.5 667.0Q538 689 559 711ZM483 845Q479 848 463.5 849.5Q448 851 442 852Q436 853 429.5 856.0Q423 859 416 857Q411 856 414.5 837.5Q418 819 414 817Q411 815 406.5 814.5Q402 814 401 811L403 590Q406 592 407.5 594.0Q409 596 410 599Q417 613 422.5 632.0Q428 651 435 666Q447 695 459.5 724.5Q472 754 485 783Q484 793 483.5 803.5Q483 814 483 825Q483 829 484.5 835.0Q486 841 483 845ZM360 815Q356 825 359.5 836.5Q363 848 358 857Q355 859 348.5 856.5Q342 854 337 853Q331 852 310.5 849.0Q290 846 289 839Q290 826 290.5 812.5Q291 799 294 787Q295 784 297.0 781.5Q299 779 300 777Q315 737 332.0 697.5Q349 658 364 618Q365 615 366.5 605.5Q368 596 373 597Q375 599 375.5 600.0Q376 601 376 603Q377 610 376.5 618.5Q376 627 376 633Q375 673 374.0 712.5Q373 752 374 791Q374 797 375.5 802.5Q377 808 375 813L360 815ZM332 891Q360 894 388.0 894.0Q416 894 445 891L506 875Q574 851 628.5 806.0Q683 761 718 697Q720 693 722.5 685.0Q725 677 730 676Q734 676 738.0 676.5Q742 677 745 673Q746 672 746.0 653.0Q746 634 747 628Q749 611 754.0 593.5Q759 576 761 558Q761 554 760.0 550.5Q759 547 763 545Q766 544 770.0 544.0Q774 544 775 538Q775 533 774.0 530.5Q773 528 773 524Q773 516 773.0 508.5Q773 501 775 493Q774 486 767.0 485.5Q760 485 759 482Q759 468 756.5 454.5Q754 441 752 428Q751 425 749.0 422.0Q747 419 747 415Q744 401 745.0 386.0Q746 371 744 356Q740 352 735.5 353.0Q731 354 727 354Q720 354 719.5 350.5Q719 347 717 343Q706 323 693.0 305.0Q680 287 666 269L663 239Q655 234 647.5 236.5Q640 239 631 236Q624 233 608.0 220.0Q592 207 584 202Q568 192 558.5 188.0Q549 184 553 160Q557 158 560.5 159.0Q564 160 567 160Q593 165 619.0 177.0Q645 189 667 203Q704 237 738 275Q772 313 808.0 348.5Q844 384 884 415Q923 446 970 467Q975 469 981.5 472.5Q988 476 992 478Q999 480 1010.5 478.5Q1022 477 1024 468Q1025 460 1017.0 456.5Q1009 453 1009 445V63Q1003 48 993.0 51.0Q983 54 982 69Q983 113 982 157Q982 202 981.5 246.0Q981 290 981 334Q981 378 982 422Q982 428 983.5 434.0Q985 440 982 446Q979 448 967.5 441.5Q956 435 954 433Q949 428 950.5 419.0Q952 410 952 403Q953 362 953 320Q952 279 952.0 238.0Q952 197 952 155Q952 114 952 73Q953 56 940.5 51.0Q928 46 924 66V413Q920 416 906.5 404.5Q893 393 892 387V69Q893 61 887.0 54.5Q881 48 872 53Q863 58 864.5 75.0Q866 92 866 101Q866 147 865.0 194.0Q864 241 864 287Q864 307 865.0 326.5Q866 346 866 366L858 365Q853 357 844.5 351.5Q836 346 835 336L834 63Q828 49 818.0 51.0Q808 53 806 68Q808 122 806.5 176.0Q805 230 806 284Q806 288 808.0 299.5Q810 311 804 311Q799 309 797.0 304.5Q795 300 791 297Q785 289 780.5 286.0Q776 283 775 271Q774 223 777.0 171.5Q780 120 776 73Q775 56 765.0 51.0Q755 46 748 64Q747 109 748.5 154.0Q750 199 750 243Q750 249 747.5 250.5Q745 252 741 248Q737 244 727.0 230.5Q717 217 717 213Q714 178 717.0 141.0Q720 104 717 69Q716 63 713.5 57.0Q711 51 704 51Q688 50 689.5 71.0Q691 92 691 101Q690 112 689.5 123.0Q689 134 689 145Q689 150 690.5 169.0Q692 188 690 190Q689 190 687.0 190.0Q685 190 683 189Q682 188 671.0 179.0Q660 170 660 169L659 68Q657 52 645.5 51.0Q634 50 631 66Q628 86 630.5 109.5Q633 133 632 153L629 156Q625 157 622.5 154.5Q620 152 616 151Q612 149 607.5 148.5Q603 148 600 144Q598 138 599.5 133.0Q601 128 601 122Q601 113 601.5 91.0Q602 69 598 62Q596 57 592.0 56.0Q588 55 588 50Q588 48 591.5 40.0Q595 32 596 29Q597 28 598.0 27.0Q599 26 600 24Q602 19 604.0 13.0Q606 7 610 2H578Q581 8 578.0 13.0Q575 18 573 23Q562 53 550.0 85.5Q538 118 526 147Q520 159 515.0 156.5Q510 154 502 157Q499 158 498.5 161.0Q498 164 495 164Q476 158 457.5 154.0Q439 150 419 149Q411 146 415.0 135.0Q419 124 413 121Q411 120 390.0 119.5Q369 119 364 120Q355 121 359.0 132.0Q363 143 357 150Q338 151 318.5 154.5Q299 158 280 165L276 162L274 150L250 148Q244 130 236.5 112.5Q229 95 222 77Q218 66 214.0 54.5Q210 43 205 31Q203 25 199.0 17.0Q195 9 197 2H167Q167 8 170.0 11.5Q173 15 174 18Q186 43 195.0 69.0Q204 95 214 121Q216 125 221.0 134.5Q226 144 225 148Q225 149 223.5 149.5Q222 150 222 151Q218 161 220.5 170.5Q223 180 221 186Q219 190 209.0 195.0Q199 200 194 202Q186 208 170.0 221.0Q154 234 147 236Q139 239 123.0 237.0Q107 235 104 238Q101 241 103.0 257.0Q105 273 103 281Q101 286 93.0 295.0Q85 304 82 309Q78 315 69.5 331.0Q61 347 55 348Q50 348 42.5 346.0Q35 344 30 349V403Q30 404 32.5 406.0Q35 408 35 410Q35 413 31.5 419.0Q28 425 27 428Q25 436 23.0 447.0Q21 458 20 467Q18 478 18.0 484.0Q18 490 0 483V546Q4 544 11.0 544.0Q18 544 19 549Q20 551 18.5 554.0Q17 557 18 559Q18 563 18.5 567.0Q19 571 20 575Q24 601 31.5 624.5Q39 648 38 675Q40 677 44.5 676.0Q49 675 52 678Q55 681 57.0 687.5Q59 694 61 697Q66 706 72.0 716.0Q78 726 84 734Q90 743 102.0 756.0Q114 769 117 778Q120 784 119.5 785.0Q119 786 130 788Q172 829 223.5 854.0Q275 879 332 891Z"/></svg>