<svg xmlns="http://www.w3.org/2000/svg" viewBox="0 0 1023.25 886.167"><path transform="translate(-0.496183,891.042) scale(1,-1)" d="M142 159Q144 156 154.5 150.0Q165 144 168 143Q189 139 206.0 160.0Q223 181 210 203Q196 227 170.5 224.5Q145 222 135 196Q132 187 134.0 177.0Q136 167 143 159ZM42 390Q29 377 28.0 362.5Q27 348 39 334Q51 322 64.0 319.5Q77 317 91 328Q112 343 110.0 362.0Q108 381 89 395Q76 404 64.0 402.0Q52 400 42 390ZM879 476 596 513 589 506Q591 495 591.5 484.0Q592 473 591 462Q591 457 589.5 450.0Q588 443 591 439Q594 436 602.5 439.0Q611 442 615 442Q671 447 726.0 453.5Q781 460 836 467Q842 467 847.5 466.5Q853 466 859 467Q861 467 871.5 469.5Q882 472 879 476ZM561 514Q543 518 524.5 520.5Q506 523 487 526Q440 531 393.0 537.0Q346 543 299 547Q290 547 284.5 550.0Q279 553 270 545Q256 531 240.5 512.5Q225 494 211 478Q207 474 203.5 470.0Q200 466 196 461Q194 459 191.5 457.5Q189 456 187 453Q184 449 185.0 430.5Q186 412 186 405Q186 400 184.0 394.5Q182 389 189 387Q197 385 213.0 389.0Q229 393 238 394Q301 403 364.0 409.5Q427 416 489 423Q506 425 523.0 427.5Q540 430 556 432L560 434L561 514ZM504 792Q500 797 489.0 782.5Q478 768 476 766Q473 763 460.5 750.5Q448 738 450 735Q453 735 455.5 735.5Q458 736 460 734Q463 733 466.0 726.5Q469 720 473 724Q477 728 479.5 738.0Q482 748 485 753Q490 763 496.5 772.0Q503 781 504 793ZM561 800Q543 806 539.0 798.5Q535 791 529 778Q522 763 514.0 743.5Q506 724 498 710Q496 707 492.5 705.0Q489 703 491 697Q492 696 499.5 687.0Q507 678 509 677Q514 671 521.0 667.5Q528 664 519 654Q517 652 510.5 648.0Q504 644 501 644L480 670Q475 671 472.5 661.5Q470 652 464 650L444 657Q439 665 449.0 677.5Q459 690 458 694Q453 702 447.0 708.0Q441 714 438 724L304 580Q304 574 321.5 573.0Q339 572 345 571Q388 566 432.0 559.5Q476 553 520 549Q530 548 541.0 547.0Q552 546 561 547V800ZM459 788Q461 790 464.0 791.5Q467 793 467 796Q470 804 460.0 802.0Q450 800 446 800Q417 799 388.0 800.0Q359 801 330 799Q309 787 290.0 772.0Q271 757 251 743Q222 723 193.0 703.5Q164 684 134 664Q119 653 104.0 641.5Q89 630 73 620Q69 618 62.5 616.0Q56 614 58 607Q59 605 69.0 603.5Q79 602 82 602Q94 601 107.5 601.0Q121 601 133 600Q164 597 197.0 589.5Q230 582 261 583Q263 583 264.5 583.0Q266 583 268 584Q279 594 289.0 606.0Q299 618 310 630Q346 668 383.5 709.5Q421 751 459 788ZM561 401Q560 406 544.5 404.0Q529 402 524 402Q447 391 369.5 381.5Q292 372 215 362Q207 361 197.0 361.5Q187 362 184 351V257Q188 248 196.5 247.5Q205 247 212 243Q215 241 224.5 230.5Q234 220 235 216Q238 208 241.0 196.5Q244 185 243 176Q240 161 232.0 148.0Q224 135 211 126Q191 111 162.5 117.0Q134 123 119 143Q107 158 107.0 183.5Q107 209 118 225Q120 227 127.5 234.5Q135 242 136 243Q142 246 149.0 246.5Q156 247 158 253V353Q137 359 134.5 345.5Q132 332 126 320Q118 308 98.5 299.5Q79 291 65 292Q0 297 0.5 361.0Q1 425 65 429Q79 430 98.0 422.0Q117 414 125 401Q129 394 129.5 387.0Q130 380 143 381Q161 382 159.0 390.5Q157 399 157 410Q157 424 157.0 444.0Q157 464 166 474Q176 486 187.5 496.5Q199 507 209 518Q217 527 225.0 536.0Q233 545 241 553Q240 555 238.0 556.5Q236 558 234 558Q215 562 194.5 562.0Q174 562 154 564Q125 567 94.5 573.0Q64 579 34 583Q26 584 15.5 583.0Q5 582 3 594Q1 608 12.5 613.5Q24 619 33 626Q67 650 101 674Q135 699 169.0 723.0Q203 747 238 770Q272 794 307 817Q313 821 316.5 825.5Q320 830 329 831Q363 834 404.0 832.5Q445 831 480 831Q515 831 502.5 830.0Q490 829 493 829Q496 829 506.0 839.0Q516 849 519 852Q524 858 529.5 866.0Q535 874 540 879Q556 896 568.5 889.0Q581 882 568 858Q565 852 559.0 846.0Q553 840 555 832Q557 827 566.0 829.5Q575 832 580 830Q583 829 587.0 824.5Q591 820 591 816Q590 753 591.5 689.5Q593 626 591 563Q591 558 589.5 550.5Q588 543 593 540Q596 539 608.0 538.5Q620 538 624 537Q676 529 729.0 523.5Q782 518 834 512Q860 509 886.5 504.0Q913 499 939 496Q953 494 976.0 493.5Q999 493 1011 489Q1020 486 1023.0 477.0Q1026 468 1017 461Q1011 457 993.5 456.5Q976 456 967 455Q925 451 882 446Q839 441 796.5 435.5Q754 430 711 424Q668 418 626 412Q621 411 610.0 410.5Q599 410 595 409Q588 405 589.5 397.5Q591 390 591 384Q593 320 592.0 256.0Q591 192 590 128Q587 113 562.0 117.5Q537 122 533 116L534 9Q534 6 518.5 5.0Q503 4 502 11L504 112L501 118H459Q457 118 455.5 117.5Q454 117 452 118Q448 120 448.0 132.0Q448 144 451 147Q456 152 475.5 148.0Q495 144 503 148Q503 165 503.5 171.5Q504 178 526 175Q539 174 533.5 162.5Q528 151 536 148Q539 146 548.5 146.0Q558 146 561 150V401Z"/></svg>