<svg xmlns="http://www.w3.org/2000/svg" viewBox="0 0 1023.06 905.4"><path transform="translate(-0.9375,900.4) scale(1,-1)" d="M948 100Q937 109 930.0 110.0Q923 111 908 111Q858 112 807 112Q756 112 705.5 111.0Q655 110 604 109Q553 108 503 108Q455 108 407 109Q359 109 310.5 109.5Q262 110 214 111Q166 111 118 110Q114 110 103.5 109.0Q93 108 89 107Q83 105 74.5 96.0Q66 87 63 81Q61 76 60.0 60.5Q59 45 63 38Q66 33 78.0 24.5Q90 16 96 16L931 17Q956 28 964.0 54.5Q972 81 948 100ZM894 769 132 768Q129 766 134.0 755.0Q139 744 140 739Q148 709 153 673Q158 636 160.5 598.0Q163 560 164 523Q165 485 165 454Q165 420 165 380Q164 341 161.0 301.0Q158 261 153 222Q148 184 139 151Q137 145 134.0 140.0Q131 135 133 127L892 130Q890 144 885.0 158.0Q880 172 878 186Q865 257 863.0 332.0Q861 407 862 479Q863 540 866.0 611.0Q869 682 885 741Q887 748 890.5 754.5Q894 761 894 769ZM941 877Q938 879 934.5 880.5Q931 882 928 881L89 878Q72 868 65.0 854.5Q58 841 60 821Q62 809 73.0 799.5Q84 790 95 786L928 788Q936 787 947.0 797.5Q958 808 961 815Q964 822 965.0 835.0Q966 848 964 855Q962 858 953.5 866.5Q945 875 941 877ZM1024 832Q1024 832 1021.0 823.0Q1018 814 1009 811Q1002 810 995.5 811.5Q989 813 982 812Q978 800 962.5 784.5Q947 769 935 768Q922 766 917.5 768.5Q913 771 906 752Q892 712 886.0 642.5Q880 573 879 528Q877 457 878.5 381.5Q880 306 889 235Q891 217 895.5 185.5Q900 154 908 138Q913 126 922.5 129.0Q932 132 942 128Q943 128 955.0 120.0Q967 112 969 110Q975 105 978.5 97.0Q982 89 983 82Q992 78 1003.0 80.0Q1014 82 1020 73Q1021 71 1022.0 65.0Q1023 59 1023 59Q1020 42 1007.0 42.0Q994 42 982 43Q980 38 978.0 33.0Q976 28 973 23Q968 17 957.5 8.5Q947 0 939 -2Q929 -5 921.5 -3.5Q914 -2 905 -2Q803 -1 701 -2Q599 -2 497.0 -3.0Q395 -4 294 -5Q192 -5 90 -4Q81 -3 65.5 8.5Q50 20 46 28Q44 33 43.5 37.5Q43 42 40 45Q30 40 15.0 43.5Q0 47 1 59Q1 59 1.5 68.5Q2 78 12 79Q18 80 29.0 79.0Q40 78 44 81Q45 82 45.0 86.5Q45 91 47 94Q50 102 65.0 114.5Q80 127 88 129Q99 131 105.0 128.0Q111 125 117 138Q124 154 129.0 185.5Q134 217 136 235Q141 275 143 317Q146 359 147.0 401.5Q148 444 147 486Q146 528 144 568Q142 606 136.5 661.5Q131 717 119 752Q112 771 105.0 767.5Q98 764 84 769Q76 771 63.0 781.5Q50 792 46 800Q45 802 44.0 808.0Q43 814 40 815Q33 810 22.0 810.5Q11 811 6 817Q4 819 2.5 825.5Q1 832 1 832Q4 850 16.0 849.0Q28 848 41 850Q45 852 45.0 856.0Q45 860 46 863Q49 873 65.5 886.0Q82 899 94 900Q101 901 108.0 899.5Q115 898 122 898Q224 898 326 899Q429 900 531.5 900.0Q634 900 737 900Q840 900 943 899Q951 892 963.5 884.0Q976 876 980 866Q982 860 982.0 855.0Q982 850 990 849Q1001 847 1010.5 848.0Q1020 849 1024 832ZM527 689Q531 695 514.0 695.0Q497 695 495 695Q431 690 380 657Q329 624 299.5 575.0Q270 526 265 465Q260 405 287 346Q316 283 377.0 244.5Q438 206 507 203Q510 203 514.0 203.5Q518 204 521 206Q527 213 516.5 214.0Q506 215 504 216Q430 238 388 294Q345 350 336.0 416.5Q327 483 354 549Q380 615 444 657Q464 669 484.0 676.0Q504 683 527 689ZM682 644Q737 595 757 530Q777 465 765.5 401.5Q754 338 712 285Q670 231 601 207Q506 172 425 203Q343 234 296.0 299.5Q249 365 247 452Q244 538 307 615Q342 658 390 682Q437 706 488.0 710.0Q539 714 589 697Q640 681 682 644Z"/></svg>