<svg xmlns="http://www.w3.org/2000/svg" viewBox="0 0 595 1023"><path transform="translate(-214,960) scale(1,-1)" d="M493 369Q492 371 491.5 373.5Q491 376 489 377Q487 378 484.0 377.5Q481 377 478 378Q476 379 475.0 381.5Q474 384 472 385Q467 387 461.0 386.0Q455 385 451 387Q449 387 447.5 389.0Q446 391 444 392Q436 397 421.5 395.0Q407 393 397 392Q391 387 402.0 385.0Q413 383 416 383Q419 382 422.5 382.5Q426 383 430 383Q435 382 439.0 378.5Q443 375 448 373Q453 372 458.5 373.0Q464 374 467 372Q470 372 471.0 369.0Q472 366 475 365Q479 364 483.0 364.5Q487 365 489 363Q491 362 491.5 359.0Q492 356 494 355Q495 354 501.0 350.0Q507 346 508 345Q514 343 517.5 342.5Q521 342 525 334Q527 331 527.0 328.5Q527 326 528 323Q531 318 538.0 309.0Q545 300 547 295Q548 291 547.5 287.0Q547 283 548 279Q549 273 552.5 263.5Q556 254 554 248Q554 246 551.5 244.5Q549 243 549 242Q547 239 547.5 236.5Q548 234 547 231Q547 230 541.5 220.0Q536 210 535 209Q535 209 529.5 204.5Q524 200 524 200Q521 198 517.5 198.0Q514 198 511 197Q507 196 504.5 193.5Q502 191 498 190Q494 190 482.5 194.5Q471 199 475 206Q477 207 480.5 210.5Q484 214 486 215Q489 216 495.0 215.5Q501 215 502 217Q503 221 503.0 224.5Q503 228 504 231Q505 233 507.5 234.0Q510 235 511 238Q512 240 512.0 248.5Q512 257 511 259Q510 262 507.0 263.5Q504 265 503 267Q502 270 503.0 273.0Q504 276 502 280Q501 282 497.5 283.0Q494 284 493 286Q490 288 487.5 292.5Q485 297 482 299Q478 300 474.5 300.5Q471 301 467 303Q464 305 462.5 308.0Q461 311 459 312Q456 313 427.5 313.0Q399 313 395 312Q391 311 389.0 307.5Q387 304 384 303Q381 302 377.5 302.0Q374 302 372 300Q362 295 350.5 280.5Q339 266 330 258Q328 256 325.0 255.5Q322 255 321 252Q319 248 320.5 244.5Q322 241 322 239Q321 237 318.0 236.5Q315 236 313 234Q311 231 311.5 226.5Q312 222 310 219Q309 217 306.5 216.5Q304 216 303 213Q303 210 302.0 197.5Q301 185 301 182Q302 181 302.5 180.0Q303 179 304 178Q317 182 315.5 192.5Q314 203 317 211Q318 214 321.0 215.0Q324 216 325 217Q326 220 325.5 223.5Q325 227 326 230Q327 233 330.0 235.0Q333 237 334 239Q334 241 333.5 243.0Q333 245 333 247Q334 248 341.5 254.0Q349 260 351 262Q355 266 362.0 275.0Q369 284 373 287Q377 289 381.0 288.5Q385 288 388 289Q392 290 395.5 294.0Q399 298 402 298Q407 299 429.0 298.5Q451 298 454 297Q455 296 455.5 294.5Q456 293 457 292Q460 290 463.0 289.5Q466 289 468 287Q478 280 486.5 268.5Q495 257 490 244Q480 224 473.0 239.0Q466 254 455 257Q446 256 434.0 257.0Q422 258 414 253Q407 249 402.0 241.0Q397 233 391 228L378 204L376 155Q377 152 380.0 150.5Q383 149 384 147Q386 145 386.0 140.5Q386 136 388 132Q393 119 405.5 106.0Q418 93 429 84Q437 78 440.5 77.0Q444 76 451 72Q454 71 455.5 68.0Q457 65 458 64Q461 63 465.5 64.0Q470 65 474 63Q477 62 479.5 59.0Q482 56 485 56Q490 55 508.0 55.0Q526 55 531 56Q537 56 540.5 59.0Q544 62 536 65Q525 70 511.0 67.5Q497 65 487 68Q485 68 484.0 72.0Q483 76 480 77Q475 79 468.5 77.5Q462 76 459 77Q456 79 452.0 85.0Q448 91 444 94Q440 95 436.5 95.0Q433 95 430 97Q429 98 424.0 104.0Q419 110 416 112Q415 114 413.0 115.0Q411 116 411 116Q409 118 410.0 122.0Q411 126 409 130Q407 134 401.0 135.5Q395 137 400 148L391 153L392 204Q394 208 399.5 211.0Q405 214 407 217Q410 221 410.0 224.5Q410 228 412 231Q414 233 418.0 233.0Q422 233 423 235Q425 237 426.0 241.0Q427 245 433 243Q440 236 439.0 230.0Q438 224 433 217Q432 215 429.5 214.5Q427 214 426 211Q425 207 425.0 195.0Q425 183 426 179Q426 176 436.5 161.5Q447 147 450 144Q451 143 463.5 136.0Q476 129 477 129Q484 128 492.5 128.0Q501 128 507 128Q510 128 512.0 126.0Q514 124 516 124Q518 124 521.5 126.5Q525 129 528 130Q534 130 537.5 128.5Q541 127 548 130Q549 130 557.5 135.0Q566 140 566 140Q567 142 567.5 144.0Q568 146 570 148Q572 149 575.5 149.0Q579 149 582 151Q585 153 595.0 162.0Q605 171 606 174Q606 176 606.0 179.5Q606 183 607 184Q607 186 615.0 191.5Q623 197 623 198Q626 202 625.5 207.0Q625 212 625 216Q626 220 629.5 222.5Q633 225 633 227Q634 230 633.5 233.5Q633 237 634 240Q635 244 638.0 248.0Q641 252 642 257Q643 266 641.5 280.5Q640 295 629 298Q629 295 630.5 293.0Q632 291 632 287Q632 283 631.0 279.0Q630 275 630 272Q630 269 631.5 266.0Q633 263 632 260Q631 256 626.5 255.0Q622 254 621 251Q619 247 620.0 241.0Q621 235 620 231Q619 228 615.5 225.5Q612 223 611 218Q611 214 612.5 210.0Q614 206 612 202Q611 199 602.5 194.0Q594 189 593 186Q592 183 592.5 178.0Q593 173 591 172Q588 170 584.5 171.0Q581 172 579 170Q576 169 570.5 162.0Q565 155 562 154Q560 152 556.5 151.5Q553 151 550 150Q548 148 547.0 145.5Q546 143 541 142Q537 141 509.0 141.0Q481 141 479 143L447 173Q447 178 444.5 189.0Q442 200 446 205Q458 212 456.0 202.0Q454 192 457 188Q459 186 462.5 186.5Q466 187 468 186Q470 185 471.0 182.5Q472 180 474 179Q477 178 497.0 177.5Q517 177 518 178Q519 179 519.0 181.5Q519 184 521 185Q524 187 528.5 186.5Q533 186 537 188Q537 188 542.0 192.0Q547 196 547 197Q548 200 547.5 204.5Q547 209 549 213Q550 215 554.0 216.0Q558 217 559 220Q562 228 558.5 234.5Q555 241 568 245Q571 248 569.5 252.5Q568 257 568 261Q568 267 569.0 271.5Q570 276 566 281Q565 283 562.5 283.5Q560 284 559 287Q557 291 559.0 296.0Q561 301 559 306Q558 308 555.5 308.5Q553 309 551 312Q548 315 548.0 320.0Q548 325 547 327Q547 328 545.0 328.5Q543 329 542 330Q538 336 526.0 349.0Q514 362 509 365Q505 367 500.0 367.0Q495 367 493 369ZM319 426Q327 424 330.5 434.0Q334 444 337 450Q339 499 340 550Q340 600 340.0 651.0Q340 702 339 753Q339 803 339 854Q339 865 346.5 876.5Q354 888 364 893Q366 895 377.0 898.5Q388 902 390 902Q396 902 407.5 897.0Q419 892 424 888Q431 882 435.5 871.0Q440 860 441 850Q443 805 442 758Q441 712 440.0 665.5Q439 619 440 573Q440 527 444 481Q444 477 442.5 470.5Q441 464 451 464Q461 463 459.5 469.5Q458 476 458 480Q458 483 460.0 485.5Q462 488 462 492Q465 545 464 599Q463 653 462.0 707.0Q461 761 461 815Q460 869 464 922Q467 926 468.5 930.5Q470 935 473 939Q478 946 491.0 953.0Q504 960 513 960Q521 960 535.5 951.5Q550 943 554 936Q557 932 559.0 926.0Q561 920 563 916V473Q565 466 564.5 458.0Q564 450 572 447Q577 446 579.5 446.5Q582 447 582 453Q584 502 584 553Q585 603 584.5 653.5Q584 704 584 755Q583 805 584 855Q587 869 594.0 879.5Q601 890 614 896Q616 897 625.0 900.0Q634 903 636 902Q637 902 646.0 899.0Q655 896 657 896Q669 890 676.5 877.0Q684 864 686 850Q684 780 685 710Q685 641 686.0 571.0Q687 501 687 431Q687 361 686 291Q686 288 684.5 271.0Q683 254 691 264Q692 265 697.0 274.0Q702 283 703 284Q705 299 704.0 327.0Q703 355 703 372Q703 391 703.0 409.5Q703 428 708 447Q712 462 724.0 472.5Q736 483 750 486Q762 488 777.5 479.5Q793 471 799 461Q801 458 805.0 445.5Q809 433 809 430V388Q809 388 808.5 321.0Q808 254 808 248Q808 205 805.5 172.0Q803 139 791 97Q784 75 775.0 61.0Q766 47 749 31Q706 -10 648.0 -36.5Q590 -63 530 -63Q470 -63 436.0 -63.0Q402 -63 354 -42Q330 -32 296.0 -3.0Q262 26 248 48Q231 77 224.0 111.0Q217 145 215 178V245Q219 252 218.0 257.0Q217 262 217 268Q217 322 216 377Q215 432 214.5 487.0Q214 542 214 596Q215 651 217 704Q218 722 223.0 740.5Q228 759 247 767Q259 772 268.0 772.5Q277 773 289 767Q298 763 308.5 751.5Q319 740 319 730V426Z"/></svg>