<svg xmlns="http://www.w3.org/2000/svg" viewBox="0 0 16.781 19.355" width="16.781" height="19.355"><g transform="translate(-168.353,604.629) scale(1,-1)"><path d="M181.442 586.584C181.442 586.248 181.554 585.911 181.554 585.574 181.734 585.574 181.582 585.596 181.588 585.607 181.597 585.626 181.58 585.645 181.599 585.664 181.599 585.963 181.734 586.218 181.823 586.517 182.005 587.243 182.362 587.97 182.362 588.696 182.41 588.888 182.364 589.132 182.475 589.325 182.629 589.54 182.61 589.784 182.61 589.999 182.7 591.084 182.183 592.17 182.183 593.255 182.151 593.667 182.224 594.079 182.16 594.491 182.15 594.523 182.113 594.697 182.093 594.738 182.054 595.008 182.337 595.277 182.34 595.546 182.35 596.571 181.862 597.616 182.205 598.646 182.295 598.856 182.25 599.11 182.25 599.32V600.488C182.25 601.514 182.21 602.539 182.048 603.565H181.936C181.68 603.565 181.713 603.594 181.666 603.61L181.105 603.947C181.002 603.992 180.97 604.039 180.7 604.082 180.645 604.09 180.33 604.089 180.251 604.082 180 604.082 180.278 604.037 180.027 604.037 179.758 604.037 179.935 604.082 179.667 604.082 179.61 604.093 179.41 604.059 179.218 604.059 178.856 604.029 178.498 604.12 178.117 604.149 177.848 604.203 177.687 604.194 177.196 604.239 175.751 604.329 175.94 604.149 175.13 604.149 174.968 604.122 174.913 604.126 174.591 604.126 174.048 604.066 173.963 603.919 173.917 603.879 173.833 603.837 173.586 603.767 174.344 603.767 174.463 603.737 174.541 603.707 174.692 603.677 174.774 603.661 174.774 603.632 175.04 603.632 175.67 603.569 175.734 603.507 175.871 603.43 176.12 603.319 176.333 603.246 176.657 603.138 176.847 603.138 176.806 603.116 176.837 603.104 176.926 603.071 176.958 603.037 177.017 603.003L177.286 602.846C177.355 602.815 177.747 602.803 177.758 602.835 177.762 602.846 177.758 602.857 177.758 602.869 177.896 602.869 177.823 602.846 177.96 602.846 178.2 602.816 178.484 602.846 178.724 602.846 178.845 602.833 179.355 602.86 179.465 602.846 179.739 602.778 181.127 602.903 181.127 602.835V599.926C181.127 599.717 181.187 599.44 181.127 599.23 181.112 599.245 181.042 599.29 181.037 599.275 180.986 599.11 180.992 598.945 180.992 598.781V598.219C180.992 598.129 180.985 598.032 180.97 597.927 180.923 597.741 180.916 597.421 180.835 597.231 180.711 596.735 180.825 596.247 180.925 595.749 181.157 595.284 181.279 594.82 181.194 594.356 181.135 593.967 181.262 593.577 181.262 593.188 181.702 590.987 180.891 588.785 181.442 586.584ZM171.604 587.124C171.607 587.134 171.638 587.326 171.649 587.348 171.713 587.865 171.806 588.382 171.806 588.898V589.1C171.876 589.452 172.03 589.804 172.03 590.156V591.683C172.03 592.432 172.29 593.181 172.165 593.929 172.105 594.199 172.12 594.536 172.21 594.805 172.362 596.018 172.673 597.231 172.188 598.444 172.158 598.624 172.165 598.803 172.165 598.983 172.225 599.432 172.292 599.881 172.322 600.331 172.407 601.349 172.481 602.367 172.255 603.385 172.255 603.617 172.191 603.85 172.075 604.082 172.075 603.574 171.779 603.063 171.626 602.554 171.56 602.29 171.491 602.079 171.491 601.813 171.461 601.693 171.446 601.573 171.446 601.454 171.319 600.945 171.177 600.435 171.177 599.926 171.147 599.747 171.199 599.589 171.199 599.41 171.229 599.29 171.184 599.17 171.154 599.05 171.154 598.93 171.139 598.833 171.11 598.713 171.007 597.538 170.879 596.362 170.952 595.187 170.952 594.446 171.087 593.705 171.087 592.963V592.076C171.087 591.953 171.042 591.829 171.042 591.706V590.335C171.042 590.021 170.997 589.707 170.997 589.392V587.438C170.997 587.303 171.005 587.176 171.02 587.056 171.136 586.592 171.309 586.128 171.402 585.664 171.372 586.172 171.509 586.616 171.604 587.124Z" fill="#231f20"/><path stroke-width=".1" stroke-linecap="butt" stroke-linejoin="round" fill="none" stroke="#231f20" d="M181.442 586.584C181.442 586.248 181.554 585.911 181.554 585.574 181.734 585.574 181.582 585.596 181.588 585.607 181.597 585.626 181.58 585.645 181.599 585.664 181.599 585.963 181.734 586.218 181.823 586.517 182.005 587.243 182.362 587.97 182.362 588.696 182.41 588.888 182.364 589.132 182.475 589.325 182.629 589.54 182.61 589.784 182.61 589.999 182.7 591.084 182.183 592.17 182.183 593.255 182.151 593.667 182.224 594.079 182.16 594.491 182.15 594.523 182.113 594.697 182.093 594.738 182.054 595.008 182.337 595.277 182.34 595.546 182.35 596.571 181.862 597.616 182.205 598.646 182.295 598.856 182.25 599.11 182.25 599.32V600.488C182.25 601.514 182.21 602.539 182.048 603.565H181.936C181.68 603.565 181.713 603.594 181.666 603.61L181.105 603.947C181.002 603.992 180.97 604.039 180.7 604.082 180.645 604.09 180.33 604.089 180.251 604.082 180 604.082 180.278 604.037 180.027 604.037 179.758 604.037 179.935 604.082 179.667 604.082 179.61 604.093 179.41 604.059 179.218 604.059 178.856 604.029 178.498 604.12 178.117 604.149 177.848 604.203 177.687 604.194 177.196 604.239 175.751 604.329 175.94 604.149 175.13 604.149 174.968 604.122 174.913 604.126 174.591 604.126 174.048 604.066 173.963 603.919 173.917 603.879 173.833 603.837 173.586 603.767 174.344 603.767 174.463 603.737 174.541 603.707 174.692 603.677 174.774 603.661 174.774 603.632 175.04 603.632 175.67 603.569 175.734 603.507 175.871 603.43 176.12 603.319 176.333 603.246 176.657 603.138 176.847 603.138 176.806 603.116 176.837 603.104 176.926 603.071 176.958 603.037 177.017 603.003L177.286 602.846C177.355 602.815 177.747 602.803 177.758 602.835 177.762 602.846 177.758 602.857 177.758 602.869 177.896 602.869 177.823 602.846 177.96 602.846 178.2 602.816 178.484 602.846 178.724 602.846 178.845 602.833 179.355 602.86 179.465 602.846 179.739 602.778 181.127 602.903 181.127 602.835V599.926C181.127 599.717 181.187 599.44 181.127 599.23 181.112 599.245 181.042 599.29 181.037 599.275 180.986 599.11 180.992 598.945 180.992 598.781V598.219C180.992 598.129 180.985 598.032 180.97 597.927 180.923 597.741 180.916 597.421 180.835 597.231 180.711 596.735 180.825 596.247 180.925 595.749 181.157 595.284 181.279 594.82 181.194 594.356 181.135 593.967 181.262 593.577 181.262 593.188 181.702 590.987 180.891 588.785 181.442 586.584ZM171.604 587.124C171.607 587.134 171.638 587.326 171.649 587.348 171.713 587.865 171.806 588.382 171.806 588.898V589.1C171.876 589.452 172.03 589.804 172.03 590.156V591.683C172.03 592.432 172.29 593.181 172.165 593.929 172.105 594.199 172.12 594.536 172.21 594.805 172.362 596.018 172.673 597.231 172.188 598.444 172.158 598.624 172.165 598.803 172.165 598.983 172.225 599.432 172.292 599.881 172.322 600.331 172.407 601.349 172.481 602.367 172.255 603.385 172.255 603.617 172.191 603.85 172.075 604.082 172.075 603.574 171.779 603.063 171.626 602.554 171.56 602.29 171.491 602.079 171.491 601.813 171.461 601.693 171.446 601.573 171.446 601.454 171.319 600.945 171.177 600.435 171.177 599.926 171.147 599.747 171.199 599.589 171.199 599.41 171.229 599.29 171.184 599.17 171.154 599.05 171.154 598.93 171.139 598.833 171.11 598.713 171.007 597.538 170.879 596.362 170.952 595.187 170.952 594.446 171.087 593.705 171.087 592.963V592.076C171.087 591.953 171.042 591.829 171.042 591.706V590.335C171.042 590.021 170.997 589.707 170.997 589.392V587.438C170.997 587.303 171.005 587.176 171.02 587.056 171.136 586.592 171.309 586.128 171.402 585.664 171.372 586.172 171.509 586.616 171.604 587.124Z"/><path d="M170.797 595.274C170.797 595.274 172.893 594.698 173.108 594.663 173.608 594.584 174.094 594.445 174.592 594.366 174.759 594.339 175.434 594.232 175.615 594.203 176.062 594.132 176.521 594.032 176.965 593.942 177.062 593.927 178.176 593.75 178.301 593.73 178.621 593.679 178.923 593.641 179.245 593.611 179.384 593.589 182.637 593.315 182.749 593.297 183.195 593.226 184.436 593.228 184.648 592.871 184.722 592.798 184.559 592.056 184.543 591.952 184.663 591.701 184.556 591.571 184.572 591.569 184.57 591.559 184.567 591.539 184.567 591.539 184.526 591.279 182.386 591.762 182.157 591.798 181.83 591.85 180.692 592.031 180.456 592.068 178.811 592.33 177.235 592.462 175.607 592.808 174.069 593.264 172.369 593.696 170.755 593.795 170.151 593.891 169.297 593.774 168.734 594.008 168.735 594.018 168.741 594.054 168.741 594.054 169.098 594.427 168.653 595.085 169.011 595.46 169.087 595.573 170.304 595.131 170.326 595.271Z" fill="#231f20"/><path d="M182.259 591.111C182.259 591.111 180.352 590.875 180.159 590.875 179.713 590.876 179.27 590.575 178.825 590.576 178.676 590.577 178.073 590.578 177.911 590.578 177.511 590.579 177.097 590.553 176.698 590.534 176.611 590.535 175.616 590.536 175.504 590.537 175.217 590.537 174.949 590.547 174.664 590.569 174.54 590.569 171.667 591.054 171.568 591.054 171.169 591.055 170.088 591.254 169.854 590.935 169.779 590.874 169.816 590.116 169.816 590.011 169.676 589.782 169.751 589.637 169.737 589.637 169.737 589.627 169.737 589.607 169.737 589.607 169.736 589.344 171.668 589.481 171.873 589.481 172.165 589.48 173.182 589.238 173.393 589.238 174.863 589.235 176.255 589.356 177.722 589.439 179.126 589.645 180.668 589.803 182.088 589.645 182.628 589.644 183.355 589.393 183.879 589.535 183.879 589.545 183.879 589.58 183.879 589.58 183.62 590.006 184.101 590.584 183.841 591.012 183.791 591.135 182.669 590.892 182.669 591.034Z" fill="#231f20"/><path d="M171.477 597.138C171.477 597.138 173.419 597.479 173.616 597.489 174.074 597.513 174.525 597.597 174.981 597.621 175.134 597.629 175.752 597.661 175.918 597.669 176.328 597.691 176.751 597.739 177.159 597.779 177.248 597.784 178.268 597.837 178.383 597.843 178.677 597.858 178.952 597.863 179.245 597.857 179.373 597.863 182.33 597.776 182.432 597.781 182.841 597.803 183.96 597.663 184.183 597.994 184.257 598.06 184.178 598.814 184.172 598.92 184.304 599.156 184.219 599.296 184.234 599.297 184.233 599.307 184.232 599.328 184.232 599.328 184.218 599.59 182.245 599.347 182.036 599.336 181.736 599.321 180.694 599.267 180.477 599.256 178.97 599.178 177.537 599.22 176.038 599.057 174.61 598.773 173.037 598.532 171.573 598.611 171.02 598.583 170.261 598.794 169.731 598.623 169.732 598.613 169.734 598.577 169.734 598.577 170.022 598.167 169.56 597.563 169.85 597.15 169.908 597.03 171.045 597.334 171.052 597.193Z" fill="#231f20"/><path d="M183.166 596.334C183.166 596.334 180.996 597.137 180.791 597.244 180.315 597.494 179.807 597.675 179.333 597.923 179.174 598.006 178.531 598.343 178.358 598.433 177.932 598.657 177.475 598.859 177.039 599.061 176.946 599.109 175.885 599.665 175.765 599.727 175.46 599.887 175.179 600.047 174.887 600.229 174.754 600.299 171.768 601.725 171.662 601.78 171.237 602.003 170.163 602.85 169.731 602.633 169.617 602.608 169.318 602.173 169.258 602.058 168.978 601.887 168.976 601.687 168.961 601.695 168.956 601.684 168.944 601.662 168.944 601.662 168.794 601.376 170.935 600.45 171.153 600.336 171.464 600.173 172.549 599.605 172.774 599.487 174.342 598.666 175.761 597.762 177.374 597.037 178.99 596.481 180.725 595.794 182.152 594.832 182.728 594.53 183.361 593.852 184.001 593.715 184.007 593.727 184.027 593.765 184.027 593.765 183.993 594.373 184.834 594.735 184.799 595.346 184.816 595.508 183.48 595.867 183.56 596.021Z" fill="#231f20"/></g></svg>