<?xml version="1.0" standalone="no"?>
<!DOCTYPE svg PUBLIC "-//W3C//DTD SVG 20010904//EN"
 "http://www.w3.org/TR/2001/REC-SVG-20010904/DTD/svg10.dtd">
<svg version="1.0" xmlns="http://www.w3.org/2000/svg"
 width="124.000000pt" height="124.000000pt" viewBox="0 0 124.000000 124.000000"
 preserveAspectRatio="xMidYMid meet">
<metadata>
Created by potrace 1.14, written by Peter Selinger 2001-2017
</metadata>
<g transform="translate(0.000000,124.000000) scale(0.100000,-0.100000)"
fill="#000000" stroke="none">
<path d="M458 1235 c-5 -9 -66 -228 -82 -299 -5 -19 -3 -32 6 -37 17 -11 48
-11 48 0 0 5 7 25 15 45 l16 37 36 -28 c28 -21 35 -24 30 -10 -9 23 -2 22 39
-9 20 -16 34 -21 34 -14 0 7 14 2 33 -13 57 -46 194 -137 206 -137 29 0 3 35
-81 112 -176 158 -268 268 -288 343 -3 11 -9 15 -12 10z"/>
<path d="M10 995 c0 -2 11 -30 25 -61 25 -57 67 -115 127 -174 33 -34 131
-110 140 -110 3 0 8 11 10 25 4 21 -6 35 -66 86 -63 55 -67 61 -39 55 19 -4
34 -3 38 3 3 6 18 9 33 5 l27 -5 -25 16 c-24 15 -24 16 -2 10 12 -3 30 -7 40
-10 38 -11 93 -15 247 -21 l160 -6 -20 20 c-15 16 -37 22 -95 27 -98 8 -180
17 -265 31 -62 10 -238 65 -285 89 -28 14 -50 23 -50 20z"/>
<path d="M1218 955 c-3 -3 -38 -15 -79 -26 -41 -11 -87 -26 -104 -34 -16 -7
-58 -17 -92 -21 -35 -3 -60 -10 -57 -15 3 -5 -4 -9 -15 -9 -23 0 -29 -15 -8
-22 6 -2 27 -4 45 -3 17 1 32 -2 32 -7 0 -5 -30 -37 -66 -71 -203 -189 -244
-237 -203 -237 5 0 38 24 72 52 34 29 125 98 201 153 119 86 303 244 285 245
-3 0 -8 -2 -11 -5z"/>
<path d="M347 793 c-3 -5 -8 -30 -11 -58 -4 -27 -9 -61 -11 -75 -16 -97 -24
-202 -22 -288 1 -55 -1 -98 -5 -95 -5 2 -8 14 -9 26 0 12 -3 16 -6 9 -14 -36
80 -302 108 -302 6 0 8 8 6 18 -3 9 -8 31 -11 47 -6 28 -5 29 9 11 19 -24 22
-21 27 30 9 72 40 141 104 228 l63 85 -41 32 c-39 32 -41 32 -55 13 -7 -10
-22 -28 -31 -39 -9 -11 -27 -33 -40 -49 -12 -16 -22 -27 -23 -25 0 2 -2 49 -5
104 -3 55 -6 122 -8 150 -3 38 -2 45 6 29 13 -29 54 -50 111 -58 56 -9 64 9
17 36 -25 14 -30 24 -30 53 0 20 7 47 16 60 15 23 15 25 -1 25 -34 0 -88 -34
-102 -64 -13 -29 -14 -28 -8 37 5 66 5 67 -19 67 -14 0 -27 -3 -29 -7z"/>
<path d="M588 770 c2 -16 1 -42 -3 -57 l-8 -28 -12 29 c-12 29 -13 29 -24 8
-19 -35 -13 -71 16 -98 43 -40 125 -53 104 -16 -5 9 -5 28 0 46 15 52 11 67
-31 107 -22 22 -41 39 -43 39 -2 0 -2 -13 1 -30z"/>
<path d="M724 779 c-3 -5 -16 -9 -30 -9 -13 0 -24 -4 -24 -10 0 -5 6 -10 13
-10 8 0 22 -9 31 -19 20 -22 16 -47 -14 -81 -26 -30 -19 -36 17 -16 76 41 110
99 75 129 -22 18 -60 28 -68 16z"/>
<path d="M911 659 l-24 -20 41 -94 c22 -52 37 -95 34 -95 -4 0 -23 5 -42 10
-19 6 -62 13 -95 15 -135 10 -166 18 -294 71 -115 48 -121 50 -121 31 0 -24
183 -117 394 -201 161 -64 411 -144 421 -134 16 15 -197 349 -262 410 l-28 27
-24 -20z"/>
</g>
</svg>
