<svg xmlns="http://www.w3.org/2000/svg" viewBox="0 0 1023.77 824.575"><path transform="translate(0,860.421) scale(1,-1)" d="M902 452Q906 457 903.0 459.5Q900 462 897 466Q875 503 853 541Q831 579 809.5 617.0Q788 655 766 693Q745 731 722 769Q720 773 718.0 778.5Q716 784 709 784Q641 745 573 705Q505 666 437.0 627.0Q369 588 301 548Q233 509 165 469Q155 463 143.5 457.5Q132 452 122 446Q120 444 115.5 440.5Q111 437 111 435L300 109L306 106L902 451ZM924 764Q931 748 921.5 743.0Q912 738 920 723Q923 716 928.0 711.5Q933 707 941 707Q944 707 947.5 709.0Q951 711 955 707Q965 697 954.0 688.5Q943 680 954 663Q958 656 963.0 654.0Q968 652 976 652Q980 652 983.0 654.0Q986 656 989 650Q993 640 987.0 636.0Q981 632 981 624Q980 614 987.5 605.5Q995 597 1004 596Q1007 596 1012.0 599.0Q1017 602 1021 593Q1027 583 1020.0 581.0Q1013 579 1008 574Q984 556 975.0 521.5Q966 487 976 459Q978 454 981.5 450.0Q985 446 980 440Q945 420 910 400Q875 380 840.5 360.0Q806 340 771 319Q736 299 701 279Q651 250 601 221Q551 193 500.5 164.0Q450 135 400 106Q350 78 300 49Q296 46 289.5 40.5Q283 35 279 36Q274 36 272.5 41.0Q271 46 268 50Q249 75 213.5 82.5Q178 90 149 78Q145 76 141.0 73.0Q137 70 132 73Q122 81 128.0 87.0Q134 93 136 100Q139 109 132.5 119.5Q126 130 117 130Q111 130 107.0 128.5Q103 127 97 132Q90 139 97.5 145.0Q105 151 106 160Q106 166 100.5 174.5Q95 183 89 185Q84 186 76.0 184.0Q68 182 65 187Q59 197 68.5 204.0Q78 211 72 224Q71 226 66.5 232.0Q62 238 59 239Q53 241 44.0 239.0Q35 237 32 244Q28 253 35.5 258.0Q43 263 41 276Q40 280 34.0 287.0Q28 294 24 296Q18 297 9.5 293.5Q1 290 0 305V306Q0 312 5.0 314.0Q10 316 14 319Q39 342 48.0 375.0Q57 408 44 439Q42 444 38.5 447.0Q35 450 40 458L739 860Q745 862 748.0 854.5Q751 847 755 842Q776 819 808.5 811.0Q841 803 870 814Q874 815 879.0 818.5Q884 822 886 822Q888 820 891.5 817.0Q895 814 895 811Q896 805 890.0 799.0Q884 793 886 783Q886 781 887.5 777.5Q889 774 891 772Q899 760 910.5 763.5Q922 767 924 764ZM342 416Q331 405 317.5 387.0Q304 369 301 354Q299 346 301.5 335.5Q304 325 312 321Q313 320 322.0 316.5Q331 313 331 313Q359 311 394 319Q428 328 462.5 342.0Q497 356 529 374Q561 391 585 407Q613 426 658.5 465.5Q704 505 713 538Q716 549 714.5 558.5Q713 568 702 575Q693 582 677.0 582.5Q661 583 650 582Q631 581 606.0 573.5Q581 566 563 560Q506 538 445.0 499.5Q384 461 342 416ZM710 764Q710 764 711.5 759.5Q713 755 714 754Q752 686 791.0 619.0Q830 552 868 485Q871 480 878.0 471.0Q885 462 881 456Q872 452 863.5 447.5Q855 443 846 438Q780 400 713 361Q647 323 580.5 284.5Q514 246 447 207Q381 168 315 129H307L132 433L702 763Q703 764 705.5 764.5Q708 765 710 764Z"/></svg>