<svg xmlns="http://www.w3.org/2000/svg" viewBox="0 0 1023.8 726.25"><path transform="translate(0,811.25) scale(1,-1)" d="M165 283Q163 282 162.5 280.5Q162 279 162 277Q160 262 160.5 241.0Q161 220 161 205Q161 186 160.5 160.0Q160 134 162 116Q162 114 162.5 112.5Q163 111 165 110H196L200 115V280L197 283H165ZM44 283 42 280V115L76 110L79 113V280L77 283H44ZM307 284Q303 284 297.0 283.0Q291 282 286 283L282 278L283 113Q285 110 301.0 110.0Q317 110 319 113V199Q319 217 321.0 236.0Q323 255 321 273Q320 276 319.5 278.0Q319 280 317 282Q315 283 312.5 283.5Q310 284 307 284ZM259 112V280Q256 283 247.5 283.5Q239 284 233 284Q230 284 227.0 283.5Q224 283 222 280V115Q223 109 241.0 110.0Q259 111 259 112ZM127 284Q122 284 116.5 283.0Q111 282 106 283L102 278L103 113L136 110L139 113L141 210Q139 225 141.0 244.0Q143 263 141 277Q140 282 135.5 283.0Q131 284 127 284ZM345 110H388Q390 110 391.5 113.0Q393 116 393 118Q393 123 391.5 133.0Q390 143 389 149Q385 183 380.0 217.0Q375 251 370 285L346 282L342 277V116Q342 116 343.5 113.0Q345 110 345 110ZM481 118 412 305Q407 309 399.5 304.0Q392 299 391 294L417 112L474 109L480 112L481 118ZM441 324H434Q433 315 437.5 307.0Q442 299 444 291Q457 257 469.0 223.5Q481 190 493 156Q496 150 499.0 136.0Q502 122 512 123Q517 124 535.0 136.0Q553 148 554 153Q555 155 555.0 157.0Q555 159 554 161Q553 165 543.0 177.0Q533 189 530 194Q515 216 500.0 238.0Q485 260 469 281Q462 292 455.5 303.0Q449 314 441 324ZM664 305Q668 313 674.5 317.0Q681 321 676 331Q669 344 653.0 343.0Q637 342 625 341Q625 339 625.5 337.5Q626 336 627 334Q628 333 640.5 320.0Q653 307 655 306Q657 305 659.5 304.5Q662 304 664 305ZM565 271Q552 284 539.5 296.0Q527 308 515 321Q509 327 492.0 346.0Q475 365 469 365L465 363Q463 358 459.0 353.0Q455 348 457 343Q460 337 467.0 329.0Q474 321 478 315Q495 290 512.5 265.0Q530 240 547 215Q550 211 559.0 196.5Q568 182 569 181Q576 177 583.0 190.0Q590 203 594 207Q597 212 602.0 216.0Q607 220 606 228Q606 232 587.5 249.0Q569 266 565 271ZM667 418Q664 413 660.0 405.5Q656 398 658 392Q658 391 668.0 379.0Q678 367 680 366Q682 364 684.0 363.5Q686 363 689 364Q691 365 691.5 366.5Q692 368 692 370Q692 374 684.0 391.5Q676 409 673 413Q672 414 670.5 416.0Q669 418 667 418ZM527 395Q522 401 517.5 406.5Q513 412 509 418L504 420L484 393V387Q484 387 505 366Q526 345 551.0 319.5Q576 294 597 273Q619 252 619 252H625Q626 253 633.5 265.0Q641 277 642 278Q643 284 639.0 286.5Q635 289 632 293Q607 321 579.0 345.0Q551 369 527 395ZM594 425Q593 425 583.0 413.0Q573 401 572 400Q571 398 571.0 397.0Q571 396 571 394Q571 391 584.5 378.0Q598 365 601 364Q609 363 616.5 374.5Q624 386 623 393Q622 396 611.0 410.0Q600 424 599 425Q597 425 596.0 425.0Q595 425 594 425ZM637 477Q633 472 623.5 463.0Q614 454 614 448Q614 446 614.5 445.0Q615 444 616 442Q616 441 623.5 433.0Q631 425 632 424Q634 423 635.0 422.0Q636 421 638 421L643 425Q653 438 651.5 452.0Q650 466 637 477ZM702 483 684 449 700 416Q704 415 706.5 427.0Q709 439 710 442Q711 452 708.5 463.0Q706 474 702 483ZM547 483Q539 471 526.0 461.5Q513 452 525 436Q526 435 536.0 426.0Q546 417 547 416Q548 415 549.0 414.5Q550 414 552 414Q554 414 561.5 424.0Q569 434 571 437Q572 440 574.5 443.0Q577 446 576 449Q576 453 565.5 467.5Q555 482 552 483Q551 483 549.5 483.0Q548 483 547 482ZM680 533Q678 532 668.0 519.0Q658 506 658 503Q657 498 660.5 491.0Q664 484 667 479Q670 479 671.5 481.5Q673 484 674 485Q676 488 683.5 504.0Q691 520 691 522Q693 529 690.5 532.0Q688 535 680 533ZM601 533Q598 532 584.5 519.0Q571 506 571 503Q571 500 581.5 486.0Q592 472 595 472Q598 472 599.5 473.0Q601 474 603 476Q605 478 614.0 490.5Q623 503 623 506Q623 513 616.5 524.0Q610 535 601 533ZM920 535Q909 533 911.0 521.5Q913 510 913 503Q913 477 912.5 451.0Q912 425 913 398Q913 393 911.5 379.5Q910 366 916 364Q922 365 934.0 363.5Q946 362 949 367L951 462Q949 476 951.5 494.5Q954 513 951 527Q949 535 937.5 534.0Q926 533 920 535ZM854 364H887L890 367V531Q883 536 873.5 534.0Q864 532 855 533L852 528ZM828 364V532Q820 533 809.5 534.5Q799 536 792 531V367L795 364H828ZM769 533Q762 535 759.0 533.5Q756 532 754 526Q751 518 744.5 487.5Q738 457 738 449Q738 441 744.5 410.5Q751 380 754 371Q755 367 757.0 365.5Q759 364 763 364Q764 364 766.0 364.0Q768 364 769 364Q769 367 770.0 370.0Q771 373 771 376Q771 386 770.0 397.5Q769 409 770 419Q770 444 771.5 471.0Q773 498 771 523Q771 526 770.5 528.5Q770 531 769 533ZM657 592Q655 592 642.5 579.5Q630 567 628 564Q624 560 626.0 558.0Q628 556 633 555Q656 551 672.0 561.0Q688 571 663 592H657ZM550 525Q557 531 564.0 536.5Q571 542 577 548L643 617L623 646L489 513Q488 511 488.0 509.5Q488 508 489 506Q490 503 498.0 492.0Q506 481 509 481Q519 492 529.0 503.5Q539 515 550 525ZM549 610Q563 625 578.0 639.5Q593 654 607 670Q607 676 602.5 680.0Q598 684 596 688Q592 694 584.5 706.5Q577 719 571 717L459 556L471 535L475 536Q494 554 512.0 572.5Q530 591 549 610ZM505 774Q503 770 501.0 766.0Q499 762 497 757Q484 720 471.0 682.0Q458 644 445 607Q442 600 437.5 592.0Q433 584 439 576L445 579L554 736V746L509 776L505 774ZM391 787H344Q344 784 343.0 781.5Q342 779 341 775Q339 740 341.5 702.5Q344 665 342 630L344 624L368 618Q374 619 374.0 631.0Q374 643 375 647Q379 678 385.5 713.5Q392 749 393 779Q393 781 392.0 783.0Q391 785 391 787ZM286 787Q283 785 282.0 783.5Q281 782 281 779Q279 765 280.5 746.5Q282 728 282 713Q282 700 282.5 687.5Q283 675 283 662Q283 655 281.0 643.5Q279 632 282 625L285 621H316Q318 623 319.0 625.5Q320 628 321 631Q324 661 321.5 697.5Q319 734 319 765Q319 769 320.5 774.0Q322 779 320 783L316 787H285ZM259 623V784L257 787H226L222 783V626Q222 626 223.0 624.5Q224 623 223 621H255Q255 621 256.5 622.5Q258 624 259 623ZM198 621Q198 623 199.0 624.5Q200 626 200 626V783L196 787H165L162 784V623Q164 624 165.0 622.5Q166 621 167 621H198ZM106 787Q103 785 102.0 782.5Q101 780 101 777Q98 750 100.5 719.5Q103 689 103 662Q103 655 101.0 643.5Q99 632 102 625L106 621H136Q139 623 139.5 625.5Q140 628 141 631Q144 661 141.5 697.5Q139 734 139 765Q139 769 140.5 774.0Q142 779 140 783L136 787ZM79 623V779Q79 779 80.0 780.0Q81 781 80 782L74 787L43 785L42 626Q44 620 59.0 621.0Q74 622 79 623ZM415 602 481 784Q477 791 470.5 789.0Q464 787 458 787Q450 787 439.0 787.5Q428 788 421 787Q414 786 414.0 776.0Q414 766 413 759Q408 730 404.5 701.0Q401 672 398 642Q397 635 394.0 623.5Q391 612 394 606Q396 603 404.5 599.5Q413 596 415 602ZM1011 364Q1013 364 1017.0 362.5Q1021 361 1021 360Q1025 349 1022.0 346.0Q1019 343 1009 343Q950 338 886.0 342.5Q822 347 763 342Q758 342 748.0 340.0Q738 338 733 337Q690 320 651.0 256.0Q612 192 585 154Q570 134 531.0 110.0Q492 86 466 85Q462 85 456.5 86.5Q451 88 446 89Q393 91 338 91Q284 92 228.5 91.0Q173 90 118 89Q63 88 10 88Q8 88 6.0 88.5Q4 89 3 90L0 87V112H18L20 278Q19 284 12.0 283.5Q5 283 0 283V306Q18 306 36.5 306.0Q55 306 73 306Q140 306 207.5 304.5Q275 303 341 304Q354 304 369.5 310.5Q385 317 396 324Q423 339 441.5 364.5Q460 390 477 415Q482 423 486.5 431.5Q491 440 497 446Q498 452 496.0 457.0Q494 462 491 467Q483 484 459.5 516.5Q436 549 422 561Q410 572 393.5 581.5Q377 591 362 597Q353 601 347.0 600.5Q341 600 332 600Q292 600 251 600Q210 600 169.0 600.0Q128 600 88 599Q47 599 6 598L3 602L0 598V623L3 620L16 622L20 626L18 784L2 788L0 785V810L449 809Q471 815 496.0 805.0Q521 795 539 783Q568 764 589 734Q611 703 631.0 671.0Q651 639 672 610Q694 582 722 566Q751 551 808.0 553.5Q865 556 900 556Q924 556 957.5 557.0Q991 558 1013 555Q1019 554 1022.0 550.5Q1025 547 1023 540Q1022 537 1015.5 535.0Q1009 533 1006 533H975L972 527Q976 490 972.0 448.0Q968 406 972 370Q973 368 973.0 366.5Q973 365 975 364Q984 363 993.5 364.0Q1003 365 1011 364Z"/></svg>