<svg xmlns="http://www.w3.org/2000/svg" viewBox="0 0 918 1024"><path transform="translate(-53,960) scale(1,-1)" d="M161 960 159 912Q160 909 168.0 909.0Q176 909 177 912L175 960H277Q276 953 273.5 933.0Q271 913 277 910Q282 907 287.0 908.5Q292 910 293 916L289 960H391L388 916Q389 910 393.5 908.5Q398 907 403 910Q409 913 406.5 933.0Q404 953 403 960H505L503 912Q504 909 512.0 909.0Q520 909 521 912L519 960H621Q620 953 617.5 933.0Q615 913 621 910Q626 907 631.0 908.5Q636 910 637 916L633 960H732V916Q732 910 737.0 908.5Q742 907 747 910Q753 913 752.0 933.0Q751 953 750 960H849L847 912Q848 909 856.0 909.0Q864 909 865 912L863 960H963Q963 959 963.0 958.0Q963 957 963 957V917Q963 909 966.5 910.0Q970 911 971 910V867H963V684L960 681H868Q863 681 864.0 685.0Q865 689 865 690V869Q860 871 855.5 871.5Q851 872 847 868L846 575H752L749 578L751 862Q751 865 750.5 867.0Q750 869 749 870Q747 873 743.0 872.5Q739 872 735 870L734 471L732 468Q728 466 723.5 467.5Q719 469 715 469Q700 469 678.0 467.5Q656 466 643 468Q640 468 638.0 469.0Q636 470 635 472V861Q635 861 636.0 862.5Q637 864 636 867Q633 873 625.0 871.5Q617 870 617 863L619 366Q616 359 610.0 361.0Q604 363 599 363Q584 363 569.0 363.0Q554 363 540 363Q535 363 530.5 361.5Q526 360 521 363Q519 365 520.0 366.5Q521 368 521 369V869Q517 871 512.0 871.5Q507 872 503 868Q504 794 504 720Q504 646 503.0 572.5Q502 499 502 425Q502 351 503 277Q503 270 505.0 263.5Q507 257 498 254L408 256Q403 260 405.0 270.5Q407 281 407 287Q409 359 409 431Q408 503 407.5 575.0Q407 647 406 719Q406 791 407 862Q407 871 398.0 871.5Q389 872 388 864Q388 862 389.0 859.0Q390 856 390 853Q389 767 389 681Q389 595 389.5 509.0Q390 423 390 337Q390 251 389 165Q389 162 390.0 155.0Q391 148 387 148H294L291 151V861Q291 861 292.0 862.5Q293 864 292 867Q289 873 281.0 871.5Q273 870 274 863Q274 776 274 690Q274 603 273.5 516.5Q273 430 273 344Q273 257 274 171Q274 142 276.5 109.5Q279 77 276 49Q275 47 275.0 45.5Q275 44 273 42H180Q176 42 176.5 46.0Q177 50 177 51V869Q173 871 168.5 871.0Q164 871 160 869V866L162 -64H59Q59 -63 60.0 -62.0Q61 -61 61 -61V862Q61 871 57.5 869.5Q54 868 53 869V912Q53 912 56.0 912.0Q59 912 60 912Q61 913 61.0 915.0Q61 917 61 917V957Q61 957 61.0 958.0Q61 959 61 960H161Z"/></svg>