<svg xmlns="http://www.w3.org/2000/svg" viewBox="0 0 874.273 1024.27"><path transform="translate(-74.7273,960.267) scale(1,-1)" d="M931 330Q928 334 920.5 329.5Q913 325 909 324Q906 323 902.5 322.5Q899 322 896 321Q893 321 890.0 319.0Q887 317 884 316Q880 315 876.0 314.5Q872 314 868 313Q866 312 863.5 310.5Q861 309 858 308Q855 307 851.5 307.0Q848 307 844 306Q841 305 838.5 303.5Q836 302 833 301Q831 300 827.5 300.0Q824 300 821 299Q817 298 813.0 296.0Q809 294 805 293Q798 291 795.0 290.5Q792 290 785 287Q781 285 776.5 284.5Q772 284 767 283Q765 282 762.5 280.5Q760 279 758 278Q755 277 751.5 277.0Q748 277 746 276Q741 275 738.0 273.0Q735 271 730 270Q723 268 719.0 267.0Q715 266 709 263Q705 262 700.5 261.5Q696 261 692 260Q690 259 687.5 257.5Q685 256 682 255Q679 254 675.0 254.0Q671 254 668 253Q665 252 662.5 251.0Q660 250 658 249Q654 248 648.0 248.0Q642 248 640 246Q637 244 637.0 239.0Q637 234 640 232Q644 230 653.0 231.0Q662 232 666 232H930Q933 233 933.0 239.5Q933 246 933 249Q932 263 931.5 277.5Q931 292 932 306Q932 311 933.0 316.5Q934 322 933 326Q933 327 932.5 328.5Q932 330 931 330ZM931 510Q929 512 923.5 510.5Q918 509 915 509Q901 508 886.0 507.5Q871 507 859 511H641Q637 509 638.0 506.5Q639 504 639 501Q639 482 639.0 463.5Q639 445 639 426Q639 423 638.0 419.0Q637 415 640 414Q644 411 647.5 414.5Q651 418 655 420Q658 421 661.5 421.0Q665 421 668 422Q670 423 672.0 424.5Q674 426 677 426Q687 429 697.5 431.5Q708 434 718 437Q721 438 724.0 439.5Q727 441 730 442Q734 443 738.0 443.5Q742 444 746 445Q749 446 751.5 447.5Q754 449 757 450Q760 451 764.0 451.0Q768 451 772 452Q775 453 777.5 455.0Q780 457 783 458Q795 461 807.0 464.0Q819 467 831 471Q836 473 842.0 474.0Q848 475 853 477Q859 479 862.5 480.0Q866 481 872 482Q876 483 879.5 485.0Q883 487 887 488Q889 489 892.0 489.0Q895 489 898 489Q902 490 906.0 492.0Q910 494 915 495Q919 496 925.0 496.5Q931 497 932 502Q932 503 932.0 506.0Q932 509 931 510ZM676 -64 678 -61 687 -60Q682 -58 676.0 -57.5Q670 -57 666 -55Q664 -54 653.5 -47.0Q643 -40 641 -38Q637 -35 630.0 -23.5Q623 -12 622 -8Q622 65 622 138Q622 211 622.0 284.0Q622 357 622 430Q622 503 622 576Q625 583 629.5 590.0Q634 597 640 603Q643 605 646.5 607.5Q650 610 652 612Q660 620 663.0 621.0Q666 622 675 627Q691 637 704.5 652.0Q718 667 727 683Q732 693 737.5 709.0Q743 725 743 736Q743 763 742.0 790.5Q741 818 742 845Q742 851 742.5 856.5Q743 862 743 868Q742 874 737.5 873.5Q733 873 730 876Q726 879 727.0 889.5Q728 900 731 903Q734 905 739.5 906.0Q745 907 748 907Q749 907 750.5 906.5Q752 906 753 906Q771 906 792.5 907.0Q814 908 831 906Q833 906 836.5 905.0Q840 904 841 903Q841 903 843.5 898.0Q846 893 846 892Q847 889 845.0 884.0Q843 879 840 876Q838 874 834.0 873.0Q830 872 830 868Q830 865 830.0 862.0Q830 859 830 856Q831 823 831.0 790.0Q831 757 831 724Q831 710 833.5 697.5Q836 685 844 673Q854 659 871.0 643.5Q888 628 903 620Q909 616 915.5 613.5Q922 611 928 606Q933 602 938.0 596.0Q943 590 946 585Q949 581 949.0 574.5Q949 568 949 563Q949 493 949 423Q948 354 948.0 284.0Q948 214 948 144Q948 74 949 5Q949 0 949.0 -6.0Q949 -12 947 -16Q946 -18 944.5 -19.0Q943 -20 943 -22Q942 -23 941.0 -25.0Q940 -27 939 -29Q933 -37 920.5 -45.5Q908 -54 899 -57Q898 -57 895.5 -58.5Q893 -60 895 -61L898 -64H676ZM177 480Q174 476 177.5 472.0Q181 468 184 472Q189 476 185.0 480.0Q181 484 177 480ZM208 488Q209 487 212.0 487.0Q215 487 216 489Q218 495 212.0 497.5Q206 500 207 492Q207 491 207.0 490.0Q207 489 208 488ZM281 538Q276 536 280.5 530.5Q285 525 288 530Q291 534 287.5 536.5Q284 539 281 538ZM217 541Q215 543 210.5 541.5Q206 540 208 535Q210 531 215.5 534.0Q221 537 217 541ZM318 546Q320 550 316.0 554.5Q312 559 309 555Q306 551 310.5 548.0Q315 545 318 546ZM247 557Q245 559 241.5 559.0Q238 559 238 554Q237 548 245.0 549.0Q253 550 247 557ZM384 598Q379 597 380.0 591.5Q381 586 385 586Q388 587 389.5 591.0Q391 595 388 597Q387 598 386.0 598.0Q385 598 384 598ZM320 592Q322 595 321.5 598.5Q321 602 316 601Q308 600 311.5 593.5Q315 587 320 592ZM244 602Q240 601 241.5 597.0Q243 593 247 593Q253 593 252.5 599.0Q252 605 244 602ZM420 604Q423 609 417.5 613.5Q412 618 411 612Q410 607 412.5 604.5Q415 602 420 604ZM342 617Q338 611 344.5 608.5Q351 606 351 612Q351 616 348.0 618.0Q345 620 342 617ZM280 618Q274 623 271.0 617.0Q268 611 276 611Q281 610 282.0 613.0Q283 616 280 618ZM492 648Q496 651 493.0 653.5Q490 656 486 656Q478 655 483.0 649.0Q488 643 492 648ZM414 659Q411 657 412.5 652.5Q414 648 418 650Q423 651 421.0 656.0Q419 661 414 659ZM345 663Q342 662 342.0 658.0Q342 654 345 653Q353 651 353.0 658.0Q353 665 345 663ZM282 655Q283 656 284.0 659.5Q285 663 283 664Q272 668 273.5 659.0Q275 650 282 655ZM522 664Q526 668 520.0 671.5Q514 675 512 670Q510 666 515.0 664.0Q520 662 522 664ZM449 676Q443 680 442.0 673.0Q441 666 449 666Q452 667 451.5 671.0Q451 675 449 676ZM382 678Q378 683 374.0 678.0Q370 673 375 670Q379 667 381.5 671.0Q384 675 382 678ZM306 682Q301 680 305.0 673.5Q309 667 314 675Q314 677 311.5 680.0Q309 683 306 682ZM525 716Q523 718 520.5 717.5Q518 717 516 716Q512 709 518.5 707.5Q525 706 526 714Q526 714 525.5 715.0Q525 716 525 716ZM448 721Q447 721 446.0 720.5Q445 720 444 719Q445 713 450.0 711.5Q455 710 456 718Q455 719 452.0 720.0Q449 721 448 721ZM375 723Q373 721 373.5 719.0Q374 717 375 715Q385 713 384.5 720.0Q384 727 375 723ZM314 727Q305 730 305.0 722.5Q305 715 311 717Q314 718 314.5 721.5Q315 725 314 727ZM484 729Q486 740 478.0 738.0Q470 736 476 731Q477 729 479.5 729.0Q482 729 484 729ZM406 740Q402 736 406.0 732.5Q410 729 415 733Q417 736 412.5 739.5Q408 743 406 740ZM339 746Q336 745 335.5 740.5Q335 736 338 735Q347 731 345.0 739.0Q343 747 339 746ZM478 775Q483 769 487.0 776.0Q491 783 484 784Q480 784 478.0 781.0Q476 778 478 775ZM409 777Q411 775 414.5 776.0Q418 777 419 780Q420 787 411.5 785.0Q403 783 409 777ZM346 787Q344 790 340.0 789.5Q336 789 337 785Q337 781 341.5 780.5Q346 780 347 783Q347 784 347.0 785.0Q347 786 346 787ZM529 802Q525 801 523.0 798.0Q521 795 523 792Q524 790 529.5 789.0Q535 788 537 789Q539 794 537.0 798.5Q535 803 529 802ZM447 800Q445 802 441.5 802.5Q438 803 438 799Q437 791 444.5 792.5Q452 794 447 800ZM369 806Q366 804 367.0 800.5Q368 797 372 797Q379 795 377.0 802.0Q375 809 369 806ZM592 777Q595 781 586.5 791.5Q578 802 575 805Q573 806 568.0 807.0Q563 808 560 808Q548 809 552.0 801.5Q556 794 558 788Q560 781 562.0 774.5Q564 768 567 761Q569 757 572.0 752.5Q575 748 573 742Q570 735 565.5 739.0Q561 743 558 743Q554 744 549.0 737.0Q544 730 549 727Q551 725 552.5 726.0Q554 727 556 728Q563 728 564.5 726.5Q566 725 571 724Q575 722 583.5 721.5Q592 721 596 722Q597 722 598.0 722.0Q599 722 600 723Q602 725 597.5 729.5Q593 734 591 736Q586 743 580.5 753.0Q575 763 581 771Q583 774 587.0 774.5Q591 775 592 777ZM450 847Q444 850 440.5 844.5Q437 839 443 837Q448 834 449.5 840.0Q451 846 450 847ZM380 842Q382 844 382.0 847.5Q382 851 378 851Q367 852 370.5 845.0Q374 838 380 842ZM480 857Q481 859 481.5 862.5Q482 866 479 867Q474 868 471.5 863.0Q469 858 475 855Q476 855 477.5 855.5Q479 856 480 857ZM402 867Q399 866 400.0 862.5Q401 859 404 858Q412 857 411.0 863.0Q410 869 402 867ZM576 872Q580 875 585.0 877.0Q590 879 594 882Q596 883 599.0 886.5Q602 890 603 892Q605 897 597.5 898.5Q590 900 590 907Q589 913 596.0 918.5Q603 924 603 928Q604 933 596.0 930.0Q588 927 586 926Q581 923 575.0 917.0Q569 911 563 916Q559 919 557.5 924.0Q556 929 549 925Q548 925 540.0 919.5Q532 914 531 914Q527 909 525.0 900.0Q523 891 515 890Q512 890 508.5 892.0Q505 894 503 892Q502 891 500.5 885.5Q499 880 498 878Q497 870 498.5 861.5Q500 853 506 847Q514 841 514.0 847.5Q514 854 515 858Q516 866 522.5 875.0Q529 884 535 890Q539 893 547.0 899.0Q555 905 559 905Q567 907 572.0 900.5Q577 894 569 888Q560 881 550.0 876.0Q540 871 535 859Q534 856 532.0 848.5Q530 841 530 838Q530 831 539.0 833.5Q548 836 552 836Q560 838 569.0 839.0Q578 840 585 842Q587 843 589.0 844.5Q591 846 592 849Q592 852 586.5 853.0Q581 854 578 855Q573 858 572.5 862.5Q572 867 577 872ZM630 916Q637 909 632.0 900.0Q627 891 622 886Q620 884 615.5 880.0Q611 876 615 873Q618 870 624.0 870.0Q630 870 631 864Q633 853 624.0 849.5Q615 846 610 840Q600 831 608.0 829.5Q616 828 621 825Q627 822 632.5 814.5Q638 807 649 813Q656 817 655.5 824.0Q655 831 656 837Q657 844 667.5 853.0Q678 862 685 862Q692 863 701.5 859.0Q711 855 709 845Q707 836 697.0 837.0Q687 838 683 833Q678 828 677.5 814.5Q677 801 671 794Q665 788 656.0 783.5Q647 779 639 778Q631 777 624.5 781.5Q618 786 612 790L609 789Q608 788 608.5 787.5Q609 787 609 786Q610 782 614.0 777.5Q618 773 620 769Q621 765 621.0 761.5Q621 758 617 755Q614 753 609.0 752.0Q604 751 607 745Q608 743 614.5 738.0Q621 733 624 732Q630 728 638.0 725.5Q646 723 648 716Q652 709 646.5 704.5Q641 700 634 699Q627 697 620.5 697.0Q614 697 607 700Q604 701 599.5 703.5Q595 706 593 702Q591 699 592.0 693.0Q593 687 593 683Q592 674 583.5 664.5Q575 655 567 653Q564 653 558.5 653.0Q553 653 554 648Q554 643 557.0 640.0Q560 637 561 634Q562 628 561.0 621.5Q560 615 557 610Q556 607 550.5 601.0Q545 595 542 594Q540 593 538.5 593.0Q537 593 536 593Q534 592 532.0 590.0Q530 588 528 588Q527 588 521.0 589.0Q515 590 513 590Q511 590 505.0 592.5Q499 595 498 597Q494 600 491.0 605.5Q488 611 481 610Q479 603 474.5 599.5Q470 596 463 594Q461 594 456.5 594.0Q452 594 451 592Q451 591 453.5 587.0Q456 583 456 581Q459 573 459.5 565.5Q460 558 455 550Q451 545 442.5 537.5Q434 530 427 530Q426 530 418.0 531.0Q410 532 408 532Q406 532 402.0 534.5Q398 537 397 538Q394 540 390.5 545.0Q387 550 386 550Q381 553 379.0 549.0Q377 545 374 542Q369 537 364.0 536.5Q359 536 353 534Q347 532 350.0 528.5Q353 525 355 523Q359 516 358.0 506.5Q357 497 353 491Q352 490 346.0 483.5Q340 477 339 476Q333 473 327.5 472.5Q322 472 316 473Q314 473 312.5 472.5Q311 472 310 472Q307 472 301.0 475.5Q295 479 292 481Q290 484 288.0 488.0Q286 492 281 492Q277 492 276.0 488.5Q275 485 273 483Q271 480 260.5 477.5Q250 475 249 474Q248 471 251.5 463.5Q255 456 256 452Q256 449 254.5 443.5Q253 438 252 435Q245 422 233.5 416.5Q222 411 208 413Q205 413 200.0 415.5Q195 418 193 421Q190 423 187.0 427.5Q184 432 182 433Q178 435 175.5 430.5Q173 426 170 424Q166 420 159.0 419.0Q152 418 147 416Q144 410 148.5 406.5Q153 403 154 399Q155 392 153.0 384.5Q151 377 147 371Q142 365 134.0 359.0Q126 353 119 353Q107 353 95.5 359.0Q84 365 78 376Q72 388 77.0 404.5Q82 421 94 427Q99 430 103.5 429.5Q108 429 113 431Q115 434 113.0 436.5Q111 439 109 442Q108 446 107.5 453.0Q107 460 107 464Q108 469 114.0 477.0Q120 485 125 488Q130 491 132.5 490.5Q135 490 140 491Q150 492 145.0 498.5Q140 505 139 509Q138 518 140.0 525.5Q142 533 147 541Q148 543 154.5 547.5Q161 552 164 553Q166 554 171.0 553.5Q176 553 177 555Q177 564 173.0 569.5Q169 575 171 585Q173 594 179.5 602.5Q186 611 195 615Q198 616 202.0 615.5Q206 615 209 616Q210 622 207.0 627.0Q204 632 204 638Q203 649 209.5 661.0Q216 673 227 676Q230 677 235.5 676.5Q241 676 242 680Q243 682 240.0 686.5Q237 691 236 695Q236 698 236.0 704.5Q236 711 237 714Q237 715 242.0 722.5Q247 730 247 731Q249 732 253.0 734.5Q257 737 258 738Q263 739 269.5 738.5Q276 738 274 746Q273 750 270.0 752.5Q267 755 267 761Q267 772 273.5 784.5Q280 797 292 800Q294 801 299.0 800.5Q304 800 306 802Q308 806 304.0 812.0Q300 818 300 822Q298 832 305.5 846.0Q313 860 324 862Q328 862 332.0 861.5Q336 861 338 864Q339 866 336.5 871.5Q334 877 334 880Q330 899 341.5 912.5Q353 926 372 927Q381 928 388.5 923.5Q396 919 401 912Q402 910 403.0 907.0Q404 904 407 905Q410 905 411.5 907.5Q413 910 414 912Q422 921 435.5 923.5Q449 926 458 920Q464 917 469.0 911.0Q474 905 477 899Q478 898 479.5 894.5Q481 891 483 892Q487 893 489.0 908.5Q491 924 498 927Q504 930 506.0 928.5Q508 927 513 927Q518 926 525.0 932.0Q532 938 537 941Q543 944 554.5 948.5Q566 953 572 952Q576 951 578.0 948.0Q580 945 584 945Q587 945 593.5 949.0Q600 953 603 954Q611 958 623.5 960.0Q636 962 637 949Q638 942 631.0 937.5Q624 933 623 927Q622 921 624.5 920.0Q627 919 630 916ZM524 252Q517 247 510.0 242.0Q503 237 496 233Q488 228 480.0 224.5Q472 221 465 214Q456 206 449.0 195.0Q442 184 436 173Q421 145 419.5 112.5Q418 80 427 50Q428 47 431.0 41.0Q434 35 435 33Q445 12 464.0 -8.5Q483 -29 504 -39Q509 -41 513.5 -41.5Q518 -42 520 -49Q521 -59 514.0 -58.0Q507 -57 501 -57Q457 -57 410.5 -57.0Q364 -57 320 -57Q315 -57 310.5 -58.0Q306 -59 302 -56Q297 -51 300.5 -44.5Q304 -38 308 -35Q310 -34 313.0 -33.0Q316 -32 318 -31Q334 -21 348.5 -4.0Q363 13 372 30Q384 52 388.0 79.5Q392 107 387 132Q386 139 382.5 148.5Q379 158 376 165Q368 182 358.0 196.5Q348 211 333 223Q327 228 319.5 232.0Q312 236 305 241Q293 249 282.0 260.0Q271 271 262 282Q252 295 243.5 311.5Q235 328 231 343Q228 354 227.0 367.0Q226 380 223 390Q222 396 226.5 397.5Q231 399 235 399Q277 399 319 399Q361 398 403.0 397.5Q445 397 487 397Q529 397 571 398Q577 398 585.5 398.5Q594 399 592 389Q588 348 572.0 313.0Q556 278 524 252ZM496 -64 506 -62Q508 -61 511.0 -61.0Q514 -61 516 -64H496Z"/></svg>