<svg xmlns="http://www.w3.org/2000/svg" viewBox="0 0 1023.67 598"><path transform="translate(-0.333333,747) scale(1,-1)" d="M602 631 554 595Q550 589 550.5 584.0Q551 579 555 574Q566 556 576.0 551.5Q586 547 604 543Q609 542 613.5 539.5Q618 537 625 539Q628 543 628.0 547.5Q628 552 630 556Q634 565 650.5 574.5Q667 584 671 570Q675 557 659.0 550.0Q643 543 649 530Q651 527 664.0 521.0Q677 515 682 513Q685 511 692.5 505.0Q700 499 702 499Q708 499 710.0 503.5Q712 508 715 511Q727 524 747.0 521.0Q767 518 772 523Q776 540 768.5 552.5Q761 565 763 583Q765 606 787.0 609.5Q809 613 825 601Q835 594 843.0 582.0Q851 570 855 559Q857 552 860.5 533.5Q864 515 850 517Q837 519 836.0 539.5Q835 560 824 570Q819 574 811.5 573.5Q804 573 803 565Q803 555 814.5 540.5Q826 526 827 512Q828 495 820.5 488.0Q813 481 797 479Q787 478 777.5 478.5Q768 479 761 471Q754 464 758.0 458.0Q762 452 768 446Q779 434 782.5 438.0Q786 442 797 445Q806 448 824.5 448.0Q843 448 841 434Q840 424 819.0 423.5Q798 423 804 404Q805 402 811.5 390.0Q818 378 820 376Q825 368 829.5 371.5Q834 375 839 376Q856 381 871.0 374.5Q886 368 901 367Q922 366 919.0 383.0Q916 400 914 412Q914 418 913.5 431.0Q913 444 915 450Q920 467 937.0 478.0Q954 489 956 505Q957 513 955.0 528.5Q953 544 964 546Q971 547 973.5 542.5Q976 538 977 533Q980 523 979.5 494.5Q979 466 975 457Q972 448 967.0 443.0Q962 438 961 428Q960 407 970.0 389.0Q980 371 976 350Q975 347 968.5 335.5Q962 324 960 321Q951 311 936.0 309.0Q921 307 908 309Q901 310 894.5 315.0Q888 320 879 320Q872 320 862.5 312.0Q853 304 853 297Q853 296 855.5 283.5Q858 271 859 271Q862 267 869.5 269.0Q877 271 882 271Q891 269 908.0 254.5Q925 240 914 232Q902 222 894.0 235.5Q886 249 875 247Q873 246 870.0 243.5Q867 241 865 239Q862 233 863.5 220.5Q865 208 865 200Q865 196 864.0 191.5Q863 187 864 183Q865 181 879.5 180.5Q894 180 899 179Q925 175 951.0 169.5Q977 164 1003 160Q1007 159 1013.0 159.0Q1019 159 1024 160V149L23 151L21 157Q23 162 49.0 164.0Q75 166 82 167Q99 169 115.0 172.0Q131 175 147 179Q151 180 156.5 180.0Q162 180 165 182Q166 183 166.0 196.0Q166 209 165 211Q164 219 159.5 217.5Q155 216 151 217Q145 218 138.0 223.0Q131 228 126 229Q118 230 110.5 224.0Q103 218 96 226Q85 239 104.0 248.0Q123 257 137 251Q146 248 154.5 240.0Q163 232 168 249Q170 253 173.0 271.0Q176 289 176 294Q176 299 167.0 306.5Q158 314 153 316Q145 317 132.0 316.5Q119 316 110 316Q91 315 77.5 313.0Q64 311 45 319Q17 332 7.0 355.0Q-3 378 2 408Q3 418 16.0 432.0Q29 446 40 440Q51 433 42.0 422.0Q33 411 29 404Q25 395 24.5 387.5Q24 380 30 371Q36 361 46.0 356.5Q56 352 68 352Q97 351 127.5 361.0Q158 371 186 367Q190 367 194.5 364.0Q199 361 204 365Q206 367 214.0 381.5Q222 396 221 399Q221 400 207.0 411.5Q193 423 188 430Q180 444 183.0 456.5Q186 469 179 480Q176 485 167.0 495.5Q158 506 169 510Q181 515 193.0 500.0Q205 485 207 475Q208 471 207.5 465.0Q207 459 209 456Q210 454 230.0 446.5Q250 439 253 439Q258 440 265.5 448.5Q273 457 276 462Q277 465 271.5 471.0Q266 477 265 482Q260 498 264.0 519.0Q268 540 269 556Q271 574 262.5 587.5Q254 601 239 609Q221 619 209.5 617.5Q198 616 183 620Q172 623 159.5 637.0Q147 651 145 663Q144 672 144.5 694.0Q145 716 156 719Q177 723 169.5 694.5Q162 666 176 658Q186 652 204.0 653.0Q222 654 234 654Q258 652 286.5 633.5Q315 615 323 592Q330 571 328.0 555.5Q326 540 341 520Q349 509 354.0 513.5Q359 518 367 522Q373 525 389.5 530.5Q406 536 408 538Q410 542 407.0 551.0Q404 560 404 567Q405 574 410.5 588.0Q416 602 426 594Q433 589 429.0 570.5Q425 552 433 547Q438 544 451.5 547.0Q465 550 468 554Q470 557 473.5 570.0Q477 583 479 588Q481 593 483.5 599.0Q486 605 489 610Q504 630 529.5 642.0Q555 654 555 684Q555 689 549.0 699.5Q543 710 538 711Q516 716 509.0 692.5Q502 669 493 665Q486 662 481.5 668.0Q477 674 477 681Q479 694 493.0 711.5Q507 729 517 736Q527 744 541.5 746.0Q556 748 568 746Q579 744 593.5 730.0Q608 716 610 705Q612 689 612.0 666.5Q612 644 602 630Z"/></svg>