<svg xmlns="http://www.w3.org/2000/svg" viewBox="0 0 885.831 1025.1"><path transform="translate(-69.1935,960.333) scale(1,-1)" d="M486 661Q374 643 336 560Q299 477 321.5 393.0Q344 309 419 258Q495 206 609 252Q695 287 722 360Q749 434 728.0 506.0Q707 578 644 627Q580 676 486 661ZM462 702Q618 726 697 647Q776 567 780.5 463.0Q785 359 717 271Q648 182 510 189Q392 194 333 269Q273 344 268.0 435.0Q263 526 312 606Q361 686 462 702ZM126 858Q206 874 188.0 827.5Q170 781 170 740Q169 701 185.5 654.0Q202 607 202 568Q202 505 163.5 555.5Q125 606 116 623Q104 646 89 682Q75 719 70.5 755.5Q66 792 77 821Q87 850 126 857ZM218 311Q208 283 204.0 260.5Q200 238 201 208Q202 180 214.0 110.0Q226 40 202 28Q185 20 168.0 24.0Q151 28 137 37Q103 58 97 103Q91 147 105.0 192.0Q119 237 149 272Q179 307 218 311ZM832 589Q830 619 839.5 644.5Q849 670 849 700Q850 746 833.5 819.5Q817 893 900 874Q935 866 946.5 819.5Q958 773 953 743Q947 706 908.5 652.5Q870 599 832 589ZM833 58Q827 68 841.0 132.5Q855 197 845 238Q842 247 823.5 291.5Q805 336 828 335Q877 303 916.5 245.5Q956 188 955 126Q955 86 903.5 57.5Q852 29 833 58ZM357 704Q331 709 305 738Q278 766 261.5 802.0Q245 838 244 873Q242 908 265 925Q285 940 317.0 942.0Q349 944 364 920Q370 893 360.0 871.0Q350 849 348 823Q347 794 354.5 764.0Q362 734 357 704ZM652 720Q650 747 667.5 768.0Q685 789 685 814Q685 849 661.0 889.5Q637 930 686 944Q712 952 734.5 942.0Q757 932 770 908Q790 873 777 836Q765 800 740.0 771.0Q715 742 688 727Q661 712 652 720ZM748 -14Q730 -30 698.0 -37.5Q666 -45 644 -33Q664 36 685.5 86.0Q707 136 677 213Q704 206 726 176Q748 147 759.5 110.5Q771 74 769 39Q767 3 748 -14ZM333 196Q340 172 339.5 146.5Q339 121 345 98Q354 62 388.0 26.5Q422 -9 390 -37Q351 -70 320.0 -34.0Q289 2 284 37Q279 73 285.0 127.5Q291 182 333 196ZM505 155Q515 165 527 145Q539 125 548.5 95.5Q558 66 564 38Q571 10 571 4Q572 -72 517.0 -64.0Q462 -56 457 -28Q455 -14 483.0 57.0Q511 128 505 155ZM494 956Q536 969 550 943Q564 918 561.0 879.0Q558 840 542 800Q527 761 509 745L463 913Q462 926 472.5 939.5Q483 953 494 956ZM396 498Q403 500 437 501Q471 502 511.0 502.0Q551 502 586 501Q621 499 630 497Q669 488 668.0 448.0Q667 408 623 401Q612 400 579 399Q545 398 507.0 398.0Q469 398 436 399Q403 400 396 402Q367 411 367.0 450.0Q367 489 396 497Z"/></svg>