<svg xmlns="http://www.w3.org/2000/svg" viewBox="0 0 974.8 1023.26"><path transform="translate(-24.2,959.258) scale(1,-1)" d="M669 493Q665 496 658.0 489.0Q651 482 656 476Q662 470 674.0 469.5Q686 469 693 473Q696 476 685.5 481.0Q675 486 673 487Q671 489 670.0 491.0Q669 493 669 493ZM335 473Q345 465 365.0 472.5Q385 480 367 492Q360 496 359.5 493.0Q359 490 355 488Q353 486 342.5 481.0Q332 476 335 473ZM684 504Q690 503 699.0 503.5Q708 504 715 504Q721 504 719.5 505.0Q718 506 719 505Q722 510 712.5 513.5Q703 517 699 517Q695 517 687.5 514.0Q680 511 680 506Q680 506 681.5 505.0Q683 504 684 504ZM313 504Q319 503 328.5 503.5Q338 504 344 504Q351 504 349.5 505.0Q348 506 349 506Q348 511 340.5 514.5Q333 518 329 517Q325 517 315.5 513.5Q306 510 309 505Q310 506 311.5 505.0Q313 504 313 504ZM810 591Q818 588 826.5 587.5Q835 587 843 586Q847 585 851.0 584.0Q855 583 859 583Q863 582 879.0 581.5Q895 581 897 583Q897 603 904.0 598.0Q911 593 920 593Q925 593 944.5 598.5Q964 604 964 609Q958 615 950.0 613.0Q942 611 934 612Q912 614 901.5 620.5Q891 627 873 635Q864 638 853.0 641.0Q842 644 832 649Q817 656 803.5 665.0Q790 674 772 673L710 697Q702 696 706.5 686.5Q711 677 715 674Q720 670 731.5 671.0Q743 672 752 670Q757 668 765.5 659.0Q774 650 768 645Q761 639 755.0 645.5Q749 652 743 654Q740 656 728.0 657.0Q716 658 715 655Q712 649 716.5 643.0Q721 637 727 636Q731 635 738.0 635.5Q745 636 746 630Q749 620 737.5 620.5Q726 621 735 605Q741 593 749.5 599.5Q758 606 765 607Q768 607 773.0 606.0Q778 605 783 605Q793 606 804.5 610.5Q816 615 827 615Q829 623 818.5 627.0Q808 631 814 639Q819 647 827.0 640.0Q835 633 838 631Q843 627 854.0 620.0Q865 613 865 608Q865 596 852.0 599.0Q839 602 833 602Q827 602 818.5 600.0Q810 598 810 591ZM96 612Q90 611 83.5 611.5Q77 612 71 612Q72 603 89.0 597.5Q106 592 113 593Q120 594 125.0 598.0Q130 602 132 584L134 583Q142 583 150.5 582.5Q159 582 168 583Q174 583 185.5 585.0Q197 587 203 588Q205 589 209.0 590.5Q213 592 214 593Q220 597 209.0 599.5Q198 602 195 602Q189 602 175.5 599.5Q162 597 163 609Q164 614 175.0 621.0Q186 628 190 631Q193 633 201.0 640.0Q209 647 214 639Q220 631 209.5 627.0Q199 623 201 615Q213 616 226.0 610.5Q239 605 251 604Q254 604 256.5 605.5Q259 607 263 607Q268 606 274.5 601.5Q281 597 288 599Q291 599 294.5 606.5Q298 614 297 616Q296 621 288.0 621.5Q280 622 282 630Q284 636 290.5 636.0Q297 636 302 636Q308 637 312.0 643.0Q316 649 314 655Q312 658 300.5 657.0Q289 656 285 654Q279 652 273.0 645.5Q267 639 261 645Q254 650 263.0 659.0Q272 668 277 670Q285 673 297.0 671.5Q309 670 314 674Q318 677 322.0 686.5Q326 696 319 698L256 673Q239 674 225.0 665.0Q211 656 196 649Q187 645 176.0 642.0Q165 639 156 635Q138 627 127.5 620.5Q117 614 96 612ZM600 732Q596 735 589.0 733.0Q582 731 586 723Q588 720 594.0 722.0Q600 724 602 727Q602 728 601.5 729.5Q601 731 600 732ZM428 732Q427 731 426.5 729.5Q426 728 426 727Q428 724 434.0 722.0Q440 720 442 723Q446 731 439.0 733.5Q432 736 428 732ZM550 736Q549 737 548.0 739.0Q547 741 545 740Q540 740 542.0 730.0Q544 720 533 724Q528 725 527.0 731.0Q526 737 525 741Q522 746 516.0 748.0Q510 750 505 749Q501 740 508.0 735.0Q515 730 515 721Q515 714 509.0 710.0Q503 706 496 710Q489 715 488.0 724.0Q487 733 475 734Q449 736 457.5 720.0Q466 704 456 698Q443 690 432.0 706.0Q421 722 409 716Q404 713 404.5 707.0Q405 701 396 701Q385 701 377.5 714.0Q370 727 357 715Q354 713 348.0 699.5Q342 686 342 681Q341 677 341.5 672.5Q342 668 341 664Q340 661 336.0 656.5Q332 652 330 648Q328 642 327.5 636.5Q327 631 325 626Q323 621 319.0 617.0Q315 613 312 608Q308 601 305.5 590.0Q303 579 299 573Q296 570 291.0 566.0Q286 562 283 556Q282 552 279.5 538.5Q277 525 277 521Q277 517 279.0 515.0Q281 513 284 512Q286 513 289.5 517.5Q293 522 296 523Q299 525 312.5 529.0Q326 533 329 533Q349 532 364.5 517.0Q380 502 388 485Q388 484 390.0 482.5Q392 481 392 480Q397 468 384.5 461.5Q372 455 363 454Q356 453 339.5 454.5Q323 456 317 458Q311 460 306.5 467.0Q302 474 296 478Q295 477 294.5 475.0Q294 473 294 472Q295 457 318.0 418.5Q341 380 349 363Q356 349 361.0 335.0Q366 321 372 308Q379 293 388.0 277.5Q397 262 402 245Q403 241 404.0 231.0Q405 221 406 219Q407 218 408.0 217.5Q409 217 410 217Q411 220 413.5 222.5Q416 225 418 225Q426 226 426.5 216.0Q427 206 428 202Q432 187 434.0 183.5Q436 180 437 162Q437 158 439.5 148.5Q442 139 444 137Q446 134 449.5 135.5Q453 137 456 136Q462 136 469.0 127.0Q476 118 479 112Q481 109 482.0 105.0Q483 101 485 99Q488 95 494.0 94.5Q500 94 504 90Q508 86 508.0 81.5Q508 77 516 81Q520 83 521.0 85.5Q522 88 525 90Q529 93 534.5 94.0Q540 95 543 98Q545 100 546.0 104.5Q547 109 549 112Q552 117 559.5 126.0Q567 135 573 136Q575 137 577.0 136.0Q579 135 581 135Q585 135 588.0 146.5Q591 158 591 162Q592 180 594.0 183.5Q596 187 600 202Q601 206 602.0 216.0Q603 226 610 225Q613 225 615.5 222.5Q618 220 618 217Q619 217 620.5 217.0Q622 217 622 219Q624 221 625.0 231.5Q626 242 627 247Q632 262 641.0 278.5Q650 295 657 310Q663 323 668.0 336.5Q673 350 679 363Q688 380 711.0 418.5Q734 457 734 472Q734 473 733.5 475.0Q733 477 732 478Q726 474 721.5 467.0Q717 460 710 457Q703 455 687.0 454.0Q671 453 664 454Q656 456 644.0 462.0Q632 468 636 480Q637 481 638.5 482.0Q640 483 641 485Q649 501 664.5 516.5Q680 532 700 533Q703 533 716.5 529.0Q730 525 733 523Q736 522 738.5 518.0Q741 514 744 512Q746 512 749.0 515.0Q752 518 752 520Q752 523 749.0 538.0Q746 553 745 556Q743 562 737.5 566.0Q732 570 729 573Q726 579 723.5 590.0Q721 601 716 608Q714 613 709.5 617.0Q705 621 703 626Q702 631 701.0 636.5Q700 642 698 648Q696 652 692.0 656.5Q688 661 687 664Q686 669 686.5 674.0Q687 679 686 684Q685 686 679.5 700.0Q674 714 672 716Q662 728 652.0 714.5Q642 701 633 701Q622 700 623.5 709.0Q625 718 612 716Q602 715 592.0 702.0Q582 689 572 698Q565 704 569.5 713.0Q574 722 571 728Q568 734 561.0 733.0Q554 732 550 736ZM568 766Q554 769 553.0 760.5Q552 752 566 755ZM486 785Q486 782 488.0 774.5Q490 767 495 768Q501 769 495.0 778.5Q489 788 486 785ZM581 826Q579 825 577.5 820.5Q576 816 579 814Q585 813 586.5 820.5Q588 828 581 826ZM417 879Q419 876 424.5 865.0Q430 854 432 854Q434 852 437.0 852.0Q440 852 443 851Q444 851 445.5 849.0Q447 847 449 845Q463 837 463.5 846.5Q464 856 472 865Q484 879 491.5 864.0Q499 849 508 844Q516 842 519.0 856.5Q522 871 531 871Q538 871 540.5 866.0Q543 861 546 860Q548 859 551.0 860.5Q554 862 558 860Q561 858 563.0 852.5Q565 847 569 847Q570 847 571.5 848.5Q573 850 575 850Q580 851 585.5 851.5Q591 852 597 852Q598 859 601.0 862.5Q604 866 607 870Q652 937 727.5 952.0Q803 967 877 951Q890 948 902.5 943.0Q915 938 928 936Q931 933 924.0 931.5Q917 930 915 929Q902 928 888.0 928.5Q874 929 860 927Q791 922 749.5 888.0Q708 854 687 789Q686 787 684.5 780.0Q683 773 683 772Q684 765 695.0 773.0Q706 781 710 773Q714 763 701.5 758.5Q689 754 690 747Q690 742 695.0 740.5Q700 739 701 737Q703 734 702.0 730.0Q701 726 702 723Q703 718 721.0 713.5Q739 709 745 707Q776 696 803.5 682.0Q831 668 861 656Q865 654 869.0 654.0Q873 654 877 652Q896 645 908.5 637.5Q921 630 944 627Q955 626 965.0 627.5Q975 629 985 628Q999 623 999.0 612.0Q999 601 996 588Q991 585 983.5 586.5Q976 588 971 586Q964 583 958.0 574.0Q952 565 944 564Q942 563 938.5 563.5Q935 564 933 564Q932 564 931.0 561.5Q930 559 928 558Q923 554 915.5 556.0Q908 558 902 559Q892 559 882.0 557.0Q872 555 864 556Q861 556 856.5 558.5Q852 561 849 560Q844 560 841.5 556.5Q839 553 833 554Q830 554 826.5 558.0Q823 562 819 563Q816 564 813.5 564.0Q811 564 808 565Q795 569 781.0 574.5Q767 580 753 579Q753 572 757.5 566.5Q762 561 764 553Q766 547 767.0 539.0Q768 531 766 525Q765 523 763.0 521.5Q761 520 761 519Q761 517 761.5 514.0Q762 511 762 508Q761 504 758.5 499.5Q756 495 755 491Q754 485 755.0 478.5Q756 472 755 466Q753 459 748.0 455.0Q743 451 742 444Q741 440 743.5 437.5Q746 435 746 432Q745 429 740.5 416.0Q736 403 734 402Q731 400 728.0 401.5Q725 403 723 401Q717 388 710.0 375.0Q703 362 697 348Q694 343 692.0 336.5Q690 330 687 324Q685 321 681.5 318.0Q678 315 677 312Q674 304 674.0 292.5Q674 281 666 275Q664 274 660.0 272.5Q656 271 655 270Q660 263 658.5 256.5Q657 250 653 243Q648 237 643.5 235.0Q639 233 640 222Q640 219 642.0 216.0Q644 213 643 211Q642 208 639.5 206.0Q637 204 635 201Q633 195 631.5 187.5Q630 180 628 174Q625 167 621.0 157.5Q617 148 614 142Q610 135 604.0 128.0Q598 121 595 114Q594 109 594.5 104.0Q595 99 593 92Q587 74 579.0 64.5Q571 55 573 33Q574 28 576.5 18.5Q579 9 570 7Q559 4 556.0 16.5Q553 29 547 27Q542 24 542.0 19.0Q542 14 539 9Q537 6 535.0 4.5Q533 3 531 1Q524 -12 522.5 -27.0Q521 -42 522 -56L518 -60L524 -64H501Q505 -60 503.5 -59.0Q502 -58 501 -54Q501 -52 501.5 -49.0Q502 -46 501 -43Q500 -39 494.5 -36.5Q489 -34 488 -28Q487 -25 488.5 -19.5Q490 -14 489 -8Q488 -2 485.0 3.0Q482 8 481 13Q480 20 482.0 27.5Q484 35 478 39L473 37Q471 31 470.0 20.5Q469 10 458 14Q449 16 451.5 28.0Q454 40 453 46Q451 55 442.0 66.5Q433 78 430 89Q427 106 428.0 112.5Q429 119 419 136Q414 145 409.0 155.0Q404 165 400 174Q398 180 396.5 187.5Q395 195 393 201Q391 204 388.5 206.0Q386 208 385 211Q384 213 385.5 216.0Q387 219 388 222Q389 233 384.5 235.0Q380 237 375 243Q370 250 369.0 256.5Q368 263 372 270Q372 271 368.0 272.5Q364 274 362 275Q355 280 354.0 292.0Q353 304 351 312Q350 315 346.5 318.0Q343 321 341 324Q338 330 336.0 336.5Q334 343 331 348Q325 362 318.0 375.0Q311 388 305 401Q303 403 300.0 401.5Q297 400 293 402Q292 403 287.0 416.0Q282 429 282 432Q282 435 284.5 437.5Q287 440 286 444Q285 451 280.0 455.0Q275 459 273 466Q272 472 273.0 478.5Q274 485 273 491Q272 495 269.5 499.5Q267 504 266 508Q266 511 266.5 514.0Q267 517 267 519Q267 520 264.5 522.5Q262 525 261 529Q260 534 261.0 540.5Q262 547 263 552Q266 561 273.5 571.5Q281 582 262 579Q255 578 246.0 574.0Q237 570 229 569Q221 568 210.0 568.5Q199 569 190 567Q187 566 180.0 561.0Q173 556 169 554Q155 549 153.0 554.5Q151 560 141 562Q137 563 126.5 563.0Q116 563 112 561Q108 559 99.0 551.5Q90 544 85 555Q82 561 83.5 565.0Q85 569 78 576Q77 578 66.0 586.0Q55 594 54 595Q47 596 42.0 592.0Q37 588 31 592Q26 594 24.5 605.5Q23 617 29 621Q29 621 37.0 625.0Q45 629 46 629Q51 630 63.5 628.5Q76 627 83 628Q107 630 119.5 637.5Q132 645 151 652Q155 654 159.0 654.5Q163 655 167 656Q191 666 214.0 678.0Q237 690 262 700Q272 703 282.0 706.5Q292 710 303 712Q308 714 308.0 720.0Q308 726 312 730Q316 732 319.0 732.0Q322 732 325 734Q328 737 325.0 742.0Q322 747 329 753Q333 757 338.0 757.0Q343 757 346 762Q344 768 343.0 774.5Q342 781 341 787Q323 853 279.0 887.5Q235 922 167 928Q154 929 140.0 928.5Q126 928 113 930Q111 930 104.0 931.5Q97 933 100 936Q112 939 125.0 944.0Q138 949 151 951Q221 966 295.5 953.0Q370 940 417 879ZM463 205Q466 205 474.5 200.0Q483 195 486 193Q493 188 499.0 179.5Q505 171 512 171Q522 170 527.0 177.5Q532 185 539 191Q545 196 556.5 202.5Q568 209 573 199Q577 193 572.0 188.0Q567 183 565 178Q563 174 561.0 168.5Q559 163 556 158Q553 152 547.5 146.5Q542 141 539 135Q534 127 531.0 116.0Q528 105 516 104Q501 103 497.5 114.5Q494 126 490 135Q486 140 481.0 145.5Q476 151 472 157Q469 162 467.5 167.5Q466 173 463 178Q461 183 456.5 188.0Q452 193 455 199Q456 201 458.5 203.0Q461 205 463 205ZM451 243Q448 240 443.0 241.5Q438 243 436 248Q434 254 435.5 275.0Q437 296 440 303Q442 307 445.0 310.5Q448 314 450 318Q454 329 464.5 366.5Q475 404 475 415Q476 429 475.0 443.0Q474 457 475 470Q476 477 478.5 484.5Q481 492 482 500Q483 508 483.5 522.5Q484 537 489 542Q492 546 496.0 545.5Q500 545 502 540Q506 529 500.0 504.0Q494 479 493 465Q491 450 492.0 433.0Q493 416 491 400Q489 394 486.5 389.5Q484 385 483 379Q478 364 475.0 347.5Q472 331 467 316Q465 308 460.0 301.5Q455 295 454 290Q452 283 453.5 265.0Q455 247 451 244ZM577 243Q573 247 574.5 265.0Q576 283 575 290Q573 295 570.0 298.0Q567 301 565 306Q562 311 561.0 318.5Q560 326 558 332Q554 347 547.0 366.0Q540 385 537 400Q535 415 536.0 432.5Q537 450 535 465Q534 480 529.5 496.5Q525 513 525 529Q525 532 525.5 538.0Q526 544 531 545Q544 547 544.5 526.5Q545 506 546 498Q547 491 549.5 483.5Q552 476 553 468Q554 456 553.0 442.0Q552 428 553 415Q553 403 563.0 366.5Q573 330 578 317Q580 314 583.5 310.5Q587 307 588 304Q590 301 591.0 289.5Q592 278 592 273Q592 269 592.5 260.0Q593 251 592 248Q591 243 585.5 241.5Q580 240 577 243ZM440 554Q442 552 446.5 552.0Q451 552 454 551Q459 550 471.0 543.0Q483 536 474 529Q465 522 460.0 529.5Q455 537 447 534Q444 533 444.5 525.5Q445 518 446 515Q453 512 461.5 508.0Q470 504 468 495Q466 484 460.0 488.5Q454 493 450 495Q445 498 439.0 499.5Q433 501 430 508Q429 518 428.5 528.0Q428 538 425 548Q421 560 412.0 571.0Q403 582 427 584Q428 589 426.5 591.5Q425 594 422 597Q414 608 402.0 618.0Q390 628 381 637Q377 643 381.5 647.0Q386 651 384 657Q383 662 372.0 662.5Q361 663 361 672Q362 692 385.5 676.5Q409 661 412 653Q415 647 412.5 644.5Q410 642 408 638Q407 634 419.5 623.0Q432 612 436 607Q442 600 445.5 589.0Q449 578 444 569Q442 566 438.5 562.0Q435 558 440 554ZM646 636Q637 627 625.5 617.0Q614 607 606 597Q603 594 601.5 591.5Q600 589 601 585Q625 581 617.5 573.5Q610 566 608 557Q607 554 608.0 551.5Q609 549 609 546Q608 542 604.5 538.0Q601 534 600 530Q598 521 600.5 513.5Q603 506 593 500Q591 499 582.5 495.5Q574 492 572 491Q568 490 564.0 490.5Q560 491 559 496Q558 507 570.0 509.5Q582 512 583 524Q584 532 577.5 532.5Q571 533 571 541Q571 550 579.5 552.5Q588 555 590 560Q592 565 589.5 565.5Q587 566 585 568Q579 578 582.5 589.0Q586 600 593 608Q596 613 608.5 623.5Q621 634 620 638Q618 642 615.5 644.5Q613 647 616 653Q619 661 642.5 676.5Q666 692 667 672Q667 663 656.0 662.5Q645 662 644 657Q642 651 646.5 646.5Q651 642 646 637ZM522 265Q516 258 523.0 251.5Q530 245 528 239Q527 233 514.0 233.0Q501 233 499 241Q499 245 504.0 248.5Q509 252 505 259Q503 262 498.0 266.0Q493 270 490 271Q486 273 475.5 275.5Q465 278 472 287Q477 294 484.0 290.5Q491 287 496 286Q505 286 498.5 295.5Q492 305 492 306Q492 311 497.5 312.5Q503 314 504 318Q507 328 504.5 352.0Q502 376 507 382Q510 385 513.5 385.0Q517 385 520 381Q524 376 523.0 369.5Q522 363 522 357Q522 348 522.0 339.0Q522 330 523 320Q527 314 533.5 325.5Q540 337 548 330Q556 318 542.0 311.0Q528 304 527 297Q527 292 534.5 291.0Q542 290 543 288Q549 280 537.0 274.0Q525 268 522 265ZM458 452Q460 449 462.0 442.5Q464 436 459 434Q452 431 445.5 437.5Q439 444 425 438Q421 436 421.0 428.5Q421 421 423 418Q424 416 435.5 413.0Q447 410 441 402Q436 394 427.5 398.5Q419 403 412 401Q407 400 406.5 387.0Q406 374 408 370Q411 365 424.0 359.0Q437 353 431 341Q426 329 420.0 339.5Q414 350 406 348Q402 346 403.0 335.0Q404 324 393 328L388 338Q391 366 390.0 386.5Q389 407 406 430Q408 432 410.5 433.0Q413 434 414 436Q415 440 413.0 444.0Q411 448 413 451Q423 454 436.0 457.5Q449 461 458 452ZM601 368Q599 365 597.0 357.5Q595 350 591 350Q579 352 581.5 365.5Q584 379 591 384Q599 389 613.5 385.5Q628 382 618 404Q607 425 602.0 414.0Q597 403 586 401Q572 399 576.5 410.5Q581 422 591 426Q596 429 598.5 427.5Q601 426 603 427Q606 428 607.0 432.0Q608 436 615 435Q620 435 628.0 420.5Q636 406 638 401Q635 386 639.0 366.5Q643 347 640 334Q638 326 632.0 325.5Q626 325 620 322Q616 321 614.0 318.0Q612 315 606 318Q604 321 603.0 324.0Q602 327 604 330Q608 340 619.0 341.0Q630 342 622 363Q620 369 612.5 370.5Q605 372 601 368ZM562 695Q567 692 564.0 687.0Q561 682 562 680Q562 676 566.0 673.5Q570 671 570 668Q566 661 558.5 643.5Q551 626 556 619Q558 616 563.0 615.0Q568 614 566 605Q565 601 557.0 592.5Q549 584 546 580Q542 575 538.5 568.0Q535 561 526 564Q514 569 527.5 584.5Q541 600 542 604Q542 607 540.0 609.5Q538 612 538 615Q536 625 539.0 634.5Q542 644 544 653Q546 663 542.5 664.5Q539 666 537 670Q536 676 545.0 689.5Q554 703 563 695ZM482 580Q478 585 470.0 593.0Q462 601 462 606Q461 615 465.5 615.5Q470 616 472 619Q477 626 470.0 643.5Q463 661 458 668Q458 671 461.5 673.0Q465 675 466 679Q467 682 464.0 687.0Q461 692 466 696Q476 701 484.0 688.5Q492 676 491 670Q489 666 485.5 664.5Q482 663 484 653Q486 644 489.0 634.5Q492 625 490 615Q490 612 488.0 609.5Q486 607 486 604Q487 599 500.0 585.0Q513 571 503 565Q494 559 489.5 567.5Q485 576 482 580ZM384 560Q391 552 393.0 538.0Q395 524 399 514Q405 498 412.0 488.0Q419 478 413 459Q412 455 410.0 453.0Q408 451 403 453Q397 456 398.0 465.5Q399 475 397 482Q396 488 392.5 492.0Q389 496 386 501Q382 511 379.5 524.5Q377 538 372 546Q371 548 362.0 556.0Q353 564 350 566Q344 571 337.5 573.0Q331 575 326 581L327 586Q334 593 341.5 591.5Q349 590 356 584Q360 581 370.5 572.5Q381 564 384 560ZM644 560Q647 563 657.5 572.0Q668 581 672 584Q679 590 686.5 591.5Q694 593 701 586L702 580Q697 575 690.5 573.0Q684 571 678 566Q675 564 666.0 555.5Q657 547 656 546Q651 538 649.0 524.5Q647 511 642 501Q639 496 635.5 492.0Q632 488 631 482Q629 476 629.5 465.0Q630 454 625 452Q614 449 613.5 464.0Q613 479 615 485Q617 493 622.0 499.5Q627 506 629 513Q633 524 635.0 538.0Q637 552 644 560ZM588 476Q593 476 600.5 473.5Q608 471 605 464Q602 458 596.5 458.5Q591 459 587 457Q580 454 577.0 442.0Q574 430 565 434Q557 438 561.5 448.5Q566 459 569 464Q573 469 577.5 472.5Q582 476 588 476ZM336 440Q348 442 356.0 429.0Q364 416 372 409Q374 404 370.5 400.5Q367 397 361 397Q355 398 350.5 405.5Q346 413 342 418Q340 420 335.5 423.0Q331 426 330 430Q329 433 330.5 436.0Q332 439 336 440ZM689 440Q694 440 696.5 438.0Q699 436 698 431Q698 427 693.0 424.0Q688 421 686 418Q681 413 677.0 405.0Q673 397 665 397Q657 397 655.5 400.5Q654 404 656 409Q664 416 670.5 427.5Q677 439 689 440ZM389 318Q392 319 405.0 312.0Q418 305 421 302Q427 296 425.0 289.0Q423 282 413 285Q413 285 403.0 292.0Q393 299 391 301Q387 304 384.5 310.5Q382 317 389 318ZM604 279Q599 288 608.0 296.0Q617 304 624 296Q630 289 621.0 281.0Q612 273 604 279Z"/></svg>