<svg xmlns="http://www.w3.org/2000/svg" viewBox="0 0 991.571 1024"><path transform="translate(-16,960) scale(1,-1)" d="M20 382Q14 381 17.0 447.5Q20 514 20 514Q20 521 20.5 529.0Q21 537 22 544Q37 635 84 711Q131 788 200.5 843.5Q270 899 355 930Q440 960 531 960Q587 960 645 945Q702 930 755.5 904.0Q809 878 855 841Q901 804 934 758Q936 756 938.0 755.5Q940 755 940 748Q940 746 939.5 745.5Q939 745 937 746Q916 763 894.5 780.0Q873 797 849 809Q766 854 676 856Q585 858 504.5 824.5Q424 791 362 726Q299 661 271 572Q247 497 248.5 436.0Q250 375 279 302Q311 217 375 157Q439 97 518.0 67.0Q597 37 685 41Q773 45 853 89Q878 103 894.0 118.0Q910 133 931 149Q933 150 935.0 150.5Q937 151 940 151Q941 149 932.5 138.0Q924 127 922 125Q893 89 852 56Q811 24 765.0 -1.0Q719 -26 670 -42Q620 -57 573 -59Q571 -59 555.5 -61.5Q540 -64 525 -64Q506 -64 492.0 -62.0Q478 -60 476 -60Q421 -57 366 -38Q311 -19 261.0 12.0Q211 43 168 83Q126 123 96 169Q66 216 45.0 271.5Q24 327 19 382ZM952 502Q911 529 862 544Q814 559 763.5 562.5Q713 566 662 558Q612 551 567 532Q531 518 517.0 505.0Q503 492 481 463Q478 459 476.5 453.0Q475 447 475 441Q475 440 475.5 436.0Q476 432 490 412Q492 409 496.0 403.5Q500 398 503 393Q531 356 594.5 344.5Q658 333 703 330Q732 329 768 332Q804 335 840.0 343.0Q876 351 908 365Q940 379 961 400Q969 409 973.0 412.5Q977 416 988 435Q989 437 990.5 442.5Q992 448 991 455Q989 464 976.0 478.5Q963 493 952 502ZM1005 464Q1008 454 1007.5 445.0Q1007 436 1005 428Q999 406 981.0 384.5Q963 363 943 352Q886 320 824.0 309.5Q762 299 696 302Q665 304 627 312Q589 319 554.5 334.5Q520 350 493 374Q465 398 455 432Q452 441 452.0 446.5Q452 452 455 461Q465 495 493 519Q521 543 556.0 558.5Q591 574 630 582Q668 589 699 591Q764 594 825.5 583.0Q887 572 943 540Q963 529 981.0 507.5Q999 486 1005 464ZM717 533Q645 523 650.0 446.0Q655 369 732 371Q773 372 792 399Q811 427 809.0 458.5Q807 490 784 514Q761 538 717 533ZM725 554Q787 557 819.0 503.5Q851 450 818 398Q807 381 788.0 366.5Q769 352 749 350Q692 343 662 373Q631 403 627.5 442.5Q624 482 648 517Q672 551 725 554ZM738 515Q739 514 742.5 497.0Q746 480 746 477Q747 466 747.0 450.5Q747 435 746 425Q746 420 742.5 404.0Q739 388 736 386Q726 379 723.0 388.5Q720 398 718 405Q715 422 714.5 444.5Q714 467 716 484Q717 490 719.5 503.5Q722 517 729 519Q731 519 734.5 517.5Q738 516 738 515Z"/></svg>