<svg xmlns="http://www.w3.org/2000/svg" viewBox="0 0 1009.38 1024.4"><path transform="translate(-7.11765,960.449) scale(1,-1)" d="M510 143Q508 144 506.0 142.5Q504 141 502 140Q499 138 488.5 130.5Q478 123 477 121Q472 116 472.0 111.0Q472 106 481 107Q486 108 499.5 124.5Q513 141 510 143ZM647 256Q616 229 597.5 193.0Q579 157 559 121Q557 118 552.0 112.5Q547 107 553 102Q562 94 592.0 94.0Q622 94 635 95Q639 95 647.0 96.0Q655 97 657 100V253Q657 258 654.0 258.5Q651 259 647 256ZM710 271Q706 273 703.0 271.0Q700 269 697 267Q694 267 692.0 266.0Q690 265 689 264Q688 260 689.0 255.5Q690 251 692 247Q694 241 695.5 234.5Q697 228 701 222L740 100L742 97H747Q757 101 768.0 104.0Q779 107 789 111Q803 114 816.5 117.5Q830 121 827 141L710 271ZM1010 588 1015 561Q1015 561 1016.0 552.5Q1017 544 1016 544Q999 527 950 488Q901 449 849.5 409.0Q798 369 758 338Q718 308 718 308Q715 300 725.5 290.0Q736 280 741 273Q769 240 796.5 207.0Q824 174 853 142Q861 126 854.5 115.5Q848 105 835 97Q806 78 744.5 68.5Q683 59 648 58Q607 57 554.0 62.0Q501 67 462 78Q455 80 449.0 83.5Q443 87 435 85Q431 85 421.0 74.5Q411 64 406 61Q374 35 341.5 9.5Q309 -16 277 -42Q262 -53 253.0 -59.5Q244 -66 224 -63Q197 -58 164.0 -48.0Q131 -38 103 -32Q91 -29 76.0 -25.0Q61 -21 50 -19Q43 -18 32.0 -19.0Q21 -20 17 -14Q14 -10 9.5 9.0Q5 28 9 32Q11 34 19.0 37.0Q27 40 30 43Q95 83 159 124Q222 165 286.0 206.0Q350 247 414 288Q477 329 541 369Q586 398 630.5 425.0Q675 452 719 480Q763 508 805.5 537.0Q848 566 891 593Q896 596 900.5 598.5Q905 601 908 603Q910 604 913.0 607.0Q916 610 919 611Q923 613 934.5 608.5Q946 604 951 603Q963 600 976.0 597.5Q989 595 1001 593Q1003 592 1005.5 591.0Q1008 590 1010 588ZM521 474Q524 479 517.0 484.5Q510 490 507 493Q481 522 458.5 557.0Q436 592 418 626Q403 656 389 696Q375 737 365.0 780.5Q355 824 351 866Q347 908 351 941Q352 955 360.0 959.0Q368 963 376 950Q375 934 375.5 917.5Q376 901 376 884Q376 842 384 799Q392 757 406.0 716.5Q420 676 439 637Q458 598 481 563Q490 548 509.0 523.0Q528 498 541 487Q549 479 559.0 476.0Q569 473 578 460Q584 452 579.5 448.5Q575 445 570 439Q502 423 432.5 411.0Q363 399 294 386Q281 383 267.0 378.5Q253 374 243 389Q240 392 238.0 398.0Q236 404 236 407Q236 411 238.5 414.0Q241 417 238 420L198 462Q169 498 146 537Q123 575 105.0 615.5Q87 656 74 699Q60 742 50 787Q43 822 41.0 860.5Q39 899 40 935Q40 949 49.0 957.5Q58 966 66 950Q65 916 64.5 883.0Q64 850 70 817Q77 768 94 715Q110 663 133.5 612.5Q157 562 187 517Q217 471 252 436Q257 432 262.5 429.0Q268 426 274 427Q325 436 376.0 447.0Q427 458 478 467Q483 468 500.5 469.5Q518 471 521 474Z"/></svg>