<svg xmlns="http://www.w3.org/2000/svg" viewBox="0 0 998.679 1024.37"><path transform="translate(-12.5714,960.095) scale(1,-1)" d="M569 412Q570 411 583.0 404.0Q596 397 597 397Q599 397 608.0 397.5Q617 398 619 398Q633 401 657.0 414.0Q681 427 689 438Q695 446 699.0 461.5Q703 477 704 487Q706 501 709.0 529.5Q712 558 712 561Q713 565 715.5 575.5Q718 586 720 589Q722 594 723.0 600.0Q724 606 729 611Q727 617 722.5 615.5Q718 614 714 615Q704 617 688.0 621.5Q672 626 662 629Q645 635 624.5 649.5Q604 664 587 668Q564 674 544.5 670.5Q525 667 506 651Q487 636 479.5 612.5Q472 589 482 565Q485 560 493.0 548.0Q501 536 506 533Q506 533 513.0 530.0Q520 527 521 527Q526 526 533.0 527.0Q540 528 543 522V518Q532 512 521.5 508.0Q511 504 499 503Q484 502 473.0 505.0Q462 508 448 511L425 538L419 530L496 387H502L505 393Q502 402 498.0 410.0Q494 418 494 428Q493 437 500.5 451.5Q508 466 512 476L546 497L550 494Q552 489 547.0 479.0Q542 469 543 460Q545 452 553.5 434.5Q562 417 568 412ZM428 219Q428 219 427.5 218.0Q427 217 425 216Q421 214 412.0 209.5Q403 205 400 206Q391 207 381.5 213.5Q372 220 367 227Q345 261 325 297Q305 333 286.0 369.5Q267 406 247 442Q227 477 204 511Q201 520 201.5 528.5Q202 537 207 546Q213 556 224.5 559.5Q236 563 246 568Q301 597 355 629Q410 660 465.0 692.0Q520 724 574 756Q628 788 682 820Q691 825 696.5 828.5Q702 832 712 836Q722 841 732.0 850.5Q742 860 754 858Q766 856 772.5 850.5Q779 845 785 836Q806 805 824.5 768.5Q843 732 862 699Q883 663 904.5 626.5Q926 590 948 555Q952 546 950.0 534.0Q948 522 941 515Q937 511 932.0 509.5Q927 508 922 505Q861 469 799 433Q737 398 675.0 362.5Q613 327 552 291Q490 255 428 219ZM189 879Q194 871 190.0 865.0Q186 859 185 852Q168 794 153 736Q137 678 122.0 619.5Q107 561 92 503Q77 444 62 386Q56 362 49.5 345.5Q43 329 56 304Q60 295 65.5 290.0Q71 285 80 282Q89 279 95.5 278.5Q102 278 110 276Q115 275 119.5 271.5Q124 268 128 268Q133 267 136.5 268.0Q140 269 143 268Q147 267 153.0 263.0Q159 259 164 258Q195 251 226.0 243.0Q257 235 288 230Q292 229 297.5 226.0Q303 223 308 223Q313 223 315.0 224.5Q317 226 321 226Q325 225 333.0 219.0Q341 213 335 209Q331 206 305.5 208.0Q280 210 272 210Q232 211 192.0 210.0Q152 209 112 209Q101 209 88.5 208.5Q76 208 66 209Q50 210 41.0 223.0Q32 236 32 250Q33 323 33 395Q34 468 34.5 540.0Q35 612 35 685Q35 757 33 830Q33 847 39.0 862.0Q45 877 64 879Q77 881 96.5 879.5Q116 878 130 878Q145 878 159.5 878.0Q174 878 189 879ZM36 -20Q31 -17 28.5 -22.0Q26 -27 26 -27Q25 -36 27.5 -42.0Q30 -48 36 -50Q46 -50 43.5 -36.5Q41 -23 36 -20ZM126 -13Q130 -9 131.0 3.0Q132 15 126 16Q119 14 85.0 2.0Q51 -10 49 -13Q46 -18 51.0 -29.0Q56 -40 60 -39L126 -13ZM976 365 965 359Q962 358 946.0 353.0Q930 348 920 342Q911 336 916.5 326.5Q922 317 931 318Q936 319 956.0 326.0Q976 333 979 335Q989 340 986.5 353.0Q984 366 976 364ZM997 378Q1001 373 1004.5 361.5Q1008 350 1009 349Q1012 341 1011.0 338.0Q1010 335 1010 335Q1003 323 986.5 319.5Q970 316 958 311Q846 264 734 218Q622 172 509.0 126.0Q396 80 284 35Q171 -10 58 -55Q50 -57 42.5 -62.0Q35 -67 26 -61Q19 -57 14.5 -38.0Q10 -19 16 -13Q22 -6 27.5 -5.0Q33 -4 40 -2Q152 46 264 92Q377 138 489.5 183.5Q602 229 714 274Q827 319 940 365Q951 369 962.5 374.5Q974 380 985 385Q985 385 985.0 385.0Q985 385 986 385Q986 385 987.0 385.0Q988 385 989 384Q991 382 993.5 380.0Q996 378 996 378ZM221 570 222 577Q255 606 285.0 637.5Q315 669 346 700Q386 740 426.5 779.5Q467 819 507 858Q518 870 529.5 882.5Q541 895 552 906Q559 913 566.5 919.5Q574 926 580 933Q587 938 600.0 936.0Q613 934 619 930Q622 927 623.5 923.5Q625 920 627 917Q642 901 657.5 886.5Q673 872 688 856Q691 852 694.5 851.0Q698 850 697 842Q696 837 686.0 833.5Q676 830 672 828Q622 802 572 773Q522 745 472.5 716.0Q423 687 374 657Q324 628 276 599Q266 594 253.5 584.5Q241 575 232 571Q229 570 226.5 569.5Q224 569 221 570ZM499 869Q454 826 410 782Q366 738 322.0 693.5Q278 649 235 604Q191 559 147 515Q135 508 140.5 519.0Q146 530 149 535Q176 582 204 630Q231 677 259.0 724.0Q287 771 315 818Q343 865 371 912Q378 924 385.0 940.5Q392 957 407 960Q419 961 436.5 951.5Q454 942 465 936Q476 930 485.5 923.0Q495 916 506 911Q510 908 517.0 906.0Q524 904 525 898Q526 890 520.0 887.5Q514 885 510 882Q507 879 504.5 875.5Q502 872 499 869ZM98 474Q95 477 103.0 500.0Q111 523 112 529Q125 573 136 617Q148 662 159.5 706.5Q171 751 183 795Q195 840 208 884Q213 900 217.0 918.0Q221 936 243 938Q253 939 258.0 936.0Q263 933 271 931Q275 930 279.0 930.5Q283 931 287 930Q298 927 301.5 924.5Q305 922 320 920Q323 920 334.0 916.0Q345 912 346 911Q353 906 344.0 894.0Q335 882 332 876Q312 841 291 806Q271 771 250.5 735.5Q230 700 210 665Q189 630 169 595Q155 569 141.0 540.5Q127 512 112 488Q111 487 105.5 479.5Q100 472 98 474ZM257 335 260 328Q271 322 280.5 309.0Q290 296 299 289Q302 286 306.5 285.0Q311 284 314 281Q317 279 319.5 274.5Q322 270 325 267Q331 261 342.0 250.5Q353 240 342 232Q341 232 336.0 237.5Q331 243 330 244Q296 271 250.5 295.0Q205 319 166 341Q149 351 129.5 361.5Q110 372 93 382Q73 395 84.5 417.5Q96 440 103 454Q108 462 112.5 472.0Q117 482 124 489Q129 491 129.0 481.5Q129 472 130 468Q133 456 141.5 448.5Q150 441 157 433Q182 408 206.5 383.0Q231 358 257 335ZM80 384Q80 384 81.0 381.0Q82 378 83 377Q92 366 118.5 352.5Q145 339 159 331Q185 316 210.5 300.5Q236 285 262 270Q273 264 287.5 257.5Q302 251 312 245Q314 243 317.5 240.0Q321 237 319 234Q315 226 305.5 232.5Q296 239 290 241Q259 249 226.0 256.5Q193 264 162 274Q157 276 152.0 279.0Q147 282 143 282Q139 283 136.5 282.0Q134 281 130 281Q127 282 122.0 285.5Q117 289 113 290Q104 292 96.0 292.0Q88 292 77 299Q69 304 63.5 312.5Q58 321 58 331Q59 335 65.5 358.5Q72 382 74 383Q75 384 77.0 384.5Q79 385 80 384ZM189 538Q189 530 189.0 522.5Q189 515 193 508Q219 459 250.0 411.5Q281 364 307 315Q309 312 312.5 304.5Q316 297 311 294Q310 294 305.5 299.0Q301 304 299 305Q266 344 228.5 380.0Q191 416 155 451Q131 474 140.5 489.5Q150 505 168 522Q173 526 177.0 532.0Q181 538 189 538Z"/></svg>