<svg xmlns="http://www.w3.org/2000/svg" viewBox="0 0 1024 847.571"><path transform="translate(0,871.571) scale(1,-1)" d="M465 749Q481 748 497.5 747.5Q514 747 531 748Q535 748 540.0 749.5Q545 751 549 748L553 742Q551 693 552.0 643.5Q553 594 548 545L549 527Q542 473 540.5 417.0Q539 361 536 306Q535 303 534.5 295.5Q534 288 533 286Q531 279 512.5 281.5Q494 284 487 283L482 292Q482 314 480.5 336.0Q479 358 478 380Q474 439 468.5 498.5Q463 558 461 617Q461 641 461.5 664.5Q462 688 461 712Q461 719 459.0 733.0Q457 747 465 749ZM1019 470Q1020 469 1022.0 466.5Q1024 464 1024 462L1018 420L806 418Q802 419 801.0 428.0Q800 437 799 442Q799 448 799.0 456.5Q799 465 802 470ZM730 199Q763 167 794.0 134.5Q825 102 859 71Q863 68 867.0 61.0Q871 54 868 50Q868 48 855.0 37.5Q842 27 840 26Q829 21 827.0 28.5Q825 36 821 41Q819 43 814.0 44.5Q809 46 806 50Q804 52 803.5 56.0Q803 60 800 62Q798 64 794.5 64.5Q791 65 789 67Q786 69 784.5 74.0Q783 79 780 82Q778 84 772.5 86.5Q767 89 765 91Q763 94 762.5 97.0Q762 100 759 103Q756 106 751.5 107.5Q747 109 745 111Q743 114 742.5 117.0Q742 120 740 122Q738 124 733.0 127.0Q728 130 724 134Q722 137 721.0 139.5Q720 142 718 145Q715 147 711.0 148.5Q707 150 704 152Q701 154 700.5 158.0Q700 162 698 164Q696 166 688.5 168.0Q681 170 685 177Q686 179 688.0 180.0Q690 181 691 182Q695 187 702.0 197.0Q709 207 715 209Q717 211 722.5 206.0Q728 201 730 199ZM0 470 7 466V470H199Q200 470 201.0 468.0Q202 466 202 465Q200 454 199.0 443.0Q198 432 200 422Q195 417 189.5 418.5Q184 420 178 420Q142 421 104.5 421.0Q67 421 30 420Q26 420 17.0 418.5Q8 417 7 424Q6 426 7.5 432.0Q9 438 5 441L0 420V470ZM189 869Q193 870 196.0 868.0Q199 866 202 864Q210 858 220.0 845.5Q230 833 238 826Q258 806 279.0 784.5Q300 763 320 744Q323 741 330.0 738.0Q337 735 334 730Q333 726 316.0 713.0Q299 700 296 700Q288 704 283.5 711.5Q279 719 274 724Q272 727 267.5 729.0Q263 731 261 733Q259 736 258.5 739.0Q258 742 256 744Q253 747 248.0 748.5Q243 750 240 754Q238 756 237.5 759.5Q237 763 235 765Q233 767 229.0 768.0Q225 769 223 771Q220 774 218.0 778.5Q216 783 212 786Q209 789 204.5 791.0Q200 793 198 796Q196 798 195.5 801.5Q195 805 193 807Q191 809 185.0 813.5Q179 818 174 822Q171 825 166.0 828.0Q161 831 162 837Q162 839 174.5 853.5Q187 868 189 869ZM844 869Q845 867 846.5 864.0Q848 861 850 859Q855 854 860.5 850.0Q866 846 861 836Q826 803 792.5 769.0Q759 735 725 702Q722 699 718.0 693.0Q714 687 709 689Q704 691 695.0 702.5Q686 714 682 718Q682 724 690.0 729.5Q698 735 702 738Q735 770 766.5 803.5Q798 837 831 869Q834 872 837.5 871.5Q841 871 844 869ZM319 177Q330 164 321.5 158.5Q313 153 304 144Q280 120 256.5 96.5Q233 73 209 49Q205 45 199.5 36.5Q194 28 187 29Q182 31 169.5 45.0Q157 59 161 65L291 194Q299 199 301.0 194.5Q303 190 307 186Q310 184 313.5 181.5Q317 179 319 177ZM467 134Q460 136 462.0 143.5Q464 151 464 156Q464 165 464.0 175.0Q464 185 464 195Q464 200 462.0 207.0Q460 214 463 218Q467 222 473.5 220.5Q480 219 485 219Q495 218 505.0 218.0Q515 218 524 219Q529 219 537.5 220.5Q546 222 549 219Q551 216 550.5 188.5Q550 161 550 154Q550 151 551.5 142.5Q553 134 547 134H467Z"/></svg>