<svg xmlns="http://www.w3.org/2000/svg" viewBox="0 0 1018 1024"><path transform="translate(-3,960) scale(1,-1)" d="M1021 917H996Q995 917 988.5 913.0Q982 909 980 908Q966 898 953.0 876.5Q940 855 935 839Q915 780 913.5 704.0Q912 628 918 567Q918 562 921.0 550.5Q924 539 922 536Q917 526 901.5 537.0Q886 548 881 550Q873 553 861.0 555.5Q849 558 846 558Q842 558 834.0 558.0Q826 558 822 557Q818 557 807.0 553.5Q796 550 794 550Q783 548 773.0 544.0Q763 540 754 535Q752 529 749.0 523.0Q746 517 744 512Q723 457 704.0 402.0Q685 347 664 292Q661 284 658.0 276.5Q655 269 652 262Q652 256 665.0 255.5Q678 255 683 254Q713 248 751 237Q788 227 823.5 210.0Q859 193 888 170Q916 147 928 115Q940 83 949.5 46.5Q959 10 971 -24Q974 -34 978.5 -44.0Q983 -54 985 -64H32L35 -62Q35 -62 34.5 -60.5Q34 -59 34 -57Q45 -26 57.0 7.5Q69 41 78 73Q84 94 86.0 108.5Q88 123 102 142Q137 191 208.0 216.5Q279 242 335 254Q341 255 351.5 255.0Q362 255 362 263Q360 271 356.0 278.5Q352 286 349 293Q347 300 345.0 308.0Q343 316 340 323Q321 376 300.5 428.5Q280 481 262 535Q255 538 246.5 542.5Q238 547 230 548Q227 549 212.5 553.0Q198 557 195 557Q192 557 183.5 557.0Q175 557 172 557Q168 557 155.0 554.5Q142 552 138 550Q130 547 122.0 540.5Q114 534 105 532Q91 530 95.0 542.5Q99 555 99 562Q103 593 106 636Q108 680 105.5 724.5Q103 769 95 810Q87 851 70 879Q69 880 64.0 886.0Q59 892 58 894Q54 899 43.5 907.5Q33 916 28 916H3Q3 925 12.0 930.0Q21 935 28 940Q35 946 41.0 952.5Q47 959 56 959Q70 958 90.5 951.0Q111 944 121 935Q169 889 185.0 814.5Q201 740 203 675Q203 671 202.5 658.5Q202 646 205 644Q210 646 215.5 645.0Q221 644 226 644Q229 644 236.5 643.5Q244 643 246 643Q250 642 267.5 640.0Q285 638 290 637Q295 636 303.0 633.0Q311 630 315 630Q321 631 336.5 641.5Q352 652 360 655Q399 674 444 681Q488 688 533.0 684.5Q578 681 621 667Q664 653 700 629Q707 630 714.5 632.5Q722 635 729 637Q734 638 744.0 641.0Q754 644 758 644Q762 644 771.0 645.5Q780 647 783 647Q786 648 797.5 647.0Q809 646 814 644Q816 646 816.5 671.5Q817 697 817 702Q821 742 830.0 787.0Q839 832 855 868Q866 890 885.5 915.5Q905 941 930 951Q933 952 951.0 956.0Q969 960 971 960Q973 960 974.0 959.5Q975 959 976 958Q979 957 998.5 941.0Q1018 925 1019 923Q1020 922 1020.5 920.0Q1021 918 1021 917Z"/></svg>