<svg xmlns="http://www.w3.org/2000/svg" viewBox="0 0 954.903 1023.9"><path transform="translate(-34.2222,959.667) scale(1,-1)" d="M218 439Q224 444 222.0 452.5Q220 461 220 468Q220 475 221.5 488.5Q223 502 219 508Q218 511 214.5 511.5Q211 512 208 510Q205 506 206.5 489.5Q208 473 208 466Q208 459 206.0 452.0Q204 445 211 438Q212 436 214.5 436.5Q217 437 218 439ZM421 88Q417 91 417.0 101.5Q417 112 416 117Q415 128 397.0 153.0Q379 178 368 184Q356 191 346.5 191.5Q337 192 329 205Q322 217 316.5 227.5Q311 238 297 244Q291 247 289.0 243.0Q287 239 287 234Q287 229 292.5 209.5Q298 190 300 184Q307 168 328.5 138.0Q350 108 362 93Q366 87 372.0 82.0Q378 77 382 70Q385 65 387.0 59.5Q389 54 391 50Q395 45 407.0 35.0Q419 25 418 18Q417 9 398.0 3.0Q379 -3 371 -2Q356 -1 333.0 15.5Q310 32 294 27Q286 24 287.0 14.0Q288 4 286 -3Q285 -10 282.0 -17.0Q279 -24 277 -30Q273 -43 273.0 -51.5Q273 -60 253 -62Q247 -63 242.5 -61.5Q238 -60 234 -60Q228 -61 225.0 -63.5Q222 -66 215 -60Q199 -45 192.5 -28.0Q186 -11 180 9Q177 16 177.0 21.0Q177 26 171 31Q167 33 159.0 36.5Q151 40 147 40Q122 42 116.0 24.0Q110 6 98 -8Q87 -20 73.5 -21.0Q60 -22 52 -5Q47 6 50.5 14.0Q54 22 46 32Q42 37 37.0 40.0Q32 43 36 51Q38 55 46.0 60.5Q54 66 58 72Q67 86 74.0 103.5Q81 121 88 135Q99 156 109.5 172.5Q120 189 123 214Q124 221 122.5 227.0Q121 233 122 239Q124 321 124 404Q125 487 124.5 569.5Q124 652 123 735Q121 817 120 899L122 936Q124 938 125.0 939.5Q126 941 128 942Q129 943 136.5 947.0Q144 951 145 952Q155 955 165.0 949.5Q175 944 180 934Q179 922 179.0 910.5Q179 899 179 887Q178 870 175.0 838.5Q172 807 179 793Q182 786 187.0 783.5Q192 781 193 770Q195 752 195.0 698.5Q195 645 190 631Q184 610 176.0 592.0Q168 574 166 550Q164 521 164.5 485.5Q165 450 166 421Q168 369 177.0 319.5Q186 270 183 217Q182 210 180.0 203.5Q178 197 177 190Q176 175 175.5 156.5Q175 138 168 124Q167 122 164.5 120.0Q162 118 161 116Q160 112 161.5 108.0Q163 104 168 104Q176 103 182.5 122.5Q189 142 190 149Q194 189 197.0 228.5Q200 268 194 308Q185 365 180.5 429.0Q176 493 181 552Q183 575 194.0 600.0Q205 625 210 647Q206 677 210.0 712.0Q214 747 210 775Q208 786 198.5 793.5Q189 801 188 813Q188 840 190.5 868.5Q193 897 194 925Q194 929 193.0 936.0Q192 943 201 943Q208 943 214.5 941.5Q221 940 224 933Q226 926 226.5 910.5Q227 895 228 887Q228 870 227.0 852.5Q226 835 228 819Q230 800 240.0 785.0Q250 770 251 748Q253 721 248.5 671.5Q244 622 236 596Q233 586 225.5 569.5Q218 553 223 542Q226 536 234.0 526.5Q242 517 243 511Q246 496 244.0 463.0Q242 430 235 417Q232 412 226.5 408.0Q221 404 220 398Q220 393 221.0 388.0Q222 383 222 378Q222 352 219.5 326.0Q217 300 219 274Q221 246 231.5 225.0Q242 204 244 176Q245 163 243.0 144.0Q241 125 244 114Q245 108 252.5 98.5Q260 89 268 91Q276 94 267.0 106.0Q258 118 257 123Q254 138 256.0 159.5Q258 181 256 198Q255 212 248.5 223.5Q242 235 238 248Q229 278 232.5 311.5Q236 345 237 376Q237 381 235.5 385.0Q234 389 235 394Q236 398 243.0 405.0Q250 412 253 419Q258 433 259.0 472.5Q260 512 254 525Q250 535 244.0 539.0Q238 543 238 558Q239 571 246.5 585.5Q254 600 256 614Q261 648 263.5 688.0Q266 728 264 763Q262 776 258.0 781.5Q254 787 250 798Q238 823 241.0 858.5Q244 894 240 923Q240 927 238.0 930.0Q236 933 236 936Q236 940 243.0 949.0Q250 958 255 959Q261 961 275.0 957.0Q289 953 289 943V261Q289 261 290.0 260.0Q291 259 291 259Q306 256 317.0 247.5Q328 239 336 226Q339 222 340.0 217.0Q341 212 345 209Q348 206 352.0 206.0Q356 206 360 205Q387 195 409.5 161.5Q432 128 434 101Q435 96 434.5 93.0Q434 90 430 87Q429 85 425.5 85.5Q422 86 421 88ZM656 908Q655 916 654.0 924.0Q653 932 659 939Q661 941 665.0 939.0Q669 937 671 936Q675 936 678.0 937.5Q681 939 686 937Q693 934 691.5 924.5Q690 915 691 911Q694 903 703.0 897.0Q712 891 713 881Q712 855 714.0 826.5Q716 798 713 772Q711 742 699.0 718.0Q687 694 690 662Q691 646 697.0 634.5Q703 623 707 609Q711 593 711.0 558.5Q711 524 707 508Q704 493 697.5 474.0Q691 455 694 440Q697 427 699.5 417.5Q702 408 703 394Q703 386 701.0 377.0Q699 368 703 359Q717 353 717.0 372.0Q717 391 717 399Q716 411 713.5 422.5Q711 434 708 445Q706 457 715.0 483.5Q724 510 726 524Q728 538 726.5 570.0Q725 602 720 616Q718 625 712.0 635.0Q706 645 705 653Q700 681 711.0 707.0Q722 733 728 759Q725 790 728.0 823.5Q731 857 728 887Q727 899 713.0 907.0Q699 915 706 930Q713 934 718.0 928.5Q723 923 729 922Q736 921 748.0 923.0Q760 925 768 924Q779 923 780.5 914.0Q782 905 782 896Q781 886 779.0 871.5Q777 857 776 846Q775 839 772.0 833.5Q769 828 768 822Q764 802 774.0 785.0Q784 768 789 750Q785 737 773.5 725.5Q762 714 760 700Q757 667 773.5 648.5Q790 630 789 601Q789 587 784.5 567.5Q780 548 775 536Q773 530 768.0 523.0Q763 516 762 510Q757 484 767.5 459.5Q778 435 787 411Q795 389 793.0 345.5Q791 302 789 277Q788 265 784.5 251.0Q781 237 786 226L796 229Q796 231 796.0 233.5Q796 236 797 239Q804 277 808.5 331.0Q813 385 799 421Q796 431 790.0 442.5Q784 454 780 465Q770 492 778.0 505.5Q786 519 793 541Q800 563 802.5 589.0Q805 615 796 637Q793 646 785.5 656.5Q778 667 775 675Q772 682 772.5 689.5Q773 697 776 704Q782 718 795.0 730.5Q808 743 802 761Q801 764 797.5 772.0Q794 780 792 784Q788 794 784.0 800.0Q780 806 782 818Q783 823 785.5 827.5Q788 832 788 837Q790 845 792.0 856.0Q794 867 794 874Q795 885 794.0 896.5Q793 908 793 918Q796 926 801.0 923.0Q806 920 811 920Q817 920 822.0 924.5Q827 929 832 923Q834 919 834.0 895.5Q834 872 834 865Q834 862 832.0 854.0Q830 846 837 846Q838 846 847.0 851.0Q856 856 858 857Q863 861 866.0 867.5Q869 874 875 878Q887 884 898.0 884.0Q909 884 919 900Q927 912 927.0 919.0Q927 926 946 927Q958 928 960.5 925.0Q963 922 970 921Q981 918 986.0 918.5Q991 919 988 900Q985 874 964.5 852.0Q944 830 937 807Q934 796 933.0 786.5Q932 777 923 768Q908 753 894.5 759.5Q881 766 869 758Q855 750 844.5 733.0Q834 716 834 700V325Q841 306 841.5 287.0Q842 268 849 248Q851 241 856.0 234.5Q861 228 864 221Q871 199 870.0 177.5Q869 156 893 142Q899 139 905.5 137.0Q912 135 917 131Q922 126 924.5 118.0Q927 110 933 104Q940 96 953.5 88.5Q967 81 975 71Q980 64 977.5 57.5Q975 51 967 53Q962 54 960.5 57.5Q959 61 952 55Q950 53 949.5 51.0Q949 49 946 48Q936 43 926.5 45.0Q917 47 907 48Q898 48 896.0 46.0Q894 44 885 53Q875 64 869.0 74.5Q863 85 843 82Q843 78 843.0 67.0Q843 56 839 53Q838 53 833.0 53.0Q828 53 827 54Q824 56 825.0 64.5Q826 73 825 77Q823 81 817.0 84.0Q811 87 809 94Q807 103 808.5 114.5Q810 126 808 134Q806 139 798.5 145.0Q791 151 789 155Q787 164 791.5 179.0Q796 194 792 200Q789 204 777.5 206.0Q766 208 760 211Q754 213 749.0 223.0Q744 233 739 239Q735 244 730.5 247.0Q726 250 722 257Q720 262 718.5 269.0Q717 276 714 278Q703 283 692.5 279.5Q682 276 678 292Q676 301 678.5 307.5Q681 314 675 323Q672 329 656.5 343.0Q641 357 636 359Q631 361 618.0 361.0Q605 361 599 360Q593 360 584.0 355.5Q575 351 571 352Q565 353 563.5 356.0Q562 359 559 362Q556 364 544.0 371.0Q532 378 530 378Q525 379 521.0 375.5Q517 372 512 372Q496 370 474.5 401.5Q453 433 432 423Q428 421 424.0 416.0Q420 411 414 411Q407 412 400.0 422.5Q393 433 385 436Q380 438 366.0 440.0Q352 442 346 441Q335 441 323.0 433.5Q311 426 304 440Q303 447 319.0 453.0Q335 459 340 459Q344 460 365.5 457.5Q387 455 391 454Q400 452 405.0 444.5Q410 437 414 436Q419 436 424.0 438.5Q429 441 434 441Q440 442 448.0 441.5Q456 441 461 438Q464 437 476.5 426.0Q489 415 491 413Q495 408 499.5 401.0Q504 394 510 393Q515 392 518.0 394.0Q521 396 526 396Q541 398 554.5 385.5Q568 373 583 375Q596 377 613.0 380.5Q630 384 643 376Q647 373 649.5 369.5Q652 366 658 368Q659 377 656.5 386.0Q654 395 653 405Q652 410 653.0 417.0Q654 424 654 430Q654 500 654.0 571.0Q654 642 654 712Q654 726 654.5 742.5Q655 759 654 772Q653 793 640.0 807.5Q627 822 615 836Q612 840 609.5 845.0Q607 850 603 854Q593 862 579.0 864.0Q565 866 555 873Q544 881 537.0 894.0Q530 907 522 916Q519 920 511.0 925.5Q503 931 510 938Q514 943 519.0 940.0Q524 937 529 938Q533 938 537.0 941.5Q541 945 545 946Q553 949 561.0 942.5Q569 936 577 933Q593 929 608.5 926.0Q624 923 640 915Q644 913 647.0 909.5Q650 906 656 907ZM442 248Q444 246 447.5 244.5Q451 243 453 240Q461 231 464.5 218.5Q468 206 474 200Q482 192 496.0 189.0Q510 186 512 172Q513 167 512.0 159.0Q511 151 513 147Q515 141 526.5 135.0Q538 129 542 120Q545 110 543.5 104.0Q542 98 544 89Q546 80 554.0 55.0Q562 30 547 26Q534 23 535.0 38.0Q536 53 535 59Q534 65 531.0 70.5Q528 76 527 81Q526 88 527.0 96.5Q528 105 525 112Q521 121 507.0 125.5Q493 130 492 146Q492 152 494.0 158.0Q496 164 490 170Q486 176 477.5 177.0Q469 178 464 182Q457 187 452.5 201.0Q448 215 443 222Q437 230 431.5 232.5Q426 235 423 245Q420 254 419.0 263.5Q418 273 412 281Q405 290 399.0 289.0Q393 288 386 291Q381 294 376.0 302.5Q371 311 365 313Q358 315 343.0 313.5Q328 312 326 318Q324 323 326.0 327.5Q328 332 333 333Q336 334 353.0 332.5Q370 331 373 330Q382 327 386.0 319.5Q390 312 394 308Q400 305 406.5 305.5Q413 306 420 300Q423 298 428.0 291.0Q433 284 434 281Q437 274 437.5 263.0Q438 252 443 248ZM657 178Q666 171 666.5 161.5Q667 152 671 147Q674 143 679.5 141.5Q685 140 690 135Q695 127 698.5 113.5Q702 100 705 96Q709 93 717.5 91.5Q726 90 732 83Q735 81 744.0 62.5Q753 44 753 40Q755 33 749.5 28.0Q744 23 738 29Q733 35 728.5 50.5Q724 66 718 71Q714 74 708.5 74.5Q703 75 698 77Q685 83 684.0 102.0Q683 121 671 125Q666 127 660.5 128.0Q655 129 652 136Q649 143 650.5 149.5Q652 156 647 162Q640 170 629.5 171.0Q619 172 615 177Q609 186 612.5 198.5Q616 211 610 218Q603 227 589.0 224.0Q575 221 566 227Q557 233 558.5 244.5Q560 256 554 260Q548 265 535.5 261.0Q523 257 517 267Q509 280 534.0 280.5Q559 281 566 276Q577 269 574.5 256.5Q572 244 584 242Q596 241 606.0 241.5Q616 242 626 231Q635 221 631.5 211.0Q628 201 631 194Q633 189 643.0 186.0Q653 183 657 179ZM599 310Q607 313 618.0 310.0Q629 307 636 302Q640 299 645.5 291.5Q651 284 654 280Q656 276 660.0 266.0Q664 256 667 254Q671 252 679.0 252.0Q687 252 693 250Q707 245 720.5 229.0Q734 213 741 200Q745 193 749.5 179.0Q754 165 746 158Q734 148 733.5 164.5Q733 181 731 187Q728 198 713.0 215.5Q698 233 688 237Q678 241 669.5 238.5Q661 236 654 248Q648 256 643.0 268.5Q638 281 630 289Q622 296 611.0 294.0Q600 292 596 296Q594 299 595.0 304.0Q596 309 600 310ZM470 360Q482 347 484.0 338.5Q486 330 490 314Q491 309 494.5 302.0Q498 295 492 291Q480 284 477.5 302.5Q475 321 473 327Q469 340 454.5 354.0Q440 368 426 371Q418 373 411.5 369.5Q405 366 398 369Q398 369 390.5 374.5Q383 380 382 381Q378 387 373.0 397.5Q368 408 360 409Q354 410 347.0 409.0Q340 408 336 413Q331 424 346.5 424.0Q362 424 367 422Q380 418 385.0 405.5Q390 393 398 388Q405 383 410.5 384.5Q416 386 424 386Q436 385 449.0 376.5Q462 368 470 360ZM590 125Q605 128 616.0 113.0Q627 98 634 88Q636 85 639.0 83.0Q642 81 644 78Q648 72 654.0 56.0Q660 40 652 36Q643 31 641.5 42.5Q640 54 637 60Q634 67 620.5 85.0Q607 103 601 107Q597 109 586.5 115.0Q576 121 590 125Z"/></svg>